<svg width="50" height="336" viewBox="0 0 50 336" fill="none" xmlns="http://www.w3.org/2000/svg">
<path d="M41.6596 333.954C38.4289 336.645 34.9015 336.22 31.506 334.945C27.9127 333.642 24.6161 333.586 20.825 334.945C16.0778 336.702 13.5724 336.192 10.7373 333.954C-5.35015 319.704 -2.97658 298.003 15.2867 297.21C19.7371 297.408 22.8359 299.307 25.4402 299.477C29.3302 298.797 33.0554 296.842 37.2091 297.097C42.187 297.437 45.9452 299.137 48.4176 302.196C38.1322 307.494 40.5717 319.137 50 322.395C48.1209 326.645 45.6814 330.866 41.6266 333.982L41.6596 333.954ZM25.1106 297.04C24.6161 290.723 30.5829 285.51 37.4399 285C38.3959 292.309 29.7258 297.748 25.1106 297.04Z" fill="black"/>
</svg>
