<svg width="14" height="748" viewBox="0 0 14 748" fill="none" xmlns="http://www.w3.org/2000/svg">
<g clip-path="url(#clip0_349_495)">
<path d="M4.375 745.375H2.625C2.14184 745.375 1.75 744.983 1.75 744.5V737.5C1.75 737.017 2.14184 736.625 2.625 736.625H4.375C4.85816 736.625 5.25 736.233 5.25 735.75C5.25 735.267 4.85898 734.875 4.375 734.875H2.625C1.17523 734.875 0 736.05 0 737.5V744.5C0 745.95 1.17523 747.125 2.625 747.125H4.375C4.85816 747.125 5.25 746.733 5.25 746.25C5.25 745.767 4.85898 745.375 4.375 745.375ZM13.743 740.382L10.243 736.882C9.9009 736.54 9.34719 736.541 9.00566 736.882C8.66387 737.224 8.66387 737.778 9.00566 738.119L11.0141 740.125H5.25C4.76602 740.125 4.375 740.516 4.375 741C4.375 741.484 4.76629 741.875 5.25 741.875H11.0141L9.00758 743.881C8.66578 744.223 8.66578 744.777 9.00758 745.119C9.34937 745.461 9.90309 745.461 10.2449 745.119L13.7449 741.619C14.0848 741.276 14.0848 740.724 13.743 740.382Z" fill="black"/>
</g>
<defs>
<clipPath id="clip0_349_495">
<rect width="14" height="14" fill="white" transform="translate(0 734)"/>
</clipPath>
</defs>
</svg>
