<svg width="14" height="722" viewBox="0 0 14 722" fill="none" xmlns="http://www.w3.org/2000/svg">
<g clip-path="url(#clip0_349_495)">
<path d="M4.375 719.375H2.625C2.14184 719.375 1.75 718.983 1.75 718.5V711.5C1.75 711.017 2.14184 710.625 2.625 710.625H4.375C4.85816 710.625 5.25 710.233 5.25 709.75C5.25 709.267 4.85898 708.875 4.375 708.875H2.625C1.17523 708.875 0 710.05 0 711.5V718.5C0 719.95 1.17523 721.125 2.625 721.125H4.375C4.85816 721.125 5.25 720.733 5.25 720.25C5.25 719.767 4.85898 719.375 4.375 719.375ZM13.743 714.382L10.243 710.882C9.9009 710.54 9.34719 710.541 9.00566 710.882C8.66387 711.224 8.66387 711.778 9.00566 712.119L11.0141 714.125H5.25C4.76602 714.125 4.375 714.516 4.375 715C4.375 715.484 4.76629 715.875 5.25 715.875H11.0141L9.00758 717.881C8.66578 718.223 8.66578 718.777 9.00758 719.119C9.34937 719.461 9.90309 719.461 10.2449 719.119L13.7449 715.619C14.0848 715.276 14.0848 714.724 13.743 714.382Z" fill="black"/>
</g>
<defs>
<clipPath id="clip0_349_495">
<rect width="14" height="14" fill="white" transform="translate(0 708)"/>
</clipPath>
</defs>
</svg>
