<svg width="14" height="14" viewBox="0 0 14 14" fill="none" xmlns="http://www.w3.org/2000/svg">
<g clip-path="url(#clip0_78_4897)">
<path d="M4.375 11.375H2.625C2.14184 11.375 1.75 10.9832 1.75 10.5V3.5C1.75 3.01684 2.14184 2.625 2.625 2.625H4.375C4.85816 2.625 5.25 2.23316 5.25 1.75C5.25 1.26684 4.85898 0.875 4.375 0.875H2.625C1.17523 0.875 0 2.05023 0 3.5V10.5C0 11.9498 1.17523 13.125 2.625 13.125H4.375C4.85816 13.125 5.25 12.7332 5.25 12.25C5.25 11.7668 4.85898 11.375 4.375 11.375ZM13.743 6.38203L10.243 2.88203C9.9009 2.53996 9.34719 2.54051 9.00566 2.88203C8.66387 3.22383 8.66387 3.77754 9.00566 4.11934L11.0141 6.125H5.25C4.76602 6.125 4.375 6.51602 4.375 7C4.375 7.48398 4.76629 7.875 5.25 7.875H11.0141L9.00758 9.88148C8.66578 10.2233 8.66578 10.777 9.00758 11.1188C9.34937 11.4606 9.90309 11.4606 10.2449 11.1188L13.7449 7.61879C14.0848 7.27617 14.0848 6.72383 13.743 6.38203Z" fill="black"/>
</g>
<defs>
<clipPath id="clip0_78_4897">
<rect width="14" height="14" fill="white"/>
</clipPath>
</defs>
</svg>
