<svg width="400" height="187" viewBox="0 0 400 187" fill="none" xmlns="http://www.w3.org/2000/svg">
<g clip-path="url(#clip0_26_868)">
<path d="M101.023 149.911C101.314 149.877 101.589 149.762 101.817 149.578C102.045 149.395 102.217 149.15 102.312 148.873C102.407 148.596 102.422 148.297 102.355 148.012C102.288 147.727 102.142 147.466 101.933 147.261C98.765 144.14 93.5128 138.31 93.0897 133.658C92.4814 126.981 97.3211 129.164 98.6698 131.962C100.019 134.76 102.79 139.858 105.577 139.858C108.365 139.858 109.809 131.596 109.809 131.596C109.809 131.596 112.596 122.243 116.716 123.944C120.837 125.645 110.047 137.06 115.384 140.706C116.928 141.766 118.954 139.932 121.027 136.249C121.179 135.983 121.409 135.771 121.685 135.64C121.961 135.51 122.271 135.467 122.572 135.519C122.873 135.57 123.151 135.713 123.369 135.928C123.586 136.143 123.733 136.42 123.788 136.721C124.264 139.402 123.714 143.61 118.658 148.967C109.666 158.442 118.901 156.498 118.901 156.498C118.901 156.498 127.818 154.908 123.783 162.088C119.747 169.269 99.7435 174.112 113.686 183.709C127.628 193.306 208.764 178.85 208.764 178.85C208.764 178.85 237.516 174.197 282.284 178.076C282.549 178.101 282.816 178.048 283.053 177.925C283.289 177.802 283.486 177.613 283.618 177.382C283.751 177.15 283.814 176.885 283.801 176.618C283.788 176.351 283.698 176.094 283.543 175.877C280.369 171.378 275.265 161.701 275.54 155.369C275.736 150.886 278.142 152.046 279.713 153.996L287.245 164.208C287.385 164.396 287.58 164.536 287.803 164.607C288.026 164.678 288.265 164.678 288.488 164.606C288.711 164.534 288.906 164.395 289.045 164.206C289.185 164.018 289.262 163.791 289.266 163.556C289.303 159.884 289.853 154.701 292.693 154.892C295.867 155.104 294.465 162.745 293.439 167.017C293.418 167.104 293.429 167.196 293.47 167.276C293.511 167.356 293.579 167.419 293.662 167.453C293.745 167.487 293.838 167.49 293.923 167.461C294.008 167.433 294.08 167.375 294.126 167.297C296.935 162.581 303.467 152.894 309.946 152.46C318.525 151.877 296.105 178.426 296.105 178.426C296.105 178.426 288.308 186.237 300.785 184.97C300.785 184.97 327.813 182.374 341.756 182.618C355.698 182.861 353.757 172.549 347.452 172.051C341.147 171.553 331.584 168.649 338.725 164.759C345.865 160.869 362.854 163.058 362.854 163.058C362.854 163.058 370.259 163.228 368.307 155.369C366.356 147.51 349.901 137.304 310.613 142.55C271.325 147.796 289.033 126.271 316.431 124.57C343.829 122.868 395.483 118.984 399.609 105.619C403.734 92.2547 374.628 68.3233 329.262 70.7556C283.897 73.188 292.645 40.1418 317.134 35.2824C341.623 30.423 348.663 9.52807 265.723 4.66866C182.784 -0.190756 99.1141 13.4124 62.5076 29.9355C25.9012 46.4586 69.8173 63.1989 69.8173 63.1989C69.8173 63.1989 88.0015 70.6973 87.2716 80.3102C86.5417 89.923 70.7799 97.2148 25.1871 113.25C-20.4057 129.286 0.698199 156.985 50.168 153.827C82.6859 151.749 95.8189 150.499 101.023 149.911Z" fill="#EBF1FA"/>
<path d="M314.495 95.9165C318.277 98.3329 323.164 102.594 321.588 107.119C317.922 104.719 314.553 100.474 314.495 95.9165ZM310.258 92.3289C312.464 95.413 314.521 99.3398 312.718 102.8C310.105 99.8538 308.539 96.0489 310.258 92.3289ZM313.902 112.98C311.887 109.17 312.289 104.613 315.04 101.534C316.378 103.41 317.51 108.147 313.902 112.98ZM311.321 108.195C307.55 106.605 305.895 102.959 307.302 98.9635C311.078 101.004 311.84 105.068 311.321 108.195Z" fill="#B0E314"/>
<path d="M385.762 90.6596C379.33 86.9502 371.761 85.7366 364.351 85.1961C358.152 84.7404 351.847 84.698 345.812 86.1871C339.777 87.6762 333.991 90.808 330.236 95.7681C328.845 97.607 327.745 99.6737 326.205 101.385C324.758 102.972 322.973 104.214 320.983 105.019C318.993 105.825 316.849 106.173 314.707 106.038C310.877 105.768 306.99 103.955 303.34 105.142C299.987 106.234 297.813 109.758 297.596 113.282C297.379 116.806 298.829 120.261 300.875 123.139C301.811 124.496 302.964 125.691 304.287 126.673C308.242 125.518 312.313 124.807 316.426 124.554C341.332 123.006 386.269 119.657 397.35 109.022V108.561C397.318 101.11 392.193 94.3903 385.762 90.6596Z" fill="#00C68C"/>
<path opacity="0.38" d="M335.234 93.7014C338.767 96.9128 343.168 102.254 340.682 106.722C337.265 103.532 334.488 98.476 335.234 93.7014ZM329.892 104.925C330.505 107.686 330.775 110.982 328.532 112.832C327.596 110.05 327.633 106.981 329.892 104.925ZM329.865 118.131C329.585 113.552 331.981 109.313 335.99 107.532C335.149 111.051 332.758 116.223 329.865 118.131Z" fill="#425168"/>
<path d="M160.828 148.141C160.188 147.054 158.247 145.984 156.147 144.813C156.049 144.897 155.938 144.967 155.819 145.019C155.53 145.129 155.224 145.19 154.915 145.2C151.919 145.405 148.962 144.425 146.68 142.47C146.351 142.159 145.997 141.875 145.622 141.623C145.345 141.449 145.032 141.344 144.707 141.315C144.532 142.788 144.278 144.118 144.278 144.118C144.031 144.948 144.104 145.84 144.483 146.618C144.863 147.395 145.52 148.002 146.325 148.315C146.431 148.353 158.522 151.559 160.326 150.727C161.537 150.165 161.511 149.296 160.828 148.141Z" fill="#425168"/>
<path d="M245.159 121.803C245.125 121.66 245.047 121.53 244.936 121.432C244.825 121.335 244.687 121.274 244.54 121.258C244.394 121.243 244.246 121.273 244.117 121.345C243.988 121.417 243.885 121.527 243.821 121.66C242.763 123.955 240.647 127.67 238.6 127.124C237.608 121.114 234.444 115.679 229.709 111.857C226.917 109.678 224.558 106.995 222.754 103.945C219.734 98.7251 216.777 90.8451 219.803 82.8008C224.563 70.0826 214.699 64.0256 214.699 64.0256C207.024 57.8413 198.805 64.4283 198.805 64.4283L188.268 54.3597C186.809 56.1562 184.693 56.3947 182.979 56.2092C178.33 71.9586 192.452 86.0016 192.452 86.0016C192.452 86.0016 181.477 98.0309 184.518 141.432C184.518 141.432 195.626 143.551 205.278 139.211L205.189 137.42C208.314 135.55 229.672 135.899 236.659 136.069C237.269 136.083 237.86 135.856 238.304 135.436C238.748 135.016 239.008 134.438 239.029 133.827C239.071 132.767 239.061 131.787 239.029 130.823C240.568 130.293 246.476 127.786 245.159 121.803Z" fill="#B1A4A3"/>
<path d="M79.6657 103.908C80.2634 101.412 91.9525 101.184 92.5449 98.6085C95.0096 87.8192 97.395 76.3516 99.2992 65.2232C99.516 63.9408 89.5089 59.394 89.7151 58.101C90.0219 56.1933 100.532 57.5711 100.822 55.7163C102.059 47.6385 102.88 39.5022 103.282 31.3398C103.367 29.3738 95.29 27.9324 95.2847 26.0988C95.2847 24.5091 103.356 22.4847 103.282 21.0009C102.679 8.95575 99.6641 0.863786 92.9045 0.0688984C83.8494 -1.03335 72.4618 17.4875 61.4815 41.9648C60.7198 43.6711 70.6423 49.1612 69.8807 50.9152C69.2354 52.4149 57.906 50.1733 57.2607 51.6995C48.1316 73.4847 39.5366 98.2429 33.2002 117.712C32.3592 120.282 43.9267 125.47 43.1703 127.839C42.5885 129.667 29.667 128.714 29.1381 130.404C25.039 143.44 22.5795 151.988 22.5742 152.004C30.2065 153.753 39.5261 154.505 50.1679 153.827C62.0792 153.064 71.3775 152.417 78.6502 151.871C78.6502 151.871 83.8389 134.543 89.4613 111.597C89.9161 109.838 79.232 105.731 79.6657 103.908Z" fill="#B0E314"/>
<path d="M143.987 134.145C143.97 134.282 143.921 134.413 143.846 134.528C143.771 134.644 143.671 134.741 143.554 134.813C139.724 137.097 136.567 135.873 135.414 135.279C135.264 135.206 135.137 135.094 135.044 134.955C134.951 134.817 134.896 134.656 134.885 134.49L129.717 54.7148C129.717 54.7148 119.842 40.0517 126.893 26.0988C126.893 26.0988 152.281 25.2138 163.214 33.1627C163.214 33.1627 156.618 99.361 151.858 126.959C151.556 128.729 147.531 131.093 144.395 130.844L143.987 134.145Z" fill="#FAD731"/>
<path d="M201.772 70.7026C201.772 70.7026 205.194 66.7282 207.489 69.0227C209.785 71.3173 206.342 74.587 206.342 74.587M187.433 141.813L187.036 136.148M190.739 141.962L190.411 136.148M199.006 141.209L198.609 136.498M201.772 140.526V135.47" stroke="#425168" stroke-width="1.68" stroke-miterlimit="10" stroke-linecap="round"/>
<path d="M188.295 54.3809L186.359 52.5368C186.21 52.3876 186.027 52.2767 185.826 52.2134C185.625 52.1501 185.411 52.1364 185.204 52.1733C184.996 52.2102 184.8 52.2967 184.633 52.4255C184.466 52.5543 184.332 52.7215 184.244 52.913C183.742 53.9854 183.323 55.0944 182.99 56.2304C184.693 56.4158 186.809 56.1721 188.295 54.3809Z" fill="#425168"/>
<path d="M201.772 70.7026C201.772 70.7026 205.194 66.7282 207.49 69.0227C209.785 71.3173 206.342 74.587 206.342 74.587" stroke="#425168" stroke-width="1.68" stroke-miterlimit="10" stroke-linecap="round"/>
<path d="M264.925 144.532C261.54 146.238 258.821 145.592 257.023 144.638C256.962 144.604 256.894 144.584 256.825 144.579C256.756 144.573 256.686 144.583 256.62 144.606C256.555 144.63 256.495 144.667 256.445 144.715C256.395 144.764 256.356 144.822 256.33 144.887C256.184 145.254 256.007 145.609 255.801 145.947C253.987 148.904 251.326 151.564 249.205 153.567C247.619 155.035 243.387 157.833 243.652 159.82C243.985 162.205 248.544 165.517 251.982 162.205L264.332 153.641C266.882 151.961 266.58 149.174 266.21 147.611L265.517 144.813C265.502 144.752 265.474 144.695 265.434 144.646C265.394 144.598 265.344 144.558 265.287 144.531C265.231 144.505 265.169 144.491 265.106 144.491C265.043 144.491 264.981 144.505 264.925 144.532ZM228.493 140.314C224.658 142.629 221.691 140.939 220.099 139.492C220.066 139.463 220.027 139.44 219.985 139.426C219.943 139.412 219.899 139.407 219.854 139.411C219.81 139.415 219.767 139.428 219.728 139.449C219.689 139.47 219.655 139.499 219.628 139.535C219.286 139.995 218.814 140.344 218.274 140.536L207.923 144.14C201.576 145.687 201.772 152.014 201.772 152.014C201.978 153.927 206.839 154.198 208.473 153.827L226.531 149.306C227.466 149.091 228.282 148.519 228.805 147.712C229.328 146.905 229.517 145.927 229.334 144.982L228.948 140.552C228.942 140.502 228.923 140.454 228.895 140.412C228.866 140.371 228.827 140.337 228.783 140.313C228.738 140.29 228.688 140.278 228.638 140.278C228.587 140.278 228.538 140.29 228.493 140.314Z" fill="#425168"/>
<path d="M137.413 150.954L137.286 151.824C138.273 152.244 139.193 152.808 140.015 153.498C141.047 154.411 142.177 155.205 143.385 155.867C143.992 156.196 144.665 156.383 145.354 156.416C146.044 156.449 146.732 156.327 147.367 156.058C147.574 155.959 147.755 155.814 147.896 155.634C146.463 154.272 145.04 152.984 143.892 151.924C143.127 151.235 142.526 150.383 142.133 149.43C141.74 148.477 141.566 147.448 141.623 146.418L142.279 135.47C140.387 136.299 138.25 136.37 136.308 135.666L137.498 148.533C137.562 149.341 137.534 150.153 137.413 150.954Z" fill="#ECBA97"/>
<path d="M147.917 155.634C147.776 155.814 147.595 155.959 147.388 156.058C146.753 156.327 146.065 156.449 145.375 156.416C144.686 156.383 144.013 156.196 143.406 155.867C142.198 155.205 141.068 154.411 140.036 153.498C139.214 152.808 138.295 152.243 137.307 151.824L136.778 155.575C136.639 156.554 136.836 157.55 137.337 158.401C137.838 159.253 138.612 159.908 139.534 160.26L150.393 164.409C150.393 164.409 154.27 165.379 154.624 163.44C154.777 162.443 151.329 158.877 147.917 155.634Z" fill="#425168"/>
<path d="M213.683 3.88965C213.292 10.5561 212.821 23.2637 214.011 34.4875C214.011 34.4875 239.399 20.1795 258.44 23.3591L256.489 4.1811C242.102 3.57699 227.747 3.5028 213.683 3.88965Z" fill="#00C68C"/>
<path d="M126.94 26.0989C126.94 26.0989 152.329 25.2139 163.261 33.1628C164.24 23.7089 162.203 13.0945 160.849 7.53027C151.133 8.59012 141.761 9.89374 132.817 11.3351L126.94 26.0989Z" fill="#425168"/>
<path d="M189.03 48.8538C188.967 48.769 188.85 48.6101 187.856 40.6718C187.85 40.5861 187.875 40.5011 187.928 40.4335C187.981 40.3659 188.057 40.3204 188.142 40.3061C188.671 40.1525 188.803 40.3061 188.903 41.048C189.3 43.899 189.861 48.1172 189.961 48.5518C189.988 48.6181 190.001 48.6892 190 48.7608C189.999 48.8324 189.984 48.903 189.954 48.9684C189.925 49.0337 189.883 49.0925 189.831 49.1411C189.778 49.1898 189.716 49.2272 189.649 49.2513C189.104 49.3997 189.088 48.9333 189.03 48.8538ZM196.229 25.9293C195.774 20.8738 190.009 23.2002 187.269 25.3993C185.989 22.3629 181.625 18.7488 179.912 23.0041C179.895 23.0427 179.886 23.084 179.885 23.126C178.002 27.4078 181.662 33.2369 184.09 36.6285C184.171 36.7726 184.304 36.8801 184.461 36.9285C184.619 36.9769 184.789 36.9624 184.936 36.8881C188.028 35.1056 190.926 33.0065 193.584 30.6244C194.922 29.395 196.388 27.9059 196.229 25.9293Z" fill="#FB83C3"/>
<path d="M255.785 131.48C256.076 133.864 257.266 143.859 257.028 144.638C258.874 145.793 260.852 146.821 264.798 144.601L263.401 130.823C260.934 131.559 258.342 131.783 255.785 131.48Z" fill="#CA9E67"/>
<path d="M258.44 23.3591C239.399 20.1796 214.011 34.4875 214.011 34.4875C214.011 34.4875 215.809 109.112 213.36 126.949C213.323 127.212 213.377 127.48 213.512 127.708C213.648 127.937 213.858 128.112 214.106 128.205C216.613 129.164 224.156 131.353 231.984 126.912L232.761 126.483C232.933 126.388 233.076 126.248 233.175 126.078C233.273 125.908 233.324 125.715 233.322 125.518C233.258 118.846 232.692 62.4888 232.042 45.2768C232.037 45.1608 232.076 45.0472 232.15 44.9579C232.224 44.8686 232.328 44.8098 232.443 44.7927C232.558 44.7756 232.675 44.8015 232.771 44.8654C232.868 44.9293 232.938 45.0268 232.967 45.139C236.612 59.2721 247.174 102.106 248.629 128.671C248.64 128.881 248.707 129.085 248.825 129.259C248.942 129.434 249.105 129.573 249.295 129.662C251.659 130.77 260.307 134.103 268.728 128.247C268.901 128.124 269.038 127.957 269.125 127.764C269.213 127.57 269.247 127.356 269.225 127.145L258.44 23.3591Z" fill="#425168"/>
<path d="M375.464 95.3229C373.745 90.3152 386.571 87.0826 383.926 80.7235C381.282 74.3644 372.554 79.7961 370.042 73.437C367.53 67.0779 377.447 67.2104 374.406 58.3342C371.364 49.4579 355.232 58.3342 354.836 51.4451C354.439 44.5561 347.299 31.1755 337.514 41.9065C327.729 52.6375 338.307 59.9239 338.836 67.3429C339.365 74.7618 326.935 73.967 326.142 82.5782C325.348 91.1895 341.613 89.8647 342.274 96.6213C342.935 103.378 332.489 100.198 332.621 109.737C332.753 119.276 343.607 122.455 343.607 122.455C358.692 120.961 374.517 118.698 385.534 115.105C392.823 99.5147 377.183 100.331 375.464 95.3229Z" fill="#B0E314"/>
<path d="M220.072 139.492C221.659 140.934 224.611 142.613 228.435 140.335L227.689 128.714C225.403 129.383 223.022 129.664 220.644 129.545C220.644 129.545 220.564 137.749 219.988 139.439C220.019 139.452 220.048 139.47 220.072 139.492Z" fill="#CA9E67"/>
<path d="M149.478 138.369L150.329 128.941C148.806 130.086 146.431 131.003 144.416 130.844L144.236 132.232L144.839 138.337C144.888 139.332 144.841 140.329 144.702 141.315C145.026 141.344 145.34 141.449 145.617 141.623C145.992 141.875 146.346 142.159 146.674 142.47C148.958 144.427 151.917 145.407 154.915 145.2C155.224 145.19 155.53 145.129 155.819 145.019C155.938 144.967 156.049 144.897 156.147 144.813C152.942 143.027 149.361 141.008 149.478 138.369Z" fill="#ECBA97"/>
<g opacity="0.38">
<path d="M325.692 111.756C323.576 115.317 323.783 120.033 325.126 123.981L327.48 123.812C329.077 120.325 327.4 115.28 325.692 111.756Z" fill="#425168"/>
</g>
<g opacity="0.38">
<path d="M332.933 118.306C332.787 120.057 333.212 121.809 334.144 123.298L338.201 122.948C336.805 121.033 335.007 119.448 332.933 118.306Z" fill="#425168"/>
</g>
<path opacity="0.38" d="M329.902 120.341C329.63 121.44 329.775 122.602 330.31 123.6L332.261 123.446C331.687 122.265 330.885 121.21 329.902 120.341ZM317.933 120.823C317.843 122.051 318.013 123.284 318.43 124.442L322.973 124.146C321.773 122.439 319.972 121.252 317.933 120.823Z" fill="#425168"/>
<path opacity="0.38" d="M362.383 120.145C362.383 120.145 350.461 77.8195 350.493 61.2859C350.494 61.1906 350.53 61.099 350.593 61.0277C350.656 60.9564 350.742 60.9101 350.836 60.8972C350.931 60.8844 351.026 60.9059 351.106 60.9577C351.186 61.0096 351.244 61.0884 351.271 61.1799C353.974 70.6867 364.023 106.801 364.362 119.837M50.369 153.811C66.8448 102.35 80.0995 50.2793 85.6849 27.5879C85.7089 27.4937 85.695 27.3938 85.6462 27.3097C85.5974 27.2256 85.5176 27.1641 85.424 27.1384C85.3304 27.1127 85.2304 27.1248 85.1457 27.1722C85.0609 27.2196 84.9981 27.2985 84.9708 27.3918L46.1323 154.044C47.4617 154.002 48.8122 153.938 50.1838 153.853L50.369 153.811ZM197.636 112.053C197.646 112.032 197.651 112.011 197.652 111.988C197.654 111.966 197.651 111.943 197.643 111.922C197.636 111.901 197.624 111.882 197.609 111.865C197.595 111.848 197.577 111.835 197.556 111.825C197.536 111.815 197.514 111.809 197.492 111.808C197.47 111.807 197.447 111.81 197.426 111.817C197.405 111.825 197.386 111.836 197.369 111.851C197.352 111.866 197.339 111.884 197.329 111.904L195.911 114.146C195.816 114.299 195.675 114.418 195.507 114.485C195.34 114.551 195.155 114.562 194.981 114.516C194.807 114.47 194.652 114.369 194.54 114.228C194.427 114.087 194.363 113.913 194.356 113.733L194.224 106.844C194.224 106.808 194.21 106.775 194.186 106.75C194.161 106.725 194.127 106.711 194.092 106.711C194.057 106.711 194.023 106.725 193.999 106.75C193.974 106.775 193.96 106.808 193.96 106.844C193.23 111.295 191.4 126.604 195.176 141.819H195.277C195.039 138.761 193.949 122.572 197.636 112.053ZM213.302 106.817C200.698 107.31 203.322 95.2964 203.94 92.986C203.943 92.971 203.94 92.9558 203.932 92.9426C203.925 92.9294 203.914 92.919 203.9 92.913C203.886 92.9069 203.871 92.9056 203.856 92.9093C203.841 92.9129 203.828 92.9212 203.819 92.933C199.656 98.3276 198.207 96.6742 197.578 95.5826C194.996 91.1736 201.962 82.1702 203.983 80.3208C204.089 80.2307 203.983 80.077 203.845 80.1512C200.492 82.3239 192.283 88.7042 195.911 97.2678C196.247 98.087 196.856 98.7635 197.636 99.1808C198.54 99.6418 199.794 99.8167 200.989 98.4389C201.004 98.4212 201.024 98.409 201.046 98.4044C201.069 98.3998 201.092 98.4031 201.113 98.4136C201.133 98.4241 201.149 98.4413 201.158 98.4623C201.168 98.4833 201.17 98.5068 201.164 98.529C198.218 109.435 209.653 107.787 213.329 107.008C213.354 107.004 213.377 106.991 213.392 106.97C213.408 106.95 213.414 106.924 213.411 106.899C213.407 106.874 213.394 106.851 213.374 106.836C213.353 106.82 213.328 106.814 213.302 106.817ZM239.013 130.844C239.865 130.54 240.683 130.145 241.451 129.667C241.425 127.956 241.034 126.991 240.632 126.451C240.375 126.722 240.055 126.925 239.7 127.043C239.346 127.16 238.968 127.188 238.601 127.124C238.819 128.362 238.956 129.614 239.013 130.87C239.013 130.87 239.018 130.849 239.013 130.844ZM210.991 136.371L204.528 113.791C204.522 113.756 204.51 113.723 204.491 113.693C204.473 113.663 204.449 113.637 204.42 113.616C204.392 113.595 204.359 113.58 204.325 113.572C204.291 113.564 204.256 113.563 204.221 113.568C204.186 113.574 204.153 113.586 204.123 113.605C204.093 113.623 204.067 113.647 204.046 113.676C204.026 113.704 204.011 113.737 204.003 113.771C203.994 113.805 203.993 113.841 203.999 113.876L205.22 137.441C206.03 136.938 208.172 136.599 210.991 136.371ZM147.785 123.806C153.915 66.2936 153.989 47.5608 153.482 41.4878C153.482 41.4218 153.455 41.3584 153.409 41.3117C153.362 41.265 153.299 41.2388 153.233 41.2388C153.167 41.2388 153.104 41.265 153.057 41.3117C153.011 41.3584 152.984 41.4218 152.984 41.4878C152.503 57.5234 144.416 130.828 144.416 130.828C147.552 131.077 151.578 128.708 151.879 126.944C152.054 125.953 152.228 124.898 152.408 123.812C151.543 124.584 150.471 125.083 149.324 125.248C149.124 125.28 148.918 125.266 148.724 125.207C148.529 125.147 148.351 125.044 148.202 124.905C148.054 124.766 147.939 124.595 147.867 124.404C147.794 124.214 147.766 124.009 147.785 123.806Z" fill="#425168"/>
<g style="mix-blend-mode:multiply" opacity="0.38">
<path d="M232.031 45.2768C232.045 45.1277 232.073 44.9803 232.116 44.837L225.864 45.8968C224.203 46.1724 224.357 48.822 226.039 48.5465L232.111 47.5396C232.084 46.7129 232.058 45.9604 232.031 45.2768Z" fill="#425168"/>
</g>
</g>
<defs>
<clipPath id="clip0_26_868">
<rect width="400" height="187" fill="white"/>
</clipPath>
</defs>
</svg>
