<svg width="295" height="134" viewBox="0 0 295 134" fill="none" xmlns="http://www.w3.org/2000/svg">
<g clip-path="url(#clip0_26_794)">
<path fill-rule="evenodd" clip-rule="evenodd" d="M280.128 110.947C279.609 113.943 276.531 115.933 273.287 115.371L151.18 94.208C147.936 93.646 145.707 90.735 146.227 87.74L160.5 5.387C161.018 2.392 164.098 0.401005 167.34 0.963005L289.447 22.126C292.692 22.689 294.921 25.599 294.402 28.594L280.128 110.947Z" fill="#F6E8C8"/>
<path fill-rule="evenodd" clip-rule="evenodd" d="M162.686 40.66L164.022 32.952C164.022 32.952 166.026 15.967 180.162 16.717C180.162 16.717 188.882 8.26201 205.475 17.184C222.067 26.106 214.361 55.993 213.648 61.16C213.402 62.944 211.564 73.47 210.15 81.513C209.23 86.74 204.255 90.235 199.026 89.328L195.885 88.784L165.915 83.589C160.188 82.597 156.35 77.149 157.345 71.422L162.685 40.66H162.686Z" fill="#934567"/>
<path fill-rule="evenodd" clip-rule="evenodd" d="M187.575 83.376L197.39 89.61C197.39 89.61 199.612 90.847 199.25 93.335C198.89 95.823 197.702 102.271 197.702 102.271L160.515 95.826L161.509 90.091C161.79 88.4723 162.547 86.974 163.684 85.7881C164.821 84.6022 166.286 83.7825 167.891 83.434L176.781 81.505L180.213 85.616C180.516 85.9785 180.936 86.2236 181.401 86.3089C181.865 86.3942 182.345 86.3143 182.757 86.083L187.575 83.376Z" fill="#425168"/>
<path fill-rule="evenodd" clip-rule="evenodd" d="M206.95 53.07C206.95 53.07 205.858 52.368 205.754 52.304C199.571 48.564 195.657 44.347 193.171 40.45L192.971 40.382C187.369 37.328 184.249 33.555 182.508 30.204L182.281 30.31C182.281 30.31 179.364 41.878 167.836 40.169L167.823 40.177L166.719 46.546C166.719 46.546 165.265 56.978 171.737 64.193C174.532 67.309 176.753 69.722 178.519 71.471L176.78 81.505L176.781 81.507L180.213 85.616C180.516 85.9785 180.936 86.2236 181.401 86.3089C181.865 86.3941 182.345 86.3142 182.757 86.083L187.503 83.416L187.577 83.364L189.317 73.324C191.565 72.271 194.459 70.751 198.123 68.766C204.306 65.418 207.131 59.072 208.216 55.839C208.395 55.3028 208.364 54.7187 208.129 54.2047C207.894 53.6906 207.473 53.2857 206.95 53.07Z" fill="#FBD7B6"/>
<path opacity="0.38" fill-rule="evenodd" clip-rule="evenodd" d="M178.19 73.3699C180.6 75.7999 181.813 76.6819 182.862 76.8639L183.384 76.9539C184.474 77.1439 185.687 76.8239 188.988 75.2239L189.317 73.3239C186.015 74.9239 184.803 75.2429 183.714 75.0539L183.191 74.9639C182.142 74.7819 180.929 73.8989 178.519 71.4709L178.19 73.3699Z" fill="#435168"/>
<path fill-rule="evenodd" clip-rule="evenodd" d="M276.817 37.884C276.739 37.884 276.661 37.878 276.582 37.864L229.253 29.659C229.076 29.6287 228.907 29.5637 228.755 29.4678C228.603 29.372 228.471 29.2471 228.368 29.1003C228.264 28.9535 228.191 28.7878 228.151 28.6126C228.112 28.4373 228.107 28.256 228.138 28.079C228.202 27.7225 228.403 27.4055 228.699 27.1966C228.995 26.9876 229.361 26.9037 229.718 26.963L277.048 35.167C277.225 35.1975 277.394 35.2626 277.546 35.3585C277.698 35.4544 277.829 35.5793 277.933 35.7261C278.036 35.8728 278.11 36.0385 278.149 36.2137C278.188 36.3889 278.193 36.5701 278.162 36.747C278.108 37.0648 277.943 37.3532 277.697 37.5612C277.451 37.7693 277.139 37.8836 276.817 37.884ZM271.448 48.724C271.37 48.724 271.292 48.718 271.213 48.704L227.273 41.087C227.096 41.0568 226.926 40.9919 226.774 40.8961C226.622 40.8003 226.491 40.6754 226.387 40.5286C226.284 40.3818 226.21 40.2161 226.17 40.0408C226.131 39.8655 226.126 39.6841 226.157 39.507C226.284 38.762 227.014 38.252 227.738 38.391L271.679 46.008C271.856 46.0384 272.025 46.1034 272.177 46.1993C272.329 46.2951 272.461 46.42 272.564 46.5668C272.668 46.7135 272.741 46.8793 272.781 47.0545C272.82 47.2298 272.825 47.4111 272.794 47.588C272.74 47.9058 272.575 48.1941 272.329 48.4019C272.082 48.6098 271.77 48.7239 271.448 48.724ZM274.978 61.105C274.9 61.105 274.822 61.099 274.743 61.085L225.293 52.514C225.116 52.4836 224.947 52.4185 224.795 52.3226C224.643 52.2267 224.512 52.1017 224.408 51.955C224.305 51.8083 224.231 51.6425 224.192 51.4674C224.153 51.2922 224.148 51.1109 224.179 50.934C224.243 50.5777 224.444 50.2607 224.74 50.0519C225.036 49.843 225.402 49.759 225.759 49.818L275.209 58.388C275.386 58.4184 275.555 58.4834 275.707 58.5793C275.859 58.6751 275.991 58.8 276.094 58.9468C276.198 59.0935 276.271 59.2593 276.311 59.4345C276.35 59.6098 276.355 59.7911 276.324 59.968C276.27 60.2859 276.105 60.5745 275.859 60.7826C275.613 60.9907 275.3 61.1049 274.978 61.105ZM229.869 87.227C229.947 86.775 230.039 86.33 230.136 85.886L219.818 84.097C219.641 84.0664 219.46 84.071 219.284 84.1105C219.109 84.15 218.943 84.2236 218.797 84.3271C218.65 84.4306 218.525 84.5621 218.429 84.7139C218.333 84.8658 218.268 85.035 218.237 85.212C218.206 85.3891 218.211 85.5704 218.25 85.7456C218.29 85.9209 218.364 86.0867 218.467 86.2335C218.571 86.3803 218.702 86.5053 218.854 86.6013C219.006 86.6973 219.175 86.7624 219.352 86.793L229.667 88.581C229.726 88.129 229.791 87.678 229.869 87.227Z" fill="#154669"/>
<path fill-rule="evenodd" clip-rule="evenodd" d="M290.313 97.703C287.51 113.873 272.129 124.71 255.96 121.907C239.79 119.105 228.954 103.725 231.756 87.555C234.559 71.385 249.938 60.548 266.109 63.351C282.279 66.153 293.115 81.533 290.313 97.703Z" fill="#425168"/>
<path fill-rule="evenodd" clip-rule="evenodd" d="M252.713 87.51C252.888 87.3865 253.086 87.2987 253.296 87.2517C253.505 87.2047 253.721 87.1993 253.932 87.236C254.144 87.2727 254.346 87.3507 254.527 87.4655C254.708 87.5802 254.865 87.7296 254.988 87.905L257.807 91.906L269.464 83.693C270.188 83.183 271.193 83.367 271.713 84.105L274.533 88.108C275.051 88.845 274.887 89.855 274.166 90.363L257.146 102.353C256.422 102.861 255.416 102.677 254.898 101.94L248.318 92.602C248.194 92.4271 248.106 92.2295 248.059 92.0206C248.012 91.8117 248.007 91.5955 248.043 91.3844C248.08 91.1734 248.157 90.9716 248.272 90.7906C248.387 90.6097 248.536 90.4532 248.711 90.33L252.713 87.51Z" fill="white"/>
<path fill-rule="evenodd" clip-rule="evenodd" d="M234.647 74.947L221.617 72.689C221.26 72.6307 220.895 72.7149 220.599 72.9234C220.304 73.132 220.102 73.4481 220.037 73.804C219.907 74.549 220.407 75.256 221.152 75.384L233.114 77.458C233.588 76.594 234.1 75.756 234.647 74.947ZM245.431 65.046L223.598 61.262C222.876 61.125 222.145 61.633 222.018 62.378C221.888 63.123 222.388 63.83 223.133 63.958L242.048 67.236C243.128 66.437 244.258 65.704 245.431 65.046Z" fill="#154669"/>
<path fill-rule="evenodd" clip-rule="evenodd" d="M206.402 51.878C189.187 41.468 189.622 27.16 189.629 27.017C189.635 26.8946 189.592 26.775 189.509 26.6844C189.427 26.5938 189.311 26.5397 189.189 26.534C189.067 26.5283 188.947 26.5715 188.856 26.654C188.766 26.7365 188.712 26.8516 188.706 26.974C188.698 27.127 188.554 30.781 190.608 35.801C191.106 37.0067 191.682 38.1782 192.334 39.308C180.25 32.211 180.722 21.594 180.729 21.486C180.73 21.3674 180.686 21.2528 180.605 21.166C180.524 21.0791 180.413 21.0266 180.295 21.0193C180.176 21.012 180.059 21.0504 179.969 21.1267C179.878 21.2029 179.819 21.3111 179.806 21.429C179.799 21.549 179.641 24.436 181.163 28.262C181.358 28.749 181.589 29.266 181.856 29.802C181.82 29.8495 181.794 29.9035 181.779 29.961C181.661 30.428 178.755 41.369 167.478 39.508C167.358 39.4883 167.234 39.5169 167.135 39.5877C167.035 39.6585 166.968 39.7657 166.947 39.886L166.777 40.861C166.756 40.9819 166.784 41.1063 166.855 41.2066C166.925 41.3069 167.033 41.3751 167.154 41.396C167.275 41.417 167.399 41.389 167.5 41.3183C167.6 41.2476 167.668 41.1399 167.689 41.019L167.779 40.489C177.825 41.882 181.556 33.459 182.448 30.907C184.234 34.028 187.344 37.664 192.77 40.622C192.816 40.647 192.864 40.663 192.912 40.672C192.99 40.6811 193.069 40.6704 193.142 40.641C195.612 44.481 199.576 48.831 205.923 52.67C206.028 52.7292 206.152 52.7452 206.268 52.7147C206.385 52.6841 206.485 52.6094 206.547 52.5064C206.609 52.4034 206.629 52.2802 206.602 52.1629C206.575 52.0455 206.503 51.9434 206.402 51.878Z" fill="#7D3257"/>
<path opacity="0.7" fill-rule="evenodd" clip-rule="evenodd" d="M180.678 44.867C181.173 45.567 181.366 46.415 181.221 47.257C181.198 47.3833 181.214 47.5135 181.265 47.6309C181.317 47.7483 181.403 47.8476 181.511 47.9161C181.62 47.9845 181.746 48.019 181.875 48.0151C182.003 48.0111 182.127 47.969 182.231 47.894C182.3 47.8452 182.359 47.7832 182.405 47.7114C182.45 47.6397 182.48 47.5596 182.494 47.476C182.695 46.3014 182.421 45.0953 181.733 44.1222C181.046 43.149 180 42.4884 178.826 42.285C177.652 42.084 176.445 42.3574 175.472 43.0452C174.499 43.7329 173.839 44.7788 173.636 45.953C173.607 46.1217 173.646 46.295 173.745 46.4348C173.843 46.5747 173.993 46.6697 174.162 46.699C174.331 46.7257 174.503 46.6856 174.642 46.5874C174.782 46.4892 174.877 46.3406 174.909 46.173C174.979 45.7583 175.131 45.3616 175.355 45.006C175.58 44.6503 175.873 44.3427 176.217 44.101C176.559 43.8565 176.947 43.6825 177.357 43.5893C177.768 43.4961 178.193 43.4854 178.607 43.558C179.449 43.703 180.185 44.168 180.678 44.867ZM183.523 57.745C183.692 57.773 183.864 57.7334 184.004 57.635C184.144 57.5366 184.239 57.3871 184.269 57.219C184.354 56.725 184.626 56.294 185.036 56.004C185.446 55.714 185.946 55.599 186.436 55.686C186.929 55.771 187.36 56.043 187.65 56.453C187.94 56.862 188.053 57.36 187.968 57.853C187.947 58.0185 187.99 58.1859 188.089 58.3202C188.188 58.4545 188.335 58.5454 188.5 58.5738C188.664 58.6022 188.833 58.5659 188.971 58.4726C189.11 58.3793 189.207 58.2361 189.242 58.073C189.383 57.2448 189.19 56.3943 188.705 55.7081C188.22 55.022 187.483 54.5562 186.655 54.413C185.827 54.2729 184.978 54.4662 184.292 54.9508C183.606 55.4354 183.14 56.1719 182.996 56.999C182.967 57.1678 183.006 57.3412 183.105 57.4811C183.204 57.621 183.354 57.7159 183.523 57.745ZM189.83 64.989C189.745 64.9936 189.662 65.0149 189.585 65.0518C189.509 65.0887 189.44 65.1405 189.384 65.204C189.363 65.227 187.202 67.588 184.351 67.104L184.268 67.089C181.421 66.548 180.537 63.845 180.501 63.732C180.477 63.6508 180.436 63.5753 180.383 63.5097C180.329 63.4441 180.263 63.3898 180.188 63.3498C180.113 63.3099 180.031 63.2851 179.947 63.2769C179.862 63.2687 179.777 63.2772 179.696 63.302C179.533 63.3519 179.396 63.4645 179.315 63.6151C179.234 63.7658 179.216 63.9423 179.265 64.106C179.308 64.25 180.376 67.666 184.027 68.357L184.132 68.377C184.482 68.437 184.822 68.464 185.149 68.464C188.169 68.464 190.252 66.171 190.349 66.063C190.462 65.9347 190.52 65.7669 190.51 65.5961C190.5 65.4253 190.423 65.2654 190.296 65.151C190.233 65.0943 190.159 65.0507 190.079 65.0229C189.999 64.9951 189.914 64.9835 189.829 64.989M197.001 45.552C194.958 45.701 193.241 47.232 192.893 49.262C192.863 49.432 192.901 49.603 193.003 49.744C193.062 49.8288 193.141 49.898 193.233 49.9455C193.325 49.9931 193.428 50.0176 193.531 50.017C193.683 50.017 193.831 49.9631 193.947 49.8648C194.063 49.7665 194.141 49.6301 194.166 49.48C194.236 49.0655 194.388 48.669 194.613 48.3135C194.837 47.958 195.13 47.6506 195.474 47.409C195.816 47.1643 196.204 46.9903 196.614 46.8972C197.025 46.8042 197.45 46.7939 197.864 46.867C197.934 46.878 198.001 46.9 198.067 46.921L198.482 47.039C197.975 46.5571 197.481 46.0612 197.001 45.552Z" fill="#425168"/>
<path fill-rule="evenodd" clip-rule="evenodd" d="M200.17 48.552L200.287 48.842C200.51 49.399 200.577 49.995 200.478 50.565C200.463 50.6487 200.465 50.7346 200.483 50.8176C200.502 50.9007 200.537 50.9792 200.586 51.0486C200.635 51.1181 200.697 51.177 200.77 51.2221C200.842 51.2671 200.922 51.2973 201.006 51.311C201.09 51.326 201.175 51.3242 201.258 51.3056C201.341 51.2871 201.419 51.2522 201.488 51.203C201.558 51.1541 201.617 51.0919 201.662 51.0199C201.707 50.948 201.737 50.8678 201.751 50.784C201.799 50.501 201.81 50.194 201.796 49.86C201.244 49.4377 200.702 49.0016 200.171 48.552" fill="#425168"/>
<path fill-rule="evenodd" clip-rule="evenodd" d="M8.69814 120.04C8.88014 123.074 11.7181 125.395 15.0031 125.199L138.709 117.787C141.995 117.59 144.534 114.947 144.353 111.912L139.354 28.48C139.172 25.446 136.334 23.124 133.049 23.321L9.34414 30.733C6.05814 30.93 3.51714 33.573 3.69914 36.608L8.69814 120.04Z" fill="#F6E8C8"/>
<path fill-rule="evenodd" clip-rule="evenodd" d="M129.508 102.653L132.557 102.917C133.102 102.964 133.442 102.337 133.102 101.907C131.32 99.6571 127.616 94.5451 127.334 90.6891L124.882 49.7821C124.882 49.7821 131.37 38.9291 127.961 37.0071C125.395 35.5601 114.719 46.0581 114.719 46.0581L97.9961 47.0601C97.9961 47.0601 92.3341 36.8821 87.7161 37.1591C85.8951 37.2671 86.3941 42.274 86.3941 42.274L89.1841 88.853C89.3542 91.6903 88.742 94.5199 87.4141 97.033L82.9871 103.889C82.9241 104.008 82.8976 104.142 82.9107 104.276C82.9239 104.409 82.9762 104.536 83.0611 104.64C83.146 104.744 83.2597 104.821 83.3879 104.86C83.5162 104.9 83.6533 104.901 83.7821 104.863L90.1521 101.656C90.7401 101.484 91.2191 102.144 90.8721 102.649L85.9351 108.082C85.8734 108.172 85.8409 108.278 85.842 108.387C85.8432 108.495 85.8778 108.601 85.9413 108.69C86.0047 108.778 86.0939 108.844 86.1966 108.88C86.2993 108.916 86.4105 108.919 86.5151 108.889L89.2891 108.099C89.8321 107.945 90.2621 108.569 89.9221 109.021L83.3551 118.141L81.1541 121.199L81.1811 121.198L138.708 117.751C139.462 117.706 140.202 117.526 140.893 117.221L129.508 102.653Z" fill="#B77E56"/>
<path fill-rule="evenodd" clip-rule="evenodd" d="M18.2451 47.81C17.8907 47.8065 17.5514 47.6657 17.2986 47.4174C17.0458 47.169 16.899 46.8323 16.8892 46.4781C16.8794 46.1238 17.0072 45.7795 17.2459 45.5175C17.4845 45.2555 17.8154 45.0962 18.1691 45.073L68.1621 42.202C68.9001 42.138 69.5651 42.735 69.6071 43.49C69.6278 43.8525 69.5038 44.2084 69.2623 44.4795C69.0208 44.7507 68.6816 44.9148 68.3191 44.936L18.3261 47.807C18.2981 47.809 18.2731 47.809 18.2461 47.809M19.5021 59.475C19.1496 59.4692 18.8128 59.3278 18.5619 59.0802C18.311 58.8325 18.1652 58.4976 18.1549 58.1452C18.1446 57.7928 18.2706 57.45 18.5066 57.188C18.7426 56.9261 19.0705 56.7653 19.4221 56.739L68.8521 53.779C69.6101 53.755 70.2551 54.309 70.3021 55.063C70.3234 55.4255 70.2001 55.7817 69.9593 56.0536C69.7184 56.3254 69.3796 56.4906 69.0171 56.513L19.5871 59.473L19.5021 59.475ZM19.5281 71.092C19.1755 71.0865 18.8386 70.9452 18.5875 70.6976C18.3365 70.45 18.1905 70.1152 18.1801 69.7627C18.1697 69.4102 18.2955 69.0673 18.5315 68.8053C18.7675 68.5433 19.0954 68.3823 19.4471 68.356L69.5461 65.353C70.2961 65.33 70.9491 65.884 70.9961 66.637C71.0174 66.9995 70.8941 67.3557 70.6533 67.6276C70.4124 67.8994 70.0736 68.0646 69.7111 68.087L19.6131 71.09L19.5281 71.092ZM71.6261 100.083L61.1761 100.709C61.2231 101.163 61.2641 101.616 61.2911 102.074C61.3181 102.532 61.3321 102.987 61.3401 103.443L71.7901 102.817C72.1526 102.795 72.4916 102.629 72.7326 102.358C72.9736 102.086 73.0971 101.73 73.0761 101.367C73.0291 100.614 72.3581 100.107 71.6261 100.083Z" fill="#154669"/>
<path fill-rule="evenodd" clip-rule="evenodd" d="M0.0540713 105.742C1.03507 122.124 15.1111 134.608 31.4941 133.627C47.8741 132.645 60.3591 118.57 59.3781 102.188C58.3961 85.806 44.3211 73.322 27.9381 74.303C11.5581 75.284 -0.926929 89.359 0.0540713 105.742Z" fill="#00C78C"/>
<path fill-rule="evenodd" clip-rule="evenodd" d="M20.443 100.892C20.5852 100.732 20.7576 100.601 20.9504 100.507C21.1431 100.413 21.3525 100.359 21.5664 100.346C21.7804 100.333 21.9947 100.362 22.1973 100.432C22.3999 100.502 22.5866 100.612 22.747 100.754L26.409 104.002L35.871 93.3339C36.459 92.6709 37.479 92.6199 38.155 93.2189L41.818 96.4689C42.491 97.0669 42.562 98.0869 41.978 98.7479L28.162 114.322C27.574 114.982 26.552 115.034 25.878 114.435L17.333 106.855C17.1726 106.713 17.0418 106.541 16.948 106.348C16.8543 106.156 16.7994 105.947 16.7866 105.733C16.7738 105.519 16.8033 105.305 16.8733 105.103C16.9434 104.9 17.0527 104.714 17.195 104.554L20.443 100.892Z" fill="white"/>
<path fill-rule="evenodd" clip-rule="evenodd" d="M117.741 60.5699C117.639 60.5704 117.539 60.5473 117.448 60.5024C117.357 60.4576 117.277 60.3921 117.215 60.3113C117.153 60.2305 117.111 60.1365 117.092 60.0367C117.073 59.9369 117.077 59.8339 117.104 59.7359C117.109 59.7199 117.568 57.9959 116.774 56.7159C116.343 56.0169 115.591 55.5579 114.544 55.3529C113.482 55.1429 112.61 55.2869 111.931 55.7689C110.682 56.6509 110.413 58.4189 110.411 58.4349C110.401 58.5215 110.373 58.605 110.329 58.6805C110.285 58.756 110.227 58.8219 110.157 58.8742C110.087 58.9265 110.008 58.9641 109.923 58.9849C109.838 59.0056 109.75 59.0091 109.664 58.9949C109.491 58.9702 109.335 58.878 109.231 58.7385C109.126 58.5991 109.08 58.4238 109.104 58.2509C109.116 58.1559 109.446 55.9169 111.158 54.6979C112.148 53.9939 113.373 53.7779 114.798 54.0579C116.226 54.3389 117.269 55.0009 117.902 56.0289C118.996 57.8069 118.399 59.9969 118.374 60.0889C118.336 60.2277 118.254 60.3501 118.139 60.4373C118.025 60.5244 117.885 60.5704 117.741 60.5699ZM95.7771 61.8889C95.6463 61.8889 95.5186 61.8499 95.41 61.7771C95.3014 61.7043 95.2168 61.6009 95.1671 61.4799C95.1311 61.3919 94.2791 59.2859 95.1531 57.3929C95.6581 56.2959 96.6151 55.5129 97.9991 55.0629C99.3791 54.6129 100.623 54.6839 101.691 55.2659C103.536 56.2729 104.129 58.4549 104.152 58.5479C104.196 58.7165 104.172 58.8957 104.085 59.0463C103.997 59.197 103.853 59.3069 103.685 59.3519C103.32 59.4339 102.969 59.2329 102.879 58.8839C102.874 58.8669 102.396 57.1489 101.052 56.4209C100.318 56.0249 99.4291 55.9899 98.4051 56.3189C97.3871 56.6499 96.6951 57.1959 96.3501 57.9449C95.7261 59.2989 96.3801 60.9599 96.3861 60.9769C96.428 61.0771 96.4445 61.1861 96.4341 61.2942C96.4236 61.4022 96.3866 61.5061 96.3263 61.5964C96.266 61.6866 96.1843 61.7606 96.0885 61.8117C95.9926 61.8627 95.8857 61.8893 95.7771 61.8889ZM98.8201 78.5499C98.8171 78.4143 98.7868 78.2806 98.731 78.1569C98.6751 78.0333 98.5949 77.9221 98.4952 77.8301C98.3954 77.7382 98.2781 77.6673 98.1503 77.6217C98.0224 77.5761 97.8868 77.5568 97.7513 77.5649C97.6158 77.5729 97.4834 77.6083 97.3619 77.6687C97.2404 77.7291 97.1324 77.8135 97.0442 77.9166C96.9561 78.0198 96.8896 78.1397 96.8489 78.2691C96.8082 78.3986 96.7939 78.5349 96.8071 78.6699C96.8324 78.9297 96.9574 79.1696 97.1559 79.3392C97.3544 79.5088 97.6108 79.5948 97.8714 79.5793C98.132 79.5638 98.3764 79.4478 98.5533 79.2559C98.7302 79.064 98.8258 78.8109 98.8201 78.5499ZM103.301 80.1799C103.294 80.0638 103.264 79.9502 103.213 79.8455C103.162 79.7409 103.091 79.6473 103.004 79.5702C102.917 79.493 102.816 79.4338 102.706 79.3958C102.596 79.3578 102.479 79.3419 102.363 79.3489C102.247 79.356 102.133 79.3858 102.029 79.4367C101.924 79.4877 101.83 79.5587 101.753 79.6458C101.597 79.8217 101.518 80.0524 101.532 80.2869C101.546 80.5217 101.653 80.7411 101.829 80.8971C102.005 81.053 102.236 81.1326 102.471 81.1184C102.705 81.1042 102.925 80.9974 103.081 80.8214C103.237 80.6454 103.315 80.4147 103.301 80.1799ZM100.682 86.1259C100.673 85.9743 100.634 85.8259 100.568 85.6892C100.501 85.5525 100.409 85.4303 100.295 85.3294C100.181 85.2286 100.049 85.1511 99.9053 85.1015C99.7617 85.0518 99.6098 85.0309 99.4581 85.0399C99.3064 85.049 99.158 85.0879 99.0214 85.1543C98.8847 85.2207 98.7624 85.3134 98.6616 85.427C98.5608 85.5407 98.4833 85.6731 98.4336 85.8167C98.3839 85.9603 98.363 86.1123 98.3721 86.2639C98.3904 86.5703 98.5296 86.8568 98.7592 87.0604C98.9887 87.2641 99.2898 87.3682 99.5961 87.3499C99.9024 87.3316 100.189 87.1924 100.393 86.9629C100.596 86.7333 100.7 86.4323 100.682 86.1259ZM115.838 77.8949C115.821 77.6121 115.692 77.3476 115.48 77.1597C115.268 76.9718 114.99 76.8758 114.707 76.8929C114.424 76.91 114.16 77.0388 113.972 77.2509C113.784 77.463 113.688 77.7411 113.705 78.0239C113.722 78.3068 113.851 78.5713 114.063 78.7592C114.275 78.9471 114.553 79.043 114.836 79.0259C115.119 79.0088 115.383 78.8801 115.571 78.668C115.759 78.4559 115.855 78.1778 115.838 77.8949ZM119.451 72.5429C119.443 72.4 119.406 72.2601 119.343 72.1313C119.281 72.0025 119.193 71.8873 119.086 71.7923C118.979 71.6972 118.854 71.6242 118.719 71.5774C118.584 71.5306 118.441 71.5109 118.298 71.5194C118.155 71.528 118.015 71.5646 117.886 71.6272C117.757 71.6898 117.642 71.7771 117.547 71.8842C117.452 71.9913 117.379 72.1161 117.332 72.2514C117.285 72.3868 117.266 72.53 117.274 72.6729C117.291 72.9616 117.423 73.2316 117.639 73.4236C117.855 73.6155 118.139 73.7137 118.428 73.6964C118.716 73.6792 118.986 73.548 119.178 73.3317C119.37 73.1153 119.468 72.8316 119.451 72.5429ZM119.427 80.9929C119.407 80.6688 119.26 80.3658 119.017 80.1505C118.774 79.9352 118.455 79.8253 118.131 79.8449C117.807 79.8646 117.504 80.0121 117.289 80.2552C117.073 80.4982 116.963 80.8168 116.983 81.1409C117.003 81.465 117.15 81.7681 117.393 81.9834C117.636 82.1986 117.955 82.3086 118.279 82.2889C118.603 82.2693 118.906 82.1217 119.122 81.8787C119.337 81.6357 119.447 81.317 119.427 80.9929Z" fill="#154669"/>
<path fill-rule="evenodd" clip-rule="evenodd" d="M119.597 92.62C119.533 92.5622 119.457 92.5178 119.375 92.4892C119.294 92.4607 119.207 92.4486 119.12 92.4536C119.034 92.4586 118.949 92.4806 118.871 92.5185C118.793 92.5563 118.724 92.6091 118.666 92.674C117.036 94.514 115.417 95.362 113.888 95.163C111.499 94.876 109.836 92.233 109.493 91.642L108.688 78.194C110.003 77.646 115.086 75.203 115.626 69.931C116.127 65.031 110.505 66.163 107.99 69.526C107.896 69.6541 107.774 69.7588 107.633 69.8322C107.491 69.9056 107.335 69.9457 107.177 69.9493C107.018 69.953 106.86 69.9202 106.716 69.8534C106.571 69.7866 106.444 69.6876 106.344 69.564L105.423 68.419C104.743 67.575 103.735 67.019 102.651 67.017C102.253 67.017 101.855 67.082 101.473 67.222C100.185 67.691 99.0532 68.922 100.146 72.052C101.673 76.425 105.525 77.762 107.365 78.157L108.176 91.721C107.935 92.291 106.618 95.157 104.239 95.741C102.741 96.109 101.035 95.471 99.1942 93.843C99.1296 93.7853 99.0543 93.741 98.9725 93.7125C98.8908 93.6841 98.8042 93.672 98.7178 93.6771C98.6313 93.6823 98.5468 93.7044 98.4689 93.7423C98.3911 93.7802 98.3215 93.8331 98.2642 93.898C98.2066 93.9626 98.1623 94.0378 98.1338 94.1196C98.1053 94.2013 98.0933 94.2878 98.0983 94.3742C98.1033 94.4606 98.1253 94.5451 98.163 94.623C98.2008 94.7009 98.2535 94.7705 98.3182 94.828C100.071 96.382 101.765 97.163 103.378 97.163C103.775 97.163 104.167 97.116 104.555 97.021C106.803 96.47 108.219 94.459 108.924 93.174C109.777 94.366 111.424 96.192 113.724 96.471C113.922 96.496 114.12 96.509 114.32 96.509C116.119 96.509 117.91 95.514 119.652 93.551C119.71 93.4864 119.754 93.411 119.783 93.3291C119.812 93.2473 119.824 93.1606 119.819 93.074C119.813 92.9875 119.791 92.9028 119.753 92.8249C119.715 92.747 119.662 92.6773 119.597 92.62Z" fill="#154669"/>
<path fill-rule="evenodd" clip-rule="evenodd" d="M114.32 96.5089C114.12 96.5089 113.922 96.4959 113.725 96.4709C111.425 96.1919 109.777 94.366 108.924 93.174C108.219 94.46 106.802 96.469 104.554 97.021C104.167 97.116 103.775 97.1629 103.378 97.1629C103.368 97.1629 103.357 97.1589 103.346 97.1589L103.656 102.312C103.847 105.507 105.804 108.243 109.517 108.077L110.273 108.032C113.979 107.752 115.439 104.813 115.247 101.618L114.936 96.424C114.73 96.45 114.526 96.5089 114.32 96.5089Z" fill="#FB83C3"/>
<path fill-rule="evenodd" clip-rule="evenodd" d="M70.9321 88.506L57.7491 89.296C58.2041 90.166 58.6201 91.056 58.9911 91.966L71.0971 91.24C71.4595 91.2173 71.7982 91.052 72.039 90.7803C72.2798 90.5085 72.4032 90.1524 72.3821 89.79C72.3371 89.037 71.6701 88.477 70.9321 88.506ZM70.2381 76.93L48.1401 78.254C49.0291 78.8922 49.8848 79.5755 50.7041 80.301C50.8921 80.467 51.0691 80.641 51.2521 80.811L70.4021 79.664C70.7645 79.6413 71.1032 79.476 71.344 79.2043C71.5848 78.9325 71.7082 78.5764 71.6871 78.214C71.6401 77.461 70.9831 76.902 70.2381 76.93Z" fill="#154669"/>
</g>
<defs>
<clipPath id="clip0_26_794">
<rect width="295" height="134" fill="white"/>
</clipPath>
</defs>
</svg>
