<svg width="20" height="20" viewBox="0 0 20 20" fill="none" xmlns="http://www.w3.org/2000/svg">
<g clip-path="url(#clip0_92_3229)">
<path d="M15.8096 15.8679C16.7631 15.3118 17.5994 14.3386 17.6521 13.1355C17.6738 12.6399 17.6562 12.203 17.5257 11.6647C17.4813 11.4818 17.2312 11.4564 17.1513 11.6268C16.954 12.0476 16.7325 12.4553 16.4634 12.8358C16.0902 13.3634 15.5849 13.8201 14.9702 14.0193L15.8096 15.8679Z" fill="#DC8758"/>
<path d="M17.6524 13.1355C17.5998 14.3385 16.7634 15.3117 15.81 15.8678L15.5522 15.3005C16.3103 14.7257 16.91 13.8756 16.9545 12.8622C16.9669 12.5826 16.9665 12.3221 16.9404 12.0515C17.0142 11.9119 17.0843 11.7703 17.1514 11.6268C17.2313 11.4564 17.4817 11.4818 17.5262 11.6646C17.6563 12.2028 17.6739 12.6399 17.6524 13.1355Z" fill="#C86D36"/>
<path d="M7.02732 14.5276C6.77869 14.2375 6.46885 13.9323 6.14947 13.7227C5.07143 13.0153 4.15615 13.7429 3.8158 14.8346C3.51877 15.7874 3.37826 17.0264 3.73115 18.0073H3.30904H3.18811C2.66271 18.0073 2.23682 18.4332 2.23682 18.9585V19.3492C2.23682 19.5471 2.39729 19.7076 2.59521 19.7076H4.29896H4.93162H8.55428L7.02732 14.5276Z" fill="#E2E2E2"/>
<path d="M12.9722 14.5276C13.2209 14.2375 13.5307 13.9323 13.8501 13.7227C14.9281 13.0153 15.8434 13.7429 16.1837 14.8346C16.4808 15.7874 16.6213 17.0264 16.2684 18.0073H16.6905H16.8115C17.3369 18.0073 17.7628 18.4332 17.7628 18.9585V19.3492C17.7628 19.5471 17.6023 19.7076 17.4044 19.7076H15.7006H15.068H11.4453L12.9722 14.5276Z" fill="#E2E2E2"/>
<path d="M16.2783 17.978C16.2062 17.9577 16.1305 17.9471 16.0529 17.9471H15.6781C15.596 17.9471 15.5381 17.868 15.5618 17.7894C15.8472 16.8419 15.7065 15.7371 15.4251 14.8346C15.2243 14.1909 14.8234 13.6734 14.3071 13.503C15.1814 13.2339 15.8926 13.9015 16.1835 14.8346C16.4776 15.7783 16.6183 17.0019 16.2783 17.978Z" fill="#BFBFBF"/>
<path d="M17.7628 18.9584V19.3491C17.7628 19.5472 17.6021 19.7074 17.4044 19.7074H16.6456C16.8437 19.7074 17.0043 19.5472 17.0043 19.3491V18.9584C17.0043 18.5435 16.738 18.1528 16.3672 18.0073H16.8113C17.337 18.0073 17.7628 18.4331 17.7628 18.9584Z" fill="#BFBFBF"/>
<path d="M14.2364 18.0075H14.1152H13.7387C13.9607 17.1181 14.036 16.221 14.059 15.601C14.0855 14.8868 14.0179 14.1705 13.8423 13.49C13.1416 10.7744 11.2791 10.2178 11.2791 10.2178H8.72082C8.72082 10.2178 6.8584 10.7744 6.15766 13.49C5.98207 14.1705 5.91445 14.8868 5.94094 15.601C5.96395 16.221 6.03922 17.1182 6.26125 18.0075H5.88473H5.76359C5.23832 18.0075 4.8125 18.4333 4.8125 18.9586V19.7078H15.1875V18.9586C15.1875 18.4333 14.7616 18.0075 14.2364 18.0075Z" fill="#F8F6F6"/>
<path d="M14.0586 15.6005C14.036 16.2064 13.9639 17.0772 13.7533 17.9467C13.6336 17.8777 13.5022 17.8371 13.365 17.8371H13.2761C13.0698 17.8371 12.9152 17.6466 12.9595 17.4451C13.1167 16.7304 13.1891 16.1268 13.2086 15.6004C13.2351 14.8864 13.1677 14.1701 12.9922 13.4897C12.2915 10.7737 10.4287 10.2173 10.4287 10.2173H11.2788C11.2788 10.2173 13.1415 10.7737 13.8423 13.4897C14.0177 14.1702 14.0851 14.8865 14.0586 15.6005Z" fill="#EBEBEB"/>
<path d="M15.187 18.9584V19.7074H14.3369V18.9584C14.3369 18.6063 14.1361 18.2222 13.8452 18.0073H14.2359C14.7612 18.0073 15.187 18.4331 15.187 18.9584Z" fill="#EBEBEB"/>
<path d="M13.0974 11.7564C12.6521 11.9599 12.1885 12.1249 11.7135 12.2442C11.1571 12.3846 10.5854 12.4618 10.0137 12.4633C9.48693 12.4645 8.88994 12.3849 8.37639 12.261C7.99971 12.1701 7.63006 12.0515 7.26936 11.9096C7.24088 11.8983 7.07518 11.8379 6.89697 11.7658C7.35475 11.0635 7.87611 10.6611 8.24381 10.4438C9.40271 10.6797 10.5975 10.6797 11.7564 10.4438C12.1226 10.6603 12.6408 11.0599 13.0974 11.7564Z" fill="#82AEE3"/>
<path d="M13.0973 11.7564C12.8743 11.8581 12.6465 11.9506 12.4153 12.0321C11.9883 11.2787 11.4771 10.8209 11.0806 10.5538C11.3067 10.5261 11.5321 10.4895 11.7563 10.4438C11.7677 10.4505 11.779 10.4571 11.7903 10.4641C11.8491 10.4996 11.9115 10.5402 11.9771 10.5858C12.0798 10.6574 12.179 10.734 12.2743 10.8151C12.4881 10.997 12.6827 11.2029 12.8576 11.4234C12.9024 11.4799 12.9469 11.5388 12.9905 11.6004C13.0175 11.6384 13.0432 11.6753 13.0689 11.7139C13.0782 11.7279 13.0876 11.742 13.0973 11.7564Z" fill="#528FD8"/>
<path d="M6.89223 0.574678C6.69727 0.433545 6.44907 0.3471 6.13653 0.339717C5.2536 0.318857 4.30262 1.20538 3.84418 1.89108C2.80645 3.44335 2.05957 5.26562 2.15231 7.13054C2.17321 7.55069 2.2395 7.97808 2.43731 8.34933C2.63512 8.72058 2.98235 9.0303 3.39739 9.0989C3.63536 9.13823 3.88075 9.09749 4.10989 9.02218C4.72391 8.8203 5.23653 8.37589 5.61981 7.85542C6.62817 6.4862 7.22024 4.56253 7.47844 2.91874C7.60149 2.13519 7.54578 1.04776 6.89223 0.574678Z" fill="#AC5E2E"/>
<path d="M13.1078 0.574678C13.3028 0.433545 13.551 0.3471 13.8635 0.339717C14.7465 0.318857 15.6974 1.20538 16.1559 1.89108C17.1936 3.44335 17.9405 5.26562 17.8477 7.13054C17.8268 7.55069 17.7606 7.97808 17.5627 8.34933C17.3649 8.72058 17.0177 9.0303 16.6027 9.0989C16.3647 9.13823 16.1193 9.09749 15.8902 9.02218C15.2761 8.8203 14.7635 8.37589 14.3802 7.85542C13.3719 6.4862 12.7798 4.56253 12.5216 2.91874C12.3986 2.13519 12.4543 1.04776 13.1078 0.574678Z" fill="#AC5E2E"/>
<path d="M17.8476 7.13049C17.8265 7.55084 17.7602 7.97823 17.5625 8.34944C17.3645 8.72065 17.0174 9.03026 16.6025 9.09889C16.3837 9.13514 16.1587 9.10397 15.9458 9.03963C16.2644 8.91717 16.5276 8.65397 16.6898 8.34944C16.8875 7.97823 16.9538 7.55084 16.9749 7.13049C17.0677 5.2658 16.3205 3.44362 15.2829 1.89127C14.9031 1.32354 14.1868 0.618499 13.4502 0.404437C13.5734 0.365843 13.7107 0.343616 13.8632 0.33971C14.746 0.319046 15.697 1.20537 16.1556 1.89127C17.1933 3.44362 17.94 5.2658 17.8476 7.13049Z" fill="#9E5528"/>
<path d="M13.3278 1.88281C12.6259 1.00832 11.1688 0.252847 9.99976 0.294097C8.8307 0.252808 7.37359 1.00832 6.67175 1.88281C5.33972 3.54238 4.49566 6.2116 5.23343 8.28121C5.92679 10.2261 7.99898 11.2898 9.99976 11.2287C12.0005 11.2898 14.0727 10.2261 14.7661 8.28121C15.5039 6.2116 14.6598 3.54238 13.3278 1.88281Z" fill="#F8F6F6"/>
<path d="M14.766 8.28126C14.0727 10.2263 12.0005 11.2901 9.99975 11.2288C9.85818 11.2331 9.71627 11.232 9.57471 11.2245C11.4367 11.1349 13.2717 10.0886 13.9159 8.28126C14.6537 6.21146 13.8099 3.54232 12.4778 1.88275C11.859 1.11185 10.6529 0.433331 9.57471 0.312081C9.71939 0.295714 9.86131 0.289074 9.99975 0.294152C11.1688 0.252824 12.626 1.00853 13.3279 1.88278C14.6599 3.54232 15.5038 6.21146 14.766 8.28126Z" fill="#EBEBEB"/>
<path d="M8.58279 5.89363C7.79888 6.96434 6.37361 7.81 5.09459 7.81C4.62396 5.82004 5.43877 3.41891 6.67166 1.88273C7.29068 1.11191 8.49638 0.433125 9.57396 0.311523C9.5781 0.387422 9.5831 0.46332 9.58599 0.539258C9.6708 2.76813 9.73146 4.32516 8.58279 5.89363Z" fill="#DC8758"/>
<path d="M8.58297 5.89355C7.79918 6.96434 6.37395 7.81012 5.09496 7.81012C5.05988 7.66234 5.03219 7.51219 5.01074 7.36012C6.13105 7.16555 7.27668 6.41258 7.95012 5.49309C9.04742 3.99492 9.04117 2.50691 8.96434 0.433984C9.16906 0.375898 9.37379 0.334141 9.57422 0.311523C9.57852 0.387188 9.58359 0.463203 9.58629 0.539258C9.67129 2.76816 9.73172 4.32519 8.58297 5.89355Z" fill="#C86D36"/>
<path d="M13.1159 10.3546C13.1371 10.3859 12.2911 10.8003 12.2131 10.832C11.8946 10.9615 11.5633 11.0598 11.2261 11.1265C10.2983 11.31 9.30745 11.286 8.3978 11.0384C8.26686 11.0028 6.82815 10.4357 6.88339 10.3546C7.06456 10.0885 7.22202 9.80015 7.36823 9.52054C7.65315 8.97667 7.93389 8.4046 8.36917 7.96257C8.57776 7.75058 8.82245 7.57468 9.10249 7.47093C9.7971 7.21273 10.766 7.28038 11.3663 7.72991C11.9587 8.17304 12.2966 8.88155 12.6311 9.52054C12.7773 9.80019 12.9348 10.0885 13.1159 10.3546Z" fill="#DC8758"/>
<path d="M13.1161 10.3549C12.9594 10.4598 12.796 10.5557 12.6271 10.6423C12.6076 10.6524 12.5881 10.6621 12.5683 10.6719C12.4751 10.7176 12.3839 10.7626 12.2879 10.801C12.2064 10.8335 12.1265 10.8666 12.0446 10.8973C11.8446 10.9723 11.6395 11.0314 11.4328 11.0818C11.3438 11.1034 11.2542 11.1219 11.1645 11.1383C11.0651 11.1565 10.9662 11.1722 10.8662 11.1855C10.7228 11.2045 10.5824 11.2163 10.4376 11.2241C10.2918 11.2319 10.1455 11.233 9.99971 11.2288C9.90619 11.2315 9.80951 11.2313 9.71779 11.2299C9.69166 11.2295 9.66592 11.2288 9.64021 11.2276C9.61838 11.2268 9.59654 11.2256 9.57471 11.2245C10.7785 11.1664 11.9713 10.7086 12.8381 9.90332C12.9251 10.057 13.0171 10.2095 13.1161 10.3549Z" fill="#C86D36"/>
<path d="M9.99998 7.80977C10.4695 7.80977 10.8501 7.51875 10.8501 7.15977C10.8501 6.80078 10.4695 6.50977 9.99998 6.50977C9.5305 6.50977 9.1499 6.80078 9.1499 7.15977C9.1499 7.51875 9.5305 7.80977 9.99998 7.80977Z" fill="#5A5A5A"/>
<path d="M10.8499 7.16004C10.8499 7.51879 10.4693 7.81008 9.99984 7.81008C9.66449 7.81008 9.37438 7.66152 9.23633 7.44586C9.28977 7.45406 9.34512 7.45832 9.40168 7.45832C9.87117 7.45832 10.2518 7.16742 10.2518 6.80828C10.2518 6.70574 10.2205 6.60902 10.1652 6.52246C10.5555 6.58137 10.8499 6.84418 10.8499 7.16004Z" fill="#444444"/>
<path d="M10.9579 8.6333C10.7963 8.6333 10.6654 8.76424 10.6654 8.92576V9.15131C10.6654 9.25182 10.5837 9.33357 10.4831 9.33357C10.3826 9.33357 10.3008 9.25182 10.3008 9.15131C10.3008 9.15131 10.3008 8.9258 10.3008 8.92576C10.3008 8.67291 9.97209 8.5435 9.79174 8.71209C9.73291 8.76709 9.69896 8.84525 9.69896 8.9258V9.15135C9.69896 9.25186 9.61721 9.33361 9.5167 9.33361C9.41619 9.33361 9.33443 9.25186 9.33443 9.15135V8.9258C9.33443 8.76428 9.2035 8.63334 9.04197 8.63334C8.88045 8.63334 8.74951 8.76428 8.74951 8.9258V9.15135C8.74951 9.57436 9.09365 9.9185 9.5167 9.9185C9.69975 9.9185 9.86787 9.85385 9.9999 9.74647C10.1319 9.85385 10.3001 9.9185 10.4831 9.9185C10.9062 9.9185 11.2503 9.57436 11.2503 9.15135V8.9258C11.2503 8.76424 11.1194 8.6333 10.9579 8.6333Z" fill="black"/>
<path d="M8.08004 4.99578V4.4575C8.08004 4.29598 7.9491 4.16504 7.78758 4.16504C7.62605 4.16504 7.49512 4.29598 7.49512 4.4575V4.99578C7.49512 5.1573 7.62605 5.28824 7.78758 5.28824C7.9491 5.28824 8.08004 5.1573 8.08004 4.99578Z" fill="black"/>
<path d="M12.2119 4.16504C12.0504 4.16504 11.9194 4.29598 11.9194 4.4575V4.99578C11.9194 5.1573 12.0504 5.28824 12.2119 5.28824C12.3734 5.28824 12.5044 5.1573 12.5044 4.99578V4.4575C12.5043 4.29598 12.3734 4.16504 12.2119 4.16504Z" fill="black"/>
<path d="M14.8702 8.78939C15.1606 9.0201 15.4729 9.19287 15.7988 9.29998C16.0144 9.37088 16.22 9.40646 16.413 9.40646C16.4944 9.40646 16.5736 9.40014 16.6503 9.38744C17.1245 9.30908 17.5621 8.9724 17.8208 8.48685C18.0106 8.13053 18.1119 7.7042 18.1397 7.1451C18.2249 5.43256 17.6229 3.55955 16.3989 1.72857C16.3091 1.59432 16.1274 1.55826 15.9932 1.64799C15.859 1.73775 15.8229 1.91936 15.9126 2.05365C17.0663 3.77939 17.6344 5.52994 17.5555 7.11603C17.5321 7.58607 17.4524 7.93424 17.3046 8.21182C17.1309 8.53771 16.8506 8.7615 16.5549 8.81037C16.3903 8.83756 16.1974 8.81533 15.9814 8.74436C15.632 8.62947 15.3366 8.43158 15.096 8.21541C15.4075 7.2265 15.4122 6.06986 15.1068 4.85678C14.8171 3.70603 14.2664 2.58482 13.5559 1.69967C13.3973 1.50201 13.2079 1.31443 12.9975 1.14068C13.0708 1.00857 13.1633 0.895527 13.2792 0.811621C13.436 0.698105 13.6349 0.637675 13.8703 0.632128C14.3131 0.622089 14.761 0.899863 15.0591 1.13514C15.1859 1.23514 15.3698 1.2135 15.4699 1.0867C15.5699 0.959902 15.5482 0.775996 15.4214 0.675957C14.8856 0.253222 14.3442 0.0357222 13.8565 0.0474019C13.5005 0.0558003 13.1909 0.153535 12.9363 0.337832C12.7616 0.464238 12.6258 0.620371 12.5201 0.793066C11.7381 0.291425 10.7908 -0.0236138 9.99986 0.00138624C9.20932 -0.0236138 8.26135 0.291699 7.479 0.793613C7.3669 0.609628 7.22838 0.457128 7.0635 0.337792C6.80885 0.153496 6.49924 0.0558003 6.14322 0.0473628C5.18354 0.0244331 4.15279 0.902949 3.60084 1.72857C2.37682 3.55951 1.77482 5.43252 1.85998 7.1451C1.88779 7.70432 1.98916 8.13068 2.17897 8.48689C2.43768 8.9724 2.87522 9.30908 3.34943 9.38748C3.42615 9.40014 3.50529 9.4065 3.5867 9.4065C3.77971 9.4065 3.98541 9.37092 4.20096 9.30006C4.52674 9.19295 4.83924 9.02041 5.12967 8.78982C5.5151 9.59607 6.1467 10.2716 6.97842 10.7595C7.0565 10.8053 7.13615 10.8483 7.21646 10.8899C6.72818 11.3967 6.22658 12.1543 5.91381 13.2708C5.45408 13.0892 5.06971 13.1429 4.80701 13.237C4.23522 13.4418 3.77225 13.9924 3.53682 14.7476C3.11498 16.1007 3.20791 17.125 3.34303 17.7149H3.18834C2.50252 17.7149 1.94459 18.2728 1.94459 18.9587V19.3493C1.94459 19.7082 2.23654 20.0001 2.59545 20.0001H17.4043C17.7632 20.0001 18.0552 19.7082 18.0552 19.3493V18.9587C18.0552 18.2728 17.4972 17.7149 16.8114 17.7149H16.6567C16.7615 17.2572 16.8408 16.5378 16.6741 15.6065C17.4427 14.9345 17.9047 14.0579 17.9445 13.1483C17.9637 12.7092 17.9608 12.2172 17.8101 11.5958C17.7603 11.3901 17.5919 11.2435 17.3812 11.2222C17.1706 11.2012 16.9765 11.3111 16.8867 11.5026C16.6728 11.9588 16.4563 12.3396 16.2248 12.6669C16.0601 12.8999 15.8251 13.1761 15.5226 13.4016C15.4176 13.3338 15.3074 13.2781 15.1927 13.237C14.9301 13.1429 14.5457 13.0892 14.0859 13.2708C13.7732 12.1546 13.2718 11.397 12.7837 10.8902C12.8638 10.8488 12.943 10.8053 13.0213 10.7594C13.8531 10.2715 14.4848 9.5958 14.8702 8.78939ZM4.90361 8.21521C4.66311 8.43146 4.36787 8.62943 4.0183 8.74436C3.80233 8.81537 3.6094 8.83748 3.44486 8.81037C3.14908 8.76146 2.86885 8.53771 2.69522 8.21182C2.54736 7.93435 2.4676 7.58615 2.4442 7.11603C2.36533 5.5299 2.93342 3.77936 4.08713 2.05365C4.55092 1.3599 5.41197 0.631816 6.10627 0.631816C6.11397 0.631816 6.12174 0.631894 6.12943 0.632089C6.36483 0.637636 6.56369 0.698027 6.72057 0.811582C6.83647 0.895488 6.92936 1.00818 7.00272 1.14033C6.79205 1.3142 6.60252 1.50189 6.44377 1.69967C5.73334 2.58478 5.18256 3.70603 4.89291 4.85678C4.58756 6.06978 4.59217 7.22635 4.90361 8.21521ZM5.32869 7.49619C5.30733 7.376 5.2908 7.25338 5.27838 7.12885C5.27826 7.12893 5.27811 7.129 5.27795 7.12912C5.21174 6.46756 5.27186 5.74752 5.4601 4.99951C5.72967 3.92861 6.241 2.8867 6.8999 2.06576C7.43791 1.39549 8.41065 0.842089 9.29787 0.654004C9.37994 2.81549 9.4185 4.25783 8.34705 5.7208C7.63756 6.6899 6.40322 7.41162 5.33072 7.50678C5.33006 7.50322 5.32932 7.49975 5.32869 7.49619ZM16.7024 13.0046C16.9107 12.7101 17.1066 12.3783 17.2976 11.9961C17.3711 12.3982 17.3767 12.7446 17.3602 13.1227C17.3315 13.7771 17.03 14.4156 16.5212 14.9449C16.5029 14.8798 16.4837 14.8142 16.4629 14.7476C16.3472 14.3764 16.1763 14.0549 15.9647 13.7994C16.2807 13.5455 16.5262 13.2538 16.7024 13.0046ZM14.222 13.8484C14.4932 13.7214 14.7526 13.7006 14.9954 13.7876C15.387 13.9278 15.7269 14.3518 15.9045 14.9216C16.2426 16.0062 16.2758 17.1227 15.9931 17.9083C15.9609 17.9979 15.9743 18.0976 16.029 18.1754C16.0838 18.2534 16.1731 18.2997 16.2683 18.2997H16.8114C17.1747 18.2997 17.4702 18.5953 17.4702 18.9585V19.3492C17.4702 19.3855 17.4406 19.4151 17.4043 19.4151H15.4798V18.9583C15.4798 18.2726 14.9219 17.7148 14.2362 17.7148H14.1053C14.2716 16.9169 14.3313 16.1465 14.3512 15.6115C14.3737 15.0032 14.3301 14.4121 14.222 13.8484ZM12.9802 12.1265C13.2033 12.509 13.4091 12.9821 13.559 13.5629C13.7231 14.1987 13.7929 14.8807 13.7666 15.5899C13.7448 16.178 13.673 17.0624 13.4549 17.9364C13.433 18.0238 13.4527 18.1163 13.5081 18.1873C13.5635 18.2583 13.6486 18.2997 13.7386 18.2997H14.2363C14.5994 18.2997 14.8949 18.5952 14.8949 18.9583V19.4151H14.4428H11.9926V16.5749C11.9926 16.4134 11.8617 16.2825 11.7001 16.2825C11.5386 16.2825 11.4077 16.4134 11.4077 16.5749V19.4151H8.59201V16.5749C8.59201 16.4134 8.46107 16.2825 8.29955 16.2825C8.13803 16.2825 8.00709 16.4134 8.00709 16.5749V19.4151H5.39213H5.10479V18.9583C5.10479 18.5952 5.40025 18.2997 5.76346 18.2997H6.26111C6.35115 18.2997 6.43615 18.2582 6.49158 18.1873C6.54701 18.1163 6.56666 18.0238 6.54486 17.9364C6.42494 17.4562 6.3369 16.9238 6.28311 16.3542C6.26791 16.1934 6.1249 16.0754 5.96447 16.0905C5.80365 16.1057 5.68561 16.2484 5.7008 16.4092C5.74416 16.8687 5.80904 17.3062 5.89432 17.7148H5.76346C5.07775 17.7148 4.5199 18.2727 4.5199 18.9584V19.4151H2.59541C2.55904 19.4151 2.52947 19.3856 2.52947 19.3492V18.9586C2.52947 18.5953 2.82502 18.2997 3.1883 18.2997H3.73135C3.82658 18.2997 3.91584 18.2534 3.97061 18.1755C4.02537 18.0976 4.03877 17.9979 4.00654 17.9083C3.72393 17.1228 3.75709 16.0063 4.09522 14.9217C4.27287 14.3518 4.61268 13.9279 5.00424 13.7876C5.24721 13.7006 5.5067 13.7215 5.77803 13.8487C5.70686 14.2204 5.66307 14.6054 5.64842 14.9986C5.6424 15.16 5.76838 15.2957 5.92979 15.3017C6.09217 15.3086 6.2269 15.1817 6.23291 15.0203C6.25174 14.5146 6.32162 14.0243 6.44068 13.5629C6.59041 12.9827 6.796 12.5099 7.019 12.1277C7.4417 12.2887 7.86674 12.4388 8.30748 12.5452C8.86225 12.6792 9.47912 12.7558 10.0023 12.7558H10.0143C10.5956 12.7542 11.1912 12.6774 11.7845 12.5278C12.1866 12.4267 12.5876 12.2917 12.9802 12.1265ZM9.99986 8.10236C10.3426 8.10236 10.6503 7.97709 10.8599 7.77932C10.9819 7.82986 11.0941 7.89146 11.1913 7.96432C11.4484 8.1567 11.6528 8.40928 11.8277 8.67642C12.1642 9.19029 12.391 9.73767 12.71 10.2635C12.7318 10.2994 11.8259 10.6598 11.7416 10.6859C11.1869 10.8576 10.5867 10.934 10.0088 10.9417C9.53822 10.948 9.07033 10.9033 8.60713 10.7902C8.14631 10.6776 7.69994 10.502 7.28963 10.2635C7.41354 10.0597 7.5244 9.85353 7.62744 9.65643C7.89865 9.13768 8.1617 8.59045 8.57775 8.16787C8.75248 7.99033 8.93932 7.8583 9.13412 7.77389C9.34389 7.97482 9.65404 8.10236 9.99986 8.10236ZM9.44225 7.1599C9.44225 6.96943 9.70283 6.80232 9.99986 6.80232C10.2969 6.80232 10.5575 6.96943 10.5575 7.1599C10.5575 7.35037 10.2969 7.51744 9.99986 7.51744C9.70283 7.51748 9.44225 7.35037 9.44225 7.1599ZM12.6473 11.6316C12.3161 11.7655 11.9792 11.8757 11.6417 11.9605C11.0944 12.0986 10.5463 12.1693 10.0129 12.1708C10.0092 12.1708 10.0056 12.1708 10.002 12.1708C9.52334 12.1708 8.95647 12.1001 8.44471 11.9765C8.09053 11.8911 7.73104 11.777 7.37709 11.6377C7.37256 11.6359 7.36475 11.6329 7.35439 11.629C7.50451 11.4352 7.65396 11.2761 7.79213 11.1473C8.029 11.2373 8.2717 11.3121 8.51822 11.37C8.7965 11.4354 9.07963 11.4802 9.36455 11.5038C10.3254 11.5837 11.3055 11.4851 12.2066 11.1465C12.3457 11.276 12.4962 11.4362 12.6473 11.6316ZM11.5418 7.49607C11.4203 7.40502 11.2831 7.32713 11.1356 7.26213C11.14 7.22853 11.1424 7.19447 11.1424 7.15994C11.1424 6.64025 10.6298 6.21744 9.99986 6.21744C9.36986 6.21744 8.85733 6.64025 8.85733 7.15994C8.85733 7.19193 8.85932 7.22357 8.86311 7.25475C8.61346 7.36912 8.37772 7.53736 8.16096 7.75764C7.72893 8.19639 7.44772 8.73604 7.17576 9.25795C7.17576 9.25795 6.91346 9.75342 6.80287 9.93678C6.1976 9.4699 5.75463 8.87209 5.50897 8.18295C5.4969 8.14908 5.48611 8.11443 5.47486 8.08002C6.69506 7.9399 8.02471 7.15123 8.81893 6.06639C10.0176 4.42975 9.96533 2.81307 9.88057 0.585292C10.3201 0.579941 10.7392 0.637949 11.1572 0.779277C11.594 0.926972 12.011 1.14014 12.3865 1.40764C12.5895 1.55225 12.7768 1.7099 12.9476 1.89107C13.42 2.39221 13.7823 3.02744 14.0663 3.65185C14.2637 4.08572 14.4232 4.53725 14.5396 4.99951C14.8336 6.16764 14.8167 7.26838 14.4907 8.18291C14.245 8.87201 13.8021 9.46978 13.1969 9.93666C13.0863 9.75326 12.839 9.28674 12.8132 9.23705C12.4986 8.63143 12.1419 7.94498 11.5418 7.49607Z" fill="black"/>
</g>
<defs>
<clipPath id="clip0_92_3229">
<rect width="20" height="20" fill="white"/>
</clipPath>
</defs>
</svg>
