<svg width="21" height="21" viewBox="0 0 21 21" fill="none" xmlns="http://www.w3.org/2000/svg">
<g clip-path="url(#clip0_92_3282)">
<path d="M20.6643 5.33503L19.9765 4.64237C19.76 4.42605 19.4719 4.30688 19.1641 4.30688C18.8564 4.30688 18.5681 4.42605 18.3516 4.64237L10.5047 12.4896L2.64875 4.63366C2.43261 4.41734 2.14424 4.29834 1.83658 4.29834C1.52891 4.29834 1.24038 4.41734 1.02406 4.63366L0.336003 5.32206C-0.112001 5.76972 -0.112001 6.49892 0.336003 6.94658L9.68944 16.3337C9.90559 16.5498 10.1936 16.7021 10.504 16.7021H10.5076C10.8154 16.7021 11.1035 16.5496 11.3196 16.3337L20.6643 6.97202C20.8808 6.75587 20.9997 6.45914 21 6.15148C21 5.84365 20.8808 5.55101 20.6643 5.33503Z" fill="black"/>
</g>
<defs>
<clipPath id="clip0_92_3282">
<rect width="21" height="21" fill="white"/>
</clipPath>
</defs>
</svg>
