<svg width="26" height="484" viewBox="0 0 26 484" fill="none" xmlns="http://www.w3.org/2000/svg">
<g clip-path="url(#clip0_349_443)">
<path d="M25.85 476.047C21.77 471.209 17.38 468.828 12.8 468.941C5.42 469.148 0.34 475.793 0.13 476.075L0.1 476.122L0.08 476.151L0.05 476.235L0.03 476.273L0.01 476.348L0 476.405V476.537L0.01 476.593L0.03 476.668L0.05 476.706L0.08 476.791L0.1 476.819L0.13 476.866C0.34 477.148 5.42 483.793 12.8 484H13.14C17.6 484 21.87 481.609 25.85 476.894C25.95 476.772 26 476.621 26 476.471C26.0007 476.318 25.948 476.169 25.85 476.047ZM12.85 482.673C7.11 482.522 2.73 477.864 1.54 476.471C2.73 475.078 7.11 470.419 12.85 470.268C16.85 470.165 20.74 472.254 24.44 476.471C20.74 480.687 16.86 482.786 12.85 482.673Z" fill="#555A59"/>
<path d="M13 472.706C11.9391 472.706 10.9217 473.103 10.1716 473.809C9.42143 474.515 9 475.472 9 476.471C9 477.469 9.42143 478.427 10.1716 479.133C10.9217 479.839 11.9391 480.235 13 480.235C14.0609 480.235 15.0783 479.839 15.8284 479.133C16.5786 478.427 17 477.469 17 476.471C17 475.472 16.5786 474.515 15.8284 473.809C15.0783 473.103 14.0609 472.706 13 472.706ZM13 479.294C12.2044 479.294 11.4413 478.997 10.8787 478.467C10.3161 477.938 10 477.219 10 476.471C10 475.722 10.3161 475.004 10.8787 474.474C11.4413 473.945 12.2044 473.647 13 473.647C13.7956 473.647 14.5587 473.945 15.1213 474.474C15.6839 475.004 16 475.722 16 476.471C16 477.219 15.6839 477.938 15.1213 478.467C14.5587 478.997 13.7956 479.294 13 479.294Z" fill="#555A59"/>
</g>
<defs>
<clipPath id="clip0_349_443">
<rect width="26" height="16" fill="white" transform="translate(0 468)"/>
</clipPath>
</defs>
</svg>
