<svg width="101" height="665" viewBox="0 0 101 665" fill="none" xmlns="http://www.w3.org/2000/svg">
<path d="M13.44 646.67V661H12.47C12.3167 661 12.1867 660.973 12.08 660.92C11.98 660.867 11.88 660.777 11.78 660.65L3.49 649.85C3.50333 650.017 3.51333 650.18 3.52 650.34C3.52667 650.5 3.53 650.65 3.53 650.79V661H1.83V646.67H2.83C2.91667 646.67 2.99 646.677 3.05 646.69C3.11 646.697 3.16333 646.713 3.21 646.74C3.25667 646.76 3.30333 646.793 3.35 646.84C3.39667 646.88 3.44667 646.933 3.5 647L11.79 657.79C11.7767 657.617 11.7633 657.45 11.75 657.29C11.7433 657.123 11.74 656.967 11.74 656.82V646.67H13.44ZM23.1509 654.83C23.1509 654.417 23.0909 654.04 22.9709 653.7C22.8576 653.353 22.6876 653.057 22.4609 652.81C22.2409 652.557 21.9709 652.363 21.6509 652.23C21.3309 652.09 20.9676 652.02 20.5609 652.02C19.7076 652.02 19.0309 652.27 18.5309 652.77C18.0376 653.263 17.7309 653.95 17.6109 654.83H23.1509ZM24.5909 659.58C24.3709 659.847 24.1076 660.08 23.8009 660.28C23.4943 660.473 23.1643 660.633 22.8109 660.76C22.4643 660.887 22.1043 660.98 21.7309 661.04C21.3576 661.107 20.9876 661.14 20.6209 661.14C19.9209 661.14 19.2743 661.023 18.6809 660.79C18.0943 660.55 17.5843 660.203 17.1509 659.75C16.7243 659.29 16.3909 658.723 16.1509 658.05C15.9109 657.377 15.7909 656.603 15.7909 655.73C15.7909 655.023 15.8976 654.363 16.1109 653.75C16.3309 653.137 16.6443 652.607 17.0509 652.16C17.4576 651.707 17.9543 651.353 18.5409 651.1C19.1276 650.84 19.7876 650.71 20.5209 650.71C21.1276 650.71 21.6876 650.813 22.2009 651.02C22.7209 651.22 23.1676 651.513 23.5409 651.9C23.9209 652.28 24.2176 652.753 24.4309 653.32C24.6443 653.88 24.7509 654.52 24.7509 655.24C24.7509 655.52 24.7209 655.707 24.6609 655.8C24.6009 655.893 24.4876 655.94 24.3209 655.94H17.5509C17.5709 656.58 17.6576 657.137 17.8109 657.61C17.9709 658.083 18.1909 658.48 18.4709 658.8C18.7509 659.113 19.0843 659.35 19.4709 659.51C19.8576 659.663 20.2909 659.74 20.7709 659.74C21.2176 659.74 21.6009 659.69 21.9209 659.59C22.2476 659.483 22.5276 659.37 22.7609 659.25C22.9943 659.13 23.1876 659.02 23.3409 658.92C23.5009 658.813 23.6376 658.76 23.7509 658.76C23.8976 658.76 24.0109 658.817 24.0909 658.93L24.5909 659.58ZM33.7173 654.83C33.7173 654.417 33.6573 654.04 33.5373 653.7C33.424 653.353 33.254 653.057 33.0273 652.81C32.8073 652.557 32.5373 652.363 32.2173 652.23C31.8973 652.09 31.534 652.02 31.1273 652.02C30.274 652.02 29.5973 652.27 29.0973 652.77C28.604 653.263 28.2973 653.95 28.1773 654.83H33.7173ZM35.1573 659.58C34.9373 659.847 34.674 660.08 34.3673 660.28C34.0607 660.473 33.7307 660.633 33.3773 660.76C33.0307 660.887 32.6707 660.98 32.2973 661.04C31.924 661.107 31.554 661.14 31.1873 661.14C30.4873 661.14 29.8407 661.023 29.2473 660.79C28.6607 660.55 28.1507 660.203 27.7173 659.75C27.2907 659.29 26.9573 658.723 26.7173 658.05C26.4773 657.377 26.3573 656.603 26.3573 655.73C26.3573 655.023 26.464 654.363 26.6773 653.75C26.8973 653.137 27.2107 652.607 27.6173 652.16C28.024 651.707 28.5207 651.353 29.1073 651.1C29.694 650.84 30.354 650.71 31.0873 650.71C31.694 650.71 32.254 650.813 32.7673 651.02C33.2873 651.22 33.734 651.513 34.1073 651.9C34.4873 652.28 34.784 652.753 34.9973 653.32C35.2107 653.88 35.3173 654.52 35.3173 655.24C35.3173 655.52 35.2873 655.707 35.2273 655.8C35.1673 655.893 35.054 655.94 34.8873 655.94H28.1173C28.1373 656.58 28.224 657.137 28.3773 657.61C28.5373 658.083 28.7573 658.48 29.0373 658.8C29.3173 659.113 29.6507 659.35 30.0373 659.51C30.424 659.663 30.8573 659.74 31.3373 659.74C31.784 659.74 32.1673 659.69 32.4873 659.59C32.814 659.483 33.094 659.37 33.3273 659.25C33.5607 659.13 33.754 659.02 33.9073 658.92C34.0673 658.813 34.204 658.76 34.3173 658.76C34.464 658.76 34.5773 658.817 34.6573 658.93L35.1573 659.58ZM44.1038 653.28C43.7704 652.833 43.4104 652.523 43.0238 652.35C42.6371 652.17 42.2038 652.08 41.7238 652.08C40.7838 652.08 40.0604 652.417 39.5538 653.09C39.0471 653.763 38.7938 654.723 38.7938 655.97C38.7938 656.63 38.8504 657.197 38.9638 657.67C39.0771 658.137 39.2438 658.523 39.4638 658.83C39.6838 659.13 39.9538 659.35 40.2738 659.49C40.5938 659.63 40.9571 659.7 41.3638 659.7C41.9504 659.7 42.4604 659.567 42.8938 659.3C43.3338 659.033 43.7371 658.657 44.1038 658.17V653.28ZM45.8838 646.27V661H44.8238C44.5704 661 44.4104 660.877 44.3438 660.63L44.1838 659.4C43.7504 659.92 43.2571 660.34 42.7038 660.66C42.1504 660.98 41.5104 661.14 40.7838 661.14C40.2038 661.14 39.6771 661.03 39.2038 660.81C38.7304 660.583 38.3271 660.253 37.9938 659.82C37.6604 659.387 37.4038 658.847 37.2238 658.2C37.0438 657.553 36.9538 656.81 36.9538 655.97C36.9538 655.223 37.0538 654.53 37.2538 653.89C37.4538 653.243 37.7404 652.683 38.1138 652.21C38.4871 651.737 38.9438 651.367 39.4838 651.1C40.0304 650.827 40.6438 650.69 41.3238 650.69C41.9438 650.69 42.4738 650.797 42.9138 651.01C43.3604 651.217 43.7571 651.507 44.1038 651.88V646.27H45.8838ZM55.6023 652.22C56.0357 651.76 56.5157 651.393 57.0423 651.12C57.569 650.847 58.1757 650.71 58.8623 650.71C59.4157 650.71 59.9023 650.803 60.3223 650.99C60.749 651.17 61.1023 651.43 61.3823 651.77C61.669 652.103 61.8857 652.507 62.0323 652.98C62.179 653.453 62.2523 653.977 62.2523 654.55V661H60.4623V654.55C60.4623 653.783 60.2857 653.19 59.9323 652.77C59.5857 652.343 59.0557 652.13 58.3423 652.13C57.8157 652.13 57.3223 652.257 56.8623 652.51C56.409 652.763 55.989 653.107 55.6023 653.54V661H53.8123V646.27H55.6023V652.22ZM71.7447 654.83C71.7447 654.417 71.6847 654.04 71.5647 653.7C71.4514 653.353 71.2814 653.057 71.0547 652.81C70.8347 652.557 70.5647 652.363 70.2447 652.23C69.9247 652.09 69.5614 652.02 69.1547 652.02C68.3014 652.02 67.6247 652.27 67.1247 652.77C66.6314 653.263 66.3247 653.95 66.2047 654.83H71.7447ZM73.1847 659.58C72.9647 659.847 72.7014 660.08 72.3947 660.28C72.088 660.473 71.758 660.633 71.4047 660.76C71.058 660.887 70.698 660.98 70.3247 661.04C69.9514 661.107 69.5814 661.14 69.2147 661.14C68.5147 661.14 67.868 661.023 67.2747 660.79C66.688 660.55 66.178 660.203 65.7447 659.75C65.318 659.29 64.9847 658.723 64.7447 658.05C64.5047 657.377 64.3847 656.603 64.3847 655.73C64.3847 655.023 64.4914 654.363 64.7047 653.75C64.9247 653.137 65.238 652.607 65.6447 652.16C66.0514 651.707 66.548 651.353 67.1347 651.1C67.7214 650.84 68.3814 650.71 69.1147 650.71C69.7214 650.71 70.2814 650.813 70.7947 651.02C71.3147 651.22 71.7614 651.513 72.1347 651.9C72.5147 652.28 72.8114 652.753 73.0247 653.32C73.238 653.88 73.3447 654.52 73.3447 655.24C73.3447 655.52 73.3147 655.707 73.2547 655.8C73.1947 655.893 73.0814 655.94 72.9147 655.94H66.1447C66.1647 656.58 66.2514 657.137 66.4047 657.61C66.5647 658.083 66.7847 658.48 67.0647 658.8C67.3447 659.113 67.678 659.35 68.0647 659.51C68.4514 659.663 68.8847 659.74 69.3647 659.74C69.8114 659.74 70.1947 659.69 70.5147 659.59C70.8414 659.483 71.1214 659.37 71.3547 659.25C71.588 659.13 71.7814 659.02 71.9347 658.92C72.0947 658.813 72.2314 658.76 72.3447 658.76C72.4914 658.76 72.6047 658.817 72.6847 658.93L73.1847 659.58ZM77.3711 646.27V661H75.5911V646.27H77.3711ZM82.0477 658.56C82.3743 659 82.731 659.31 83.1177 659.49C83.5043 659.67 83.9377 659.76 84.4177 659.76C85.3643 659.76 86.091 659.423 86.5977 658.75C87.1043 658.077 87.3577 657.117 87.3577 655.87C87.3577 655.21 87.2977 654.643 87.1777 654.17C87.0643 653.697 86.8977 653.31 86.6777 653.01C86.4577 652.703 86.1877 652.48 85.8677 652.34C85.5477 652.2 85.1843 652.13 84.7777 652.13C84.1977 652.13 83.6877 652.263 83.2477 652.53C82.8143 652.797 82.4143 653.173 82.0477 653.66V658.56ZM81.9577 652.44C82.3843 651.913 82.8777 651.49 83.4377 651.17C83.9977 650.85 84.6377 650.69 85.3577 650.69C85.9443 650.69 86.4743 650.803 86.9477 651.03C87.421 651.25 87.8243 651.58 88.1577 652.02C88.491 652.453 88.7477 652.993 88.9277 653.64C89.1077 654.287 89.1977 655.03 89.1977 655.87C89.1977 656.617 89.0977 657.313 88.8977 657.96C88.6977 658.6 88.4077 659.157 88.0277 659.63C87.6543 660.097 87.1943 660.467 86.6477 660.74C86.1077 661.007 85.4977 661.14 84.8177 661.14C84.1977 661.14 83.6643 661.037 83.2177 660.83C82.7777 660.617 82.3877 660.323 82.0477 659.95V664.43H80.2577V650.87H81.3277C81.581 650.87 81.7377 650.993 81.7977 651.24L81.9577 652.44ZM90.2631 647.95C90.4698 647.757 90.6965 647.573 90.9431 647.4C91.1965 647.227 91.4698 647.073 91.7631 646.94C92.0631 646.807 92.3831 646.703 92.7231 646.63C93.0698 646.55 93.4431 646.51 93.8431 646.51C94.3698 646.51 94.8565 646.587 95.3031 646.74C95.7565 646.893 96.1465 647.11 96.4731 647.39C96.7998 647.67 97.0565 648.01 97.2431 648.41C97.4298 648.81 97.5231 649.26 97.5231 649.76C97.5231 650.267 97.4465 650.703 97.2931 651.07C97.1465 651.437 96.9565 651.76 96.7231 652.04C96.4965 652.313 96.2465 652.553 95.9731 652.76C95.7065 652.96 95.4531 653.15 95.2131 653.33C94.9731 653.51 94.7665 653.69 94.5931 653.87C94.4265 654.05 94.3298 654.25 94.3031 654.47L94.1231 656H92.9031L92.7831 654.34C92.7565 654.04 92.8131 653.78 92.9531 653.56C93.0931 653.333 93.2765 653.123 93.5031 652.93C93.7298 652.73 93.9798 652.537 94.2531 652.35C94.5265 652.157 94.7798 651.943 95.0131 651.71C95.2531 651.477 95.4531 651.213 95.6131 650.92C95.7731 650.62 95.8531 650.263 95.8531 649.85C95.8531 649.563 95.7965 649.303 95.6831 649.07C95.5698 648.837 95.4165 648.64 95.2231 648.48C95.0298 648.313 94.7998 648.187 94.5331 648.1C94.2731 648.013 93.9931 647.97 93.6931 647.97C93.2865 647.97 92.9365 648.02 92.6431 648.12C92.3565 648.22 92.1131 648.33 91.9131 648.45C91.7131 648.57 91.5498 648.68 91.4231 648.78C91.3031 648.88 91.2031 648.93 91.1231 648.93C90.9565 648.93 90.8265 648.853 90.7331 648.7L90.2631 647.95ZM92.2131 659.9C92.2131 659.727 92.2431 659.563 92.3031 659.41C92.3698 659.257 92.4565 659.123 92.5631 659.01C92.6765 658.897 92.8098 658.807 92.9631 658.74C93.1165 658.673 93.2798 658.64 93.4531 658.64C93.6265 658.64 93.7898 658.673 93.9431 658.74C94.0965 658.807 94.2298 658.897 94.3431 659.01C94.4565 659.123 94.5465 659.257 94.6131 659.41C94.6798 659.563 94.7131 659.727 94.7131 659.9C94.7131 660.08 94.6798 660.247 94.6131 660.4C94.5465 660.547 94.4565 660.677 94.3431 660.79C94.2298 660.903 94.0965 660.99 93.9431 661.05C93.7898 661.117 93.6265 661.15 93.4531 661.15C93.2798 661.15 93.1165 661.117 92.9631 661.05C92.8098 660.99 92.6765 660.903 92.5631 660.79C92.4565 660.677 92.3698 660.547 92.3031 660.4C92.2431 660.247 92.2131 660.08 92.2131 659.9Z" fill="white"/>
</svg>
