<svg width="361" height="709" viewBox="0 0 361 709" fill="none" xmlns="http://www.w3.org/2000/svg">
<path d="M52.9519 690.928C53.0266 690.928 53.0919 690.958 53.1479 691.019L53.6869 691.6C53.2762 692.076 52.7769 692.447 52.1889 692.713C51.6056 692.979 50.8986 693.112 50.0679 693.112C49.3492 693.112 48.6959 692.988 48.1079 692.741C47.5199 692.489 47.0182 692.139 46.6029 691.691C46.1876 691.238 45.8656 690.697 45.6369 690.067C45.4082 689.437 45.2939 688.744 45.2939 687.988C45.2939 687.232 45.4129 686.539 45.6509 685.909C45.8889 685.279 46.2226 684.738 46.6519 684.285C47.0859 683.832 47.6039 683.482 48.2059 683.235C48.8079 682.983 49.4729 682.857 50.2009 682.857C50.9149 682.857 51.5449 682.971 52.0909 683.2C52.6369 683.429 53.1176 683.739 53.5329 684.131L53.0849 684.754C53.0569 684.801 53.0196 684.84 52.9729 684.873C52.9309 684.901 52.8726 684.915 52.7979 684.915C52.7139 684.915 52.6112 684.871 52.4899 684.782C52.3686 684.689 52.2099 684.586 52.0139 684.474C51.8179 684.362 51.5729 684.262 51.2789 684.173C50.9849 684.08 50.6232 684.033 50.1939 684.033C49.6759 684.033 49.2022 684.124 48.7729 684.306C48.3436 684.483 47.9726 684.742 47.6599 685.083C47.3519 685.424 47.1116 685.839 46.9389 686.329C46.7662 686.819 46.6799 687.372 46.6799 687.988C46.6799 688.613 46.7686 689.171 46.9459 689.661C47.1279 690.151 47.3729 690.566 47.6809 690.907C47.9936 691.243 48.3599 691.5 48.7799 691.677C49.2046 691.854 49.6619 691.943 50.1519 691.943C50.4506 691.943 50.7189 691.927 50.9569 691.894C51.1996 691.857 51.4212 691.801 51.6219 691.726C51.8272 691.651 52.0162 691.558 52.1889 691.446C52.3662 691.329 52.5412 691.192 52.7139 691.033C52.7932 690.963 52.8726 690.928 52.9519 690.928ZM57.8198 685.797C58.3378 685.797 58.8044 685.883 59.2198 686.056C59.6351 686.229 59.9898 686.474 60.2838 686.791C60.5778 687.108 60.8018 687.493 60.9558 687.946C61.1144 688.394 61.1938 688.896 61.1938 689.451C61.1938 690.011 61.1144 690.515 60.9558 690.963C60.8018 691.411 60.5778 691.794 60.2838 692.111C59.9898 692.428 59.6351 692.673 59.2198 692.846C58.8044 693.014 58.3378 693.098 57.8198 693.098C57.2971 693.098 56.8258 693.014 56.4058 692.846C55.9904 692.673 55.6358 692.428 55.3418 692.111C55.0478 691.794 54.8214 691.411 54.6628 690.963C54.5088 690.515 54.4318 690.011 54.4318 689.451C54.4318 688.896 54.5088 688.394 54.6628 687.946C54.8214 687.493 55.0478 687.108 55.3418 686.791C55.6358 686.474 55.9904 686.229 56.4058 686.056C56.8258 685.883 57.2971 685.797 57.8198 685.797ZM57.8198 692.125C58.5198 692.125 59.0424 691.892 59.3878 691.425C59.7331 690.954 59.9058 690.298 59.9058 689.458C59.9058 688.613 59.7331 687.955 59.3878 687.484C59.0424 687.013 58.5198 686.777 57.8198 686.777C57.4651 686.777 57.1548 686.838 56.8888 686.959C56.6274 687.08 56.4081 687.255 56.2308 687.484C56.0581 687.713 55.9274 687.995 55.8388 688.331C55.7548 688.662 55.7128 689.038 55.7128 689.458C55.7128 690.298 55.8854 690.954 56.2308 691.425C56.5808 691.892 57.1104 692.125 57.8198 692.125ZM63.9501 686.938C64.1041 686.765 64.2674 686.609 64.4401 686.469C64.6128 686.329 64.7948 686.21 64.9861 686.112C65.1821 686.009 65.3874 685.932 65.6021 685.881C65.8214 685.825 66.0571 685.797 66.3091 685.797C66.6964 685.797 67.0371 685.862 67.3311 685.993C67.6298 686.119 67.8771 686.301 68.0731 686.539C68.2738 686.772 68.4254 687.055 68.5281 687.386C68.6308 687.717 68.6821 688.084 68.6821 688.485V693H67.4291V688.485C67.4291 687.948 67.3054 687.533 67.0581 687.239C66.8154 686.94 66.4444 686.791 65.9451 686.791C65.5764 686.791 65.2311 686.88 64.9091 687.057C64.5918 687.234 64.2978 687.475 64.0271 687.778V693H62.7741V685.909H63.5231C63.7004 685.909 63.8101 685.995 63.8521 686.168L63.9501 686.938ZM72.662 693.112C72.102 693.112 71.6704 692.956 71.367 692.643C71.0684 692.33 70.919 691.88 70.919 691.292V686.952H70.065C69.9904 686.952 69.9274 686.931 69.876 686.889C69.8247 686.842 69.799 686.772 69.799 686.679V686.182L70.961 686.035L71.248 683.844C71.262 683.774 71.2924 683.718 71.339 683.676C71.3904 683.629 71.4557 683.606 71.535 683.606H72.165V686.049H74.216V686.952H72.165V691.208C72.165 691.507 72.2374 691.728 72.382 691.873C72.5267 692.018 72.7134 692.09 72.942 692.09C73.0727 692.09 73.1847 692.074 73.278 692.041C73.376 692.004 73.46 691.964 73.53 691.922C73.6 691.88 73.6584 691.843 73.705 691.81C73.7564 691.773 73.8007 691.754 73.838 691.754C73.9034 691.754 73.9617 691.794 74.013 691.873L74.377 692.468C74.1624 692.669 73.9034 692.827 73.6 692.944C73.2967 693.056 72.984 693.112 72.662 693.112ZM79.3456 689.808C78.7716 689.827 78.2816 689.873 77.8756 689.948C77.4743 690.018 77.1453 690.111 76.8886 690.228C76.6366 690.345 76.4523 690.482 76.3356 690.641C76.2236 690.8 76.1676 690.977 76.1676 691.173C76.1676 691.36 76.198 691.521 76.2586 691.656C76.3193 691.791 76.401 691.903 76.5036 691.992C76.611 692.076 76.7346 692.139 76.8746 692.181C77.0193 692.218 77.1733 692.237 77.3366 692.237C77.556 692.237 77.7566 692.216 77.9386 692.174C78.1206 692.127 78.291 692.062 78.4496 691.978C78.613 691.894 78.767 691.794 78.9116 691.677C79.061 691.56 79.2056 691.427 79.3456 691.278V689.808ZM75.3206 686.91C75.7126 686.532 76.135 686.25 76.5876 686.063C77.0403 685.876 77.542 685.783 78.0926 685.783C78.4893 685.783 78.8416 685.848 79.1496 685.979C79.4576 686.11 79.7166 686.292 79.9266 686.525C80.1366 686.758 80.2953 687.041 80.4026 687.372C80.51 687.703 80.5636 688.067 80.5636 688.464V693H80.0106C79.8893 693 79.796 692.981 79.7306 692.944C79.6653 692.902 79.614 692.823 79.5766 692.706L79.4366 692.034C79.25 692.207 79.068 692.361 78.8906 692.496C78.7133 692.627 78.5266 692.739 78.3306 692.832C78.1346 692.921 77.9246 692.988 77.7006 693.035C77.4813 693.086 77.2363 693.112 76.9656 693.112C76.6903 693.112 76.4313 693.075 76.1886 693C75.946 692.921 75.7336 692.804 75.5516 692.65C75.3743 692.496 75.232 692.302 75.1246 692.069C75.022 691.831 74.9706 691.551 74.9706 691.229C74.9706 690.949 75.0476 690.681 75.2016 690.424C75.3556 690.163 75.6053 689.932 75.9506 689.731C76.296 689.53 76.7463 689.367 77.3016 689.241C77.857 689.11 78.5383 689.036 79.3456 689.017V688.464C79.3456 687.913 79.2266 687.498 78.9886 687.218C78.7506 686.933 78.403 686.791 77.9456 686.791C77.6376 686.791 77.3786 686.831 77.1686 686.91C76.9633 686.985 76.7836 687.071 76.6296 687.169C76.4803 687.262 76.3496 687.349 76.2376 687.428C76.1303 687.503 76.023 687.54 75.9156 687.54C75.8316 687.54 75.7593 687.519 75.6986 687.477C75.638 687.43 75.5866 687.374 75.5446 687.309L75.3206 686.91ZM87.3966 687.169C87.3593 687.22 87.3219 687.26 87.2846 687.288C87.2473 687.316 87.1959 687.33 87.1306 687.33C87.0606 687.33 86.9836 687.302 86.8996 687.246C86.8156 687.185 86.7106 687.12 86.5846 687.05C86.4633 686.98 86.3116 686.917 86.1296 686.861C85.9523 686.8 85.7329 686.77 85.4716 686.77C85.1216 686.77 84.8136 686.833 84.5476 686.959C84.2816 687.08 84.0576 687.258 83.8756 687.491C83.6983 687.724 83.5629 688.007 83.4696 688.338C83.3809 688.669 83.3366 689.04 83.3366 689.451C83.3366 689.88 83.3856 690.263 83.4836 690.599C83.5816 690.93 83.7193 691.21 83.8966 691.439C84.0786 691.663 84.2956 691.836 84.5476 691.957C84.8043 692.074 85.0913 692.132 85.4086 692.132C85.7119 692.132 85.9616 692.097 86.1576 692.027C86.3536 691.952 86.5146 691.871 86.6406 691.782C86.7713 691.693 86.8786 691.614 86.9626 691.544C87.0513 691.469 87.1376 691.432 87.2216 691.432C87.3243 691.432 87.4036 691.472 87.4596 691.551L87.8096 692.006C87.6556 692.197 87.4806 692.361 87.2846 692.496C87.0886 692.631 86.8763 692.746 86.6476 692.839C86.4236 692.928 86.1879 692.993 85.9406 693.035C85.6933 693.077 85.4413 693.098 85.1846 693.098C84.7413 693.098 84.3283 693.016 83.9456 692.853C83.5676 692.69 83.2386 692.454 82.9586 692.146C82.6786 691.833 82.4593 691.451 82.3006 690.998C82.1419 690.545 82.0626 690.03 82.0626 689.451C82.0626 688.924 82.1349 688.436 82.2796 687.988C82.4289 687.54 82.6436 687.155 82.9236 686.833C83.2083 686.506 83.5559 686.252 83.9666 686.07C84.3819 685.888 84.8579 685.797 85.3946 685.797C85.8939 685.797 86.3326 685.879 86.7106 686.042C87.0933 686.201 87.4316 686.427 87.7256 686.721L87.3966 687.169ZM91.3242 693.112C90.7642 693.112 90.3325 692.956 90.0292 692.643C89.7305 692.33 89.5812 691.88 89.5812 691.292V686.952H88.7272C88.6525 686.952 88.5895 686.931 88.5382 686.889C88.4868 686.842 88.4612 686.772 88.4612 686.679V686.182L89.6232 686.035L89.9102 683.844C89.9242 683.774 89.9545 683.718 90.0012 683.676C90.0525 683.629 90.1178 683.606 90.1972 683.606H90.8272V686.049H92.8782V686.952H90.8272V691.208C90.8272 691.507 90.8995 691.728 91.0442 691.873C91.1888 692.018 91.3755 692.09 91.6042 692.09C91.7348 692.09 91.8468 692.074 91.9402 692.041C92.0382 692.004 92.1222 691.964 92.1922 691.922C92.2622 691.88 92.3205 691.843 92.3672 691.81C92.4185 691.773 92.4628 691.754 92.5002 691.754C92.5655 691.754 92.6238 691.794 92.6752 691.873L93.0392 692.468C92.8245 692.669 92.5655 692.827 92.2622 692.944C91.9588 693.056 91.6462 693.112 91.3242 693.112ZM103.578 685.909V693H102.836C102.658 693 102.546 692.914 102.5 692.741L102.402 691.978C102.094 692.319 101.748 692.594 101.366 692.804C100.983 693.009 100.544 693.112 100.05 693.112C99.6624 693.112 99.3194 693.049 99.0208 692.923C98.7268 692.792 98.4794 692.61 98.2788 692.377C98.0781 692.144 97.9264 691.861 97.8238 691.53C97.7258 691.199 97.6768 690.832 97.6768 690.431V685.909H98.9228V690.431C98.9228 690.968 99.0441 691.383 99.2868 691.677C99.5341 691.971 99.9098 692.118 100.414 692.118C100.782 692.118 101.125 692.032 101.443 691.859C101.765 691.682 102.061 691.439 102.332 691.131V685.909H103.578ZM109.683 687.078C109.627 687.181 109.541 687.232 109.424 687.232C109.354 687.232 109.275 687.206 109.186 687.155C109.098 687.104 108.988 687.048 108.857 686.987C108.731 686.922 108.58 686.863 108.402 686.812C108.225 686.756 108.015 686.728 107.772 686.728C107.562 686.728 107.373 686.756 107.205 686.812C107.037 686.863 106.893 686.936 106.771 687.029C106.655 687.122 106.564 687.232 106.498 687.358C106.438 687.479 106.407 687.612 106.407 687.757C106.407 687.939 106.459 688.091 106.561 688.212C106.669 688.333 106.809 688.438 106.981 688.527C107.154 688.616 107.35 688.695 107.569 688.765C107.789 688.83 108.013 688.903 108.241 688.982C108.475 689.057 108.701 689.141 108.92 689.234C109.14 689.327 109.336 689.444 109.508 689.584C109.681 689.724 109.819 689.897 109.921 690.102C110.029 690.303 110.082 690.545 110.082 690.83C110.082 691.157 110.024 691.46 109.907 691.74C109.791 692.015 109.618 692.256 109.389 692.461C109.161 692.662 108.881 692.82 108.549 692.937C108.218 693.054 107.835 693.112 107.401 693.112C106.907 693.112 106.459 693.033 106.057 692.874C105.656 692.711 105.315 692.503 105.035 692.251L105.329 691.775C105.367 691.714 105.411 691.668 105.462 691.635C105.514 691.602 105.579 691.586 105.658 691.586C105.742 691.586 105.831 691.619 105.924 691.684C106.018 691.749 106.13 691.822 106.26 691.901C106.396 691.98 106.559 692.053 106.75 692.118C106.942 692.183 107.18 692.216 107.464 692.216C107.707 692.216 107.919 692.186 108.101 692.125C108.283 692.06 108.435 691.973 108.556 691.866C108.678 691.759 108.766 691.635 108.822 691.495C108.883 691.355 108.913 691.206 108.913 691.047C108.913 690.851 108.86 690.69 108.752 690.564C108.65 690.433 108.512 690.324 108.339 690.235C108.167 690.142 107.968 690.062 107.744 689.997C107.525 689.927 107.299 689.855 107.065 689.78C106.837 689.705 106.61 689.621 106.386 689.528C106.167 689.43 105.971 689.309 105.798 689.164C105.626 689.019 105.486 688.842 105.378 688.632C105.276 688.417 105.224 688.158 105.224 687.855C105.224 687.584 105.28 687.325 105.392 687.078C105.504 686.826 105.668 686.607 105.882 686.42C106.097 686.229 106.361 686.077 106.673 685.965C106.986 685.853 107.343 685.797 107.744 685.797C108.211 685.797 108.629 685.872 108.997 686.021C109.371 686.166 109.693 686.366 109.963 686.623L109.683 687.078ZM118.181 685.797C118.699 685.797 119.166 685.883 119.581 686.056C119.996 686.229 120.351 686.474 120.645 686.791C120.939 687.108 121.163 687.493 121.317 687.946C121.476 688.394 121.555 688.896 121.555 689.451C121.555 690.011 121.476 690.515 121.317 690.963C121.163 691.411 120.939 691.794 120.645 692.111C120.351 692.428 119.996 692.673 119.581 692.846C119.166 693.014 118.699 693.098 118.181 693.098C117.658 693.098 117.187 693.014 116.767 692.846C116.352 692.673 115.997 692.428 115.703 692.111C115.409 691.794 115.183 691.411 115.024 690.963C114.87 690.515 114.793 690.011 114.793 689.451C114.793 688.896 114.87 688.394 115.024 687.946C115.183 687.493 115.409 687.108 115.703 686.791C115.997 686.474 116.352 686.229 116.767 686.056C117.187 685.883 117.658 685.797 118.181 685.797ZM118.181 692.125C118.881 692.125 119.404 691.892 119.749 691.425C120.094 690.954 120.267 690.298 120.267 689.458C120.267 688.613 120.094 687.955 119.749 687.484C119.404 687.013 118.881 686.777 118.181 686.777C117.826 686.777 117.516 686.838 117.25 686.959C116.989 687.08 116.769 687.255 116.592 687.484C116.419 687.713 116.289 687.995 116.2 688.331C116.116 688.662 116.074 689.038 116.074 689.458C116.074 690.298 116.247 690.954 116.592 691.425C116.942 691.892 117.472 692.125 118.181 692.125ZM124.311 686.938C124.465 686.765 124.629 686.609 124.801 686.469C124.974 686.329 125.156 686.21 125.347 686.112C125.543 686.009 125.749 685.932 125.963 685.881C126.183 685.825 126.418 685.797 126.67 685.797C127.058 685.797 127.398 685.862 127.692 685.993C127.991 686.119 128.238 686.301 128.434 686.539C128.635 686.772 128.787 687.055 128.889 687.386C128.992 687.717 129.043 688.084 129.043 688.485V693H127.79V688.485C127.79 687.948 127.667 687.533 127.419 687.239C127.177 686.94 126.806 686.791 126.306 686.791C125.938 686.791 125.592 686.88 125.27 687.057C124.953 687.234 124.659 687.475 124.388 687.778V693H123.135V685.909H123.884C124.062 685.909 124.171 685.995 124.213 686.168L124.311 686.938ZM147.626 682.969L144.497 693H143.279L140.738 685.349C140.714 685.274 140.691 685.195 140.668 685.111C140.649 685.027 140.628 684.938 140.605 684.845C140.581 684.938 140.558 685.027 140.535 685.111C140.511 685.195 140.488 685.274 140.465 685.349L137.91 693H136.692L133.563 682.969H134.69C134.811 682.969 134.911 682.999 134.991 683.06C135.075 683.121 135.128 683.198 135.152 683.291L137.224 690.263C137.256 690.389 137.287 690.524 137.315 690.669C137.347 690.814 137.378 690.968 137.406 691.131C137.438 690.968 137.471 690.814 137.504 690.669C137.541 690.52 137.581 690.384 137.623 690.263L139.982 683.291C140.01 683.212 140.063 683.139 140.143 683.074C140.227 683.004 140.327 682.969 140.444 682.969H140.836C140.957 682.969 141.055 682.999 141.13 683.06C141.204 683.121 141.26 683.198 141.298 683.291L143.65 690.263C143.692 690.384 143.729 690.515 143.762 690.655C143.799 690.795 143.834 690.942 143.867 691.096C143.89 690.942 143.916 690.795 143.944 690.655C143.972 690.515 144.002 690.384 144.035 690.263L146.114 683.291C146.137 683.207 146.188 683.132 146.268 683.067C146.352 683.002 146.452 682.969 146.569 682.969H147.626ZM150.01 686.854C150.313 686.532 150.649 686.275 151.018 686.084C151.386 685.893 151.811 685.797 152.292 685.797C152.679 685.797 153.02 685.862 153.314 685.993C153.612 686.119 153.86 686.301 154.056 686.539C154.256 686.772 154.408 687.055 154.511 687.386C154.613 687.717 154.665 688.084 154.665 688.485V693H153.412V688.485C153.412 687.948 153.288 687.533 153.041 687.239C152.798 686.94 152.427 686.791 151.928 686.791C151.559 686.791 151.214 686.88 150.892 687.057C150.574 687.234 150.28 687.475 150.01 687.778V693H148.757V682.689H150.01V686.854ZM160.406 689.808C159.832 689.827 159.342 689.873 158.936 689.948C158.535 690.018 158.206 690.111 157.949 690.228C157.697 690.345 157.513 690.482 157.396 690.641C157.284 690.8 157.228 690.977 157.228 691.173C157.228 691.36 157.259 691.521 157.319 691.656C157.38 691.791 157.462 691.903 157.564 691.992C157.672 692.076 157.795 692.139 157.935 692.181C158.08 692.218 158.234 692.237 158.397 692.237C158.617 692.237 158.817 692.216 158.999 692.174C159.181 692.127 159.352 692.062 159.51 691.978C159.674 691.894 159.828 691.794 159.972 691.677C160.122 691.56 160.266 691.427 160.406 691.278V689.808ZM156.381 686.91C156.773 686.532 157.196 686.25 157.648 686.063C158.101 685.876 158.603 685.783 159.153 685.783C159.55 685.783 159.902 685.848 160.21 685.979C160.518 686.11 160.777 686.292 160.987 686.525C161.197 686.758 161.356 687.041 161.463 687.372C161.571 687.703 161.624 688.067 161.624 688.464V693H161.071C160.95 693 160.857 692.981 160.791 692.944C160.726 692.902 160.675 692.823 160.637 692.706L160.497 692.034C160.311 692.207 160.129 692.361 159.951 692.496C159.774 692.627 159.587 692.739 159.391 692.832C159.195 692.921 158.985 692.988 158.761 693.035C158.542 693.086 158.297 693.112 158.026 693.112C157.751 693.112 157.492 693.075 157.249 693C157.007 692.921 156.794 692.804 156.612 692.65C156.435 692.496 156.293 692.302 156.185 692.069C156.083 691.831 156.031 691.551 156.031 691.229C156.031 690.949 156.108 690.681 156.262 690.424C156.416 690.163 156.666 689.932 157.011 689.731C157.357 689.53 157.807 689.367 158.362 689.241C158.918 689.11 159.599 689.036 160.406 689.017V688.464C160.406 687.913 160.287 687.498 160.049 687.218C159.811 686.933 159.464 686.791 159.006 686.791C158.698 686.791 158.439 686.831 158.229 686.91C158.024 686.985 157.844 687.071 157.69 687.169C157.541 687.262 157.41 687.349 157.298 687.428C157.191 687.503 157.084 687.54 156.976 687.54C156.892 687.54 156.82 687.519 156.759 687.477C156.699 687.43 156.647 687.374 156.605 687.309L156.381 686.91ZM165.603 693.112C165.043 693.112 164.612 692.956 164.308 692.643C164.01 692.33 163.86 691.88 163.86 691.292V686.952H163.006C162.932 686.952 162.869 686.931 162.817 686.889C162.766 686.842 162.74 686.772 162.74 686.679V686.182L163.902 686.035L164.189 683.844C164.203 683.774 164.234 683.718 164.28 683.676C164.332 683.629 164.397 683.606 164.476 683.606H165.106V686.049H167.157V686.952H165.106V691.208C165.106 691.507 165.179 691.728 165.323 691.873C165.468 692.018 165.655 692.09 165.883 692.09C166.014 692.09 166.126 692.074 166.219 692.041C166.317 692.004 166.401 691.964 166.471 691.922C166.541 691.88 166.6 691.843 166.646 691.81C166.698 691.773 166.742 691.754 166.779 691.754C166.845 691.754 166.903 691.794 166.954 691.873L167.318 692.468C167.104 692.669 166.845 692.827 166.541 692.944C166.238 693.056 165.925 693.112 165.603 693.112ZM172.574 687.078C172.518 687.181 172.432 687.232 172.315 687.232C172.245 687.232 172.166 687.206 172.077 687.155C171.988 687.104 171.879 687.048 171.748 686.987C171.622 686.922 171.47 686.863 171.293 686.812C171.116 686.756 170.906 686.728 170.663 686.728C170.453 686.728 170.264 686.756 170.096 686.812C169.928 686.863 169.783 686.936 169.662 687.029C169.545 687.122 169.454 687.232 169.389 687.358C169.328 687.479 169.298 687.612 169.298 687.757C169.298 687.939 169.349 688.091 169.452 688.212C169.559 688.333 169.699 688.438 169.872 688.527C170.045 688.616 170.241 688.695 170.46 688.765C170.679 688.83 170.903 688.903 171.132 688.982C171.365 689.057 171.592 689.141 171.811 689.234C172.03 689.327 172.226 689.444 172.399 689.584C172.572 689.724 172.709 689.897 172.812 690.102C172.919 690.303 172.973 690.545 172.973 690.83C172.973 691.157 172.915 691.46 172.798 691.74C172.681 692.015 172.509 692.256 172.28 692.461C172.051 692.662 171.771 692.82 171.44 692.937C171.109 693.054 170.726 693.112 170.292 693.112C169.797 693.112 169.349 693.033 168.948 692.874C168.547 692.711 168.206 692.503 167.926 692.251L168.22 691.775C168.257 691.714 168.302 691.668 168.353 691.635C168.404 691.602 168.47 691.586 168.549 691.586C168.633 691.586 168.722 691.619 168.815 691.684C168.908 691.749 169.02 691.822 169.151 691.901C169.286 691.98 169.45 692.053 169.641 692.118C169.832 692.183 170.07 692.216 170.355 692.216C170.598 692.216 170.81 692.186 170.992 692.125C171.174 692.06 171.326 691.973 171.447 691.866C171.568 691.759 171.657 691.635 171.713 691.495C171.774 691.355 171.804 691.206 171.804 691.047C171.804 690.851 171.75 690.69 171.643 690.564C171.54 690.433 171.403 690.324 171.23 690.235C171.057 690.142 170.859 690.062 170.635 689.997C170.416 689.927 170.189 689.855 169.956 689.78C169.727 689.705 169.501 689.621 169.277 689.528C169.058 689.43 168.862 689.309 168.689 689.164C168.516 689.019 168.376 688.842 168.269 688.632C168.166 688.417 168.115 688.158 168.115 687.855C168.115 687.584 168.171 687.325 168.283 687.078C168.395 686.826 168.558 686.607 168.773 686.42C168.988 686.229 169.251 686.077 169.564 685.965C169.877 685.853 170.234 685.797 170.635 685.797C171.102 685.797 171.519 685.872 171.888 686.021C172.261 686.166 172.583 686.366 172.854 686.623L172.574 687.078ZM178.344 689.808C177.77 689.827 177.28 689.873 176.874 689.948C176.472 690.018 176.143 690.111 175.887 690.228C175.635 690.345 175.45 690.482 175.334 690.641C175.222 690.8 175.166 690.977 175.166 691.173C175.166 691.36 175.196 691.521 175.257 691.656C175.317 691.791 175.399 691.903 175.502 691.992C175.609 692.076 175.733 692.139 175.873 692.181C176.017 692.218 176.171 692.237 176.335 692.237C176.554 692.237 176.755 692.216 176.937 692.174C177.119 692.127 177.289 692.062 177.448 691.978C177.611 691.894 177.765 691.794 177.91 691.677C178.059 691.56 178.204 691.427 178.344 691.278V689.808ZM174.319 686.91C174.711 686.532 175.133 686.25 175.586 686.063C176.038 685.876 176.54 685.783 177.091 685.783C177.487 685.783 177.84 685.848 178.148 685.979C178.456 686.11 178.715 686.292 178.925 686.525C179.135 686.758 179.293 687.041 179.401 687.372C179.508 687.703 179.562 688.067 179.562 688.464V693H179.009C178.887 693 178.794 692.981 178.729 692.944C178.663 692.902 178.612 692.823 178.575 692.706L178.435 692.034C178.248 692.207 178.066 692.361 177.889 692.496C177.711 692.627 177.525 692.739 177.329 692.832C177.133 692.921 176.923 692.988 176.699 693.035C176.479 693.086 176.234 693.112 175.964 693.112C175.688 693.112 175.429 693.075 175.187 693C174.944 692.921 174.732 692.804 174.55 692.65C174.372 692.496 174.23 692.302 174.123 692.069C174.02 691.831 173.969 691.551 173.969 691.229C173.969 690.949 174.046 690.681 174.2 690.424C174.354 690.163 174.603 689.932 174.949 689.731C175.294 689.53 175.744 689.367 176.3 689.241C176.855 689.11 177.536 689.036 178.344 689.017V688.464C178.344 687.913 178.225 687.498 177.987 687.218C177.749 686.933 177.401 686.791 176.944 686.791C176.636 686.791 176.377 686.831 176.167 686.91C175.961 686.985 175.782 687.071 175.628 687.169C175.478 687.262 175.348 687.349 175.236 687.428C175.128 687.503 175.021 687.54 174.914 687.54C174.83 687.54 174.757 687.519 174.697 687.477C174.636 687.43 174.585 687.374 174.543 687.309L174.319 686.91ZM182.713 691.292C182.941 691.6 183.191 691.817 183.462 691.943C183.732 692.069 184.036 692.132 184.372 692.132C185.034 692.132 185.543 691.896 185.898 691.425C186.252 690.954 186.43 690.282 186.43 689.409C186.43 688.947 186.388 688.55 186.304 688.219C186.224 687.888 186.108 687.617 185.954 687.407C185.8 687.192 185.611 687.036 185.387 686.938C185.163 686.84 184.908 686.791 184.624 686.791C184.218 686.791 183.861 686.884 183.553 687.071C183.249 687.258 182.969 687.521 182.713 687.862V691.292ZM182.65 687.008C182.948 686.639 183.294 686.343 183.686 686.119C184.078 685.895 184.526 685.783 185.03 685.783C185.44 685.783 185.811 685.862 186.143 686.021C186.474 686.175 186.756 686.406 186.99 686.714C187.223 687.017 187.403 687.395 187.529 687.848C187.655 688.301 187.718 688.821 187.718 689.409C187.718 689.932 187.648 690.419 187.508 690.872C187.368 691.32 187.165 691.71 186.899 692.041C186.637 692.368 186.315 692.627 185.933 692.818C185.555 693.005 185.128 693.098 184.652 693.098C184.218 693.098 183.844 693.026 183.532 692.881C183.224 692.732 182.951 692.526 182.713 692.265V695.401H181.46V685.909H182.209C182.386 685.909 182.496 685.995 182.538 686.168L182.65 687.008ZM190.56 691.292C190.789 691.6 191.039 691.817 191.309 691.943C191.58 692.069 191.883 692.132 192.219 692.132C192.882 692.132 193.391 691.896 193.745 691.425C194.1 690.954 194.277 690.282 194.277 689.409C194.277 688.947 194.235 688.55 194.151 688.219C194.072 687.888 193.955 687.617 193.801 687.407C193.647 687.192 193.458 687.036 193.234 686.938C193.01 686.84 192.756 686.791 192.471 686.791C192.065 686.791 191.708 686.884 191.4 687.071C191.097 687.258 190.817 687.521 190.56 687.862V691.292ZM190.497 687.008C190.796 686.639 191.141 686.343 191.533 686.119C191.925 685.895 192.373 685.783 192.877 685.783C193.288 685.783 193.659 685.862 193.99 686.021C194.322 686.175 194.604 686.406 194.837 686.714C195.071 687.017 195.25 687.395 195.376 687.848C195.502 688.301 195.565 688.821 195.565 689.409C195.565 689.932 195.495 690.419 195.355 690.872C195.215 691.32 195.012 691.71 194.746 692.041C194.485 692.368 194.163 692.627 193.78 692.818C193.402 693.005 192.975 693.098 192.499 693.098C192.065 693.098 191.692 693.026 191.379 692.881C191.071 692.732 190.798 692.526 190.56 692.265V695.401H189.307V685.909H190.056C190.234 685.909 190.343 685.995 190.385 686.168L190.497 687.008ZM201.465 688.597C201.465 689.596 201.591 690.566 201.843 691.509C202.1 692.452 202.473 693.348 202.963 694.197C203.038 694.342 203.056 694.451 203.019 694.526C202.982 694.605 202.928 694.668 202.858 694.715L202.305 695.051C201.955 694.514 201.656 693.982 201.409 693.455C201.166 692.928 200.968 692.398 200.814 691.866C200.665 691.334 200.555 690.8 200.485 690.263C200.415 689.722 200.38 689.166 200.38 688.597C200.38 688.032 200.415 687.479 200.485 686.938C200.555 686.397 200.665 685.862 200.814 685.335C200.968 684.803 201.166 684.273 201.409 683.746C201.656 683.219 201.955 682.684 202.305 682.143L202.858 682.486C202.928 682.533 202.982 682.596 203.019 682.675C203.056 682.75 203.038 682.857 202.963 682.997C202.473 683.846 202.1 684.742 201.843 685.685C201.591 686.628 201.465 687.598 201.465 688.597ZM210.902 688.772H208.046V691.782H207.031V688.772H204.189V687.827H207.031V684.838H208.046V687.827H210.902V688.772ZM213.585 685.916C213.585 686.233 213.629 686.518 213.718 686.77C213.811 687.017 213.942 687.227 214.11 687.4C214.282 687.573 214.49 687.703 214.733 687.792C214.98 687.881 215.255 687.925 215.559 687.925C215.895 687.925 216.191 687.871 216.448 687.764C216.709 687.652 216.928 687.505 217.106 687.323C217.283 687.141 217.418 686.931 217.512 686.693C217.605 686.455 217.652 686.208 217.652 685.951C217.652 685.638 217.6 685.356 217.498 685.104C217.4 684.847 217.262 684.63 217.085 684.453C216.907 684.276 216.695 684.14 216.448 684.047C216.205 683.949 215.937 683.9 215.643 683.9C215.335 683.9 215.055 683.951 214.803 684.054C214.551 684.152 214.334 684.29 214.152 684.467C213.97 684.644 213.83 684.857 213.732 685.104C213.634 685.351 213.585 685.622 213.585 685.916ZM216.497 689.003C216.599 688.868 216.695 688.739 216.784 688.618C216.872 688.497 216.956 688.375 217.036 688.254C216.779 688.459 216.49 688.616 216.168 688.723C215.846 688.83 215.505 688.884 215.146 688.884C214.768 688.884 214.408 688.821 214.068 688.695C213.732 688.569 213.435 688.385 213.179 688.142C212.922 687.895 212.717 687.594 212.563 687.239C212.413 686.88 212.339 686.469 212.339 686.007C212.339 685.568 212.42 685.158 212.584 684.775C212.747 684.392 212.976 684.059 213.27 683.774C213.564 683.489 213.914 683.265 214.32 683.102C214.726 682.939 215.171 682.857 215.657 682.857C216.137 682.857 216.574 682.936 216.966 683.095C217.358 683.254 217.694 683.475 217.974 683.76C218.254 684.045 218.468 684.385 218.618 684.782C218.772 685.179 218.849 685.617 218.849 686.098C218.849 686.387 218.821 686.663 218.765 686.924C218.713 687.181 218.636 687.435 218.534 687.687C218.436 687.934 218.314 688.182 218.17 688.429C218.025 688.672 217.862 688.921 217.68 689.178L215.237 692.706C215.176 692.795 215.09 692.867 214.978 692.923C214.866 692.974 214.737 693 214.593 693H213.445L216.497 689.003ZM226.851 692.048V693H221.475V692.048H223.624V685.209C223.624 685.004 223.631 684.796 223.645 684.586L221.86 686.119C221.799 686.17 221.738 686.203 221.678 686.217C221.617 686.226 221.561 686.226 221.51 686.217C221.458 686.208 221.409 686.189 221.363 686.161C221.321 686.133 221.288 686.103 221.265 686.07L220.873 685.531L223.862 682.948H224.877V692.048H226.851ZM233.409 685.916C233.409 686.233 233.453 686.518 233.542 686.77C233.635 687.017 233.766 687.227 233.934 687.4C234.106 687.573 234.314 687.703 234.557 687.792C234.804 687.881 235.079 687.925 235.383 687.925C235.719 687.925 236.015 687.871 236.272 687.764C236.533 687.652 236.752 687.505 236.93 687.323C237.107 687.141 237.242 686.931 237.336 686.693C237.429 686.455 237.476 686.208 237.476 685.951C237.476 685.638 237.424 685.356 237.322 685.104C237.224 684.847 237.086 684.63 236.909 684.453C236.731 684.276 236.519 684.14 236.272 684.047C236.029 683.949 235.761 683.9 235.467 683.9C235.159 683.9 234.879 683.951 234.627 684.054C234.375 684.152 234.158 684.29 233.976 684.467C233.794 684.644 233.654 684.857 233.556 685.104C233.458 685.351 233.409 685.622 233.409 685.916ZM236.321 689.003C236.423 688.868 236.519 688.739 236.608 688.618C236.696 688.497 236.78 688.375 236.86 688.254C236.603 688.459 236.314 688.616 235.992 688.723C235.67 688.83 235.329 688.884 234.97 688.884C234.592 688.884 234.232 688.821 233.892 688.695C233.556 688.569 233.259 688.385 233.003 688.142C232.746 687.895 232.541 687.594 232.387 687.239C232.237 686.88 232.163 686.469 232.163 686.007C232.163 685.568 232.244 685.158 232.408 684.775C232.571 684.392 232.8 684.059 233.094 683.774C233.388 683.489 233.738 683.265 234.144 683.102C234.55 682.939 234.995 682.857 235.481 682.857C235.961 682.857 236.398 682.936 236.79 683.095C237.182 683.254 237.518 683.475 237.798 683.76C238.078 684.045 238.292 684.385 238.442 684.782C238.596 685.179 238.673 685.617 238.673 686.098C238.673 686.387 238.645 686.663 238.589 686.924C238.537 687.181 238.46 687.435 238.358 687.687C238.26 687.934 238.138 688.182 237.994 688.429C237.849 688.672 237.686 688.921 237.504 689.178L235.061 692.706C235 692.795 234.914 692.867 234.802 692.923C234.69 692.974 234.561 693 234.417 693H233.269L236.321 689.003ZM241.53 685.916C241.53 686.233 241.574 686.518 241.663 686.77C241.756 687.017 241.887 687.227 242.055 687.4C242.227 687.573 242.435 687.703 242.678 687.792C242.925 687.881 243.2 687.925 243.504 687.925C243.84 687.925 244.136 687.871 244.393 687.764C244.654 687.652 244.873 687.505 245.051 687.323C245.228 687.141 245.363 686.931 245.457 686.693C245.55 686.455 245.597 686.208 245.597 685.951C245.597 685.638 245.545 685.356 245.443 685.104C245.345 684.847 245.207 684.63 245.03 684.453C244.852 684.276 244.64 684.14 244.393 684.047C244.15 683.949 243.882 683.9 243.588 683.9C243.28 683.9 243 683.951 242.748 684.054C242.496 684.152 242.279 684.29 242.097 684.467C241.915 684.644 241.775 684.857 241.677 685.104C241.579 685.351 241.53 685.622 241.53 685.916ZM244.442 689.003C244.544 688.868 244.64 688.739 244.729 688.618C244.817 688.497 244.901 688.375 244.981 688.254C244.724 688.459 244.435 688.616 244.113 688.723C243.791 688.83 243.45 688.884 243.091 688.884C242.713 688.884 242.353 688.821 242.013 688.695C241.677 688.569 241.38 688.385 241.124 688.142C240.867 687.895 240.662 687.594 240.508 687.239C240.358 686.88 240.284 686.469 240.284 686.007C240.284 685.568 240.365 685.158 240.529 684.775C240.692 684.392 240.921 684.059 241.215 683.774C241.509 683.489 241.859 683.265 242.265 683.102C242.671 682.939 243.116 682.857 243.602 682.857C244.082 682.857 244.519 682.936 244.911 683.095C245.303 683.254 245.639 683.475 245.919 683.76C246.199 684.045 246.413 684.385 246.563 684.782C246.717 685.179 246.794 685.617 246.794 686.098C246.794 686.387 246.766 686.663 246.71 686.924C246.658 687.181 246.581 687.435 246.479 687.687C246.381 687.934 246.259 688.182 246.115 688.429C245.97 688.672 245.807 688.921 245.625 689.178L243.182 692.706C243.121 692.795 243.035 692.867 242.923 692.923C242.811 692.974 242.682 693 242.538 693H241.39L244.442 689.003ZM249.651 685.916C249.651 686.233 249.695 686.518 249.784 686.77C249.877 687.017 250.008 687.227 250.176 687.4C250.349 687.573 250.556 687.703 250.799 687.792C251.046 687.881 251.322 687.925 251.625 687.925C251.961 687.925 252.257 687.871 252.514 687.764C252.775 687.652 252.995 687.505 253.172 687.323C253.349 687.141 253.485 686.931 253.578 686.693C253.671 686.455 253.718 686.208 253.718 685.951C253.718 685.638 253.667 685.356 253.564 685.104C253.466 684.847 253.328 684.63 253.151 684.453C252.974 684.276 252.761 684.14 252.514 684.047C252.271 683.949 252.003 683.9 251.709 683.9C251.401 683.9 251.121 683.951 250.869 684.054C250.617 684.152 250.4 684.29 250.218 684.467C250.036 684.644 249.896 684.857 249.798 685.104C249.7 685.351 249.651 685.622 249.651 685.916ZM252.563 689.003C252.666 688.868 252.761 688.739 252.85 688.618C252.939 688.497 253.023 688.375 253.102 688.254C252.845 688.459 252.556 688.616 252.234 688.723C251.912 688.83 251.571 688.884 251.212 688.884C250.834 688.884 250.475 688.821 250.134 688.695C249.798 688.569 249.502 688.385 249.245 688.142C248.988 687.895 248.783 687.594 248.629 687.239C248.48 686.88 248.405 686.469 248.405 686.007C248.405 685.568 248.487 685.158 248.65 684.775C248.813 684.392 249.042 684.059 249.336 683.774C249.63 683.489 249.98 683.265 250.386 683.102C250.792 682.939 251.238 682.857 251.723 682.857C252.204 682.857 252.64 682.936 253.032 683.095C253.424 683.254 253.76 683.475 254.04 683.76C254.32 684.045 254.535 684.385 254.684 684.782C254.838 685.179 254.915 685.617 254.915 686.098C254.915 686.387 254.887 686.663 254.831 686.924C254.78 687.181 254.703 687.435 254.6 687.687C254.502 687.934 254.381 688.182 254.236 688.429C254.091 688.672 253.928 688.921 253.746 689.178L251.303 692.706C251.242 692.795 251.156 692.867 251.044 692.923C250.932 692.974 250.804 693 250.659 693H249.511L252.563 689.003ZM259.837 692.076C260.173 692.076 260.476 692.022 260.747 691.915C261.022 691.808 261.256 691.658 261.447 691.467C261.643 691.276 261.792 691.049 261.895 690.788C262.002 690.527 262.056 690.242 262.056 689.934C262.056 689.607 262.005 689.313 261.902 689.052C261.799 688.786 261.652 688.562 261.461 688.38C261.274 688.193 261.05 688.051 260.789 687.953C260.528 687.855 260.241 687.806 259.928 687.806C259.592 687.806 259.289 687.864 259.018 687.981C258.747 688.093 258.516 688.247 258.325 688.443C258.138 688.634 257.994 688.858 257.891 689.115C257.793 689.367 257.744 689.631 257.744 689.906C257.744 690.228 257.791 690.522 257.884 690.788C257.977 691.054 258.113 691.283 258.29 691.474C258.472 691.665 258.691 691.815 258.948 691.922C259.209 692.025 259.506 692.076 259.837 692.076ZM259.109 686.728C259.02 686.84 258.934 686.95 258.85 687.057C258.771 687.16 258.694 687.262 258.619 687.365C258.857 687.202 259.118 687.076 259.403 686.987C259.688 686.898 259.998 686.854 260.334 686.854C260.74 686.854 261.123 686.922 261.482 687.057C261.841 687.188 262.154 687.381 262.42 687.638C262.691 687.89 262.905 688.203 263.064 688.576C263.223 688.945 263.302 689.367 263.302 689.843C263.302 690.305 263.218 690.734 263.05 691.131C262.882 691.528 262.646 691.873 262.343 692.167C262.044 692.461 261.683 692.692 261.258 692.86C260.838 693.028 260.374 693.112 259.865 693.112C259.361 693.112 258.904 693.033 258.493 692.874C258.082 692.711 257.732 692.482 257.443 692.188C257.158 691.889 256.937 691.53 256.778 691.11C256.624 690.685 256.547 690.212 256.547 689.689C256.547 689.25 256.643 688.784 256.834 688.289C257.03 687.79 257.34 687.258 257.765 686.693L260.313 683.27C260.378 683.186 260.467 683.116 260.579 683.06C260.696 682.999 260.829 682.969 260.978 682.969H262.084L259.109 686.728ZM269.022 689.381V685.244C269.022 685.123 269.027 684.99 269.036 684.845C269.045 684.7 269.059 684.553 269.078 684.404L265.424 689.381H269.022ZM271.633 689.381V690.095C271.633 690.17 271.61 690.233 271.563 690.284C271.521 690.335 271.453 690.361 271.36 690.361H270.114V693H269.022V690.361H264.57C264.477 690.361 264.395 690.335 264.325 690.284C264.26 690.228 264.218 690.16 264.199 690.081L264.073 689.444L268.952 682.969H270.114V689.381H271.633ZM276.079 692.076C276.415 692.076 276.719 692.022 276.989 691.915C277.265 691.808 277.498 691.658 277.689 691.467C277.885 691.276 278.035 691.049 278.137 690.788C278.245 690.527 278.298 690.242 278.298 689.934C278.298 689.607 278.247 689.313 278.144 689.052C278.042 688.786 277.895 688.562 277.703 688.38C277.517 688.193 277.293 688.051 277.031 687.953C276.77 687.855 276.483 687.806 276.17 687.806C275.834 687.806 275.531 687.864 275.26 687.981C274.99 688.093 274.759 688.247 274.567 688.443C274.381 688.634 274.236 688.858 274.133 689.115C274.035 689.367 273.986 689.631 273.986 689.906C273.986 690.228 274.033 690.522 274.126 690.788C274.22 691.054 274.355 691.283 274.532 691.474C274.714 691.665 274.934 691.815 275.19 691.922C275.452 692.025 275.748 692.076 276.079 692.076ZM275.351 686.728C275.263 686.84 275.176 686.95 275.092 687.057C275.013 687.16 274.936 687.262 274.861 687.365C275.099 687.202 275.361 687.076 275.645 686.987C275.93 686.898 276.24 686.854 276.576 686.854C276.982 686.854 277.365 686.922 277.724 687.057C278.084 687.188 278.396 687.381 278.662 687.638C278.933 687.89 279.148 688.203 279.306 688.576C279.465 688.945 279.544 689.367 279.544 689.843C279.544 690.305 279.46 690.734 279.292 691.131C279.124 691.528 278.889 691.873 278.585 692.167C278.287 692.461 277.925 692.692 277.5 692.86C277.08 693.028 276.616 693.112 276.107 693.112C275.603 693.112 275.146 693.033 274.735 692.874C274.325 692.711 273.975 692.482 273.685 692.188C273.401 691.889 273.179 691.53 273.02 691.11C272.866 690.685 272.789 690.212 272.789 689.689C272.789 689.25 272.885 688.784 273.076 688.289C273.272 687.79 273.583 687.258 274.007 686.693L276.555 683.27C276.621 683.186 276.709 683.116 276.821 683.06C276.938 682.999 277.071 682.969 277.22 682.969H278.326L275.351 686.728ZM285.264 689.381V685.244C285.264 685.123 285.269 684.99 285.278 684.845C285.288 684.7 285.302 684.553 285.32 684.404L281.666 689.381H285.264ZM287.875 689.381V690.095C287.875 690.17 287.852 690.233 287.805 690.284C287.763 690.335 287.696 690.361 287.602 690.361H286.356V693H285.264V690.361H280.812C280.719 690.361 280.637 690.335 280.567 690.284C280.502 690.228 280.46 690.16 280.441 690.081L280.315 689.444L285.194 682.969H286.356V689.381H287.875ZM295.401 692.048V693H290.025V692.048H292.174V685.209C292.174 685.004 292.181 684.796 292.195 684.586L290.41 686.119C290.35 686.17 290.289 686.203 290.228 686.217C290.168 686.226 290.112 686.226 290.06 686.217C290.009 686.208 289.96 686.189 289.913 686.161C289.871 686.133 289.839 686.103 289.815 686.07L289.423 685.531L292.412 682.948H293.427V692.048H295.401ZM304.096 687.988C304.096 688.865 304.001 689.626 303.809 690.27C303.623 690.909 303.366 691.439 303.039 691.859C302.713 692.279 302.325 692.592 301.877 692.797C301.434 693.002 300.958 693.105 300.449 693.105C299.936 693.105 299.458 693.002 299.014 692.797C298.576 692.592 298.193 692.279 297.866 691.859C297.54 691.439 297.283 690.909 297.096 690.27C296.91 689.626 296.816 688.865 296.816 687.988C296.816 687.111 296.91 686.35 297.096 685.706C297.283 685.062 297.54 684.53 297.866 684.11C298.193 683.685 298.576 683.37 299.014 683.165C299.458 682.96 299.936 682.857 300.449 682.857C300.958 682.857 301.434 682.96 301.877 683.165C302.325 683.37 302.713 683.685 303.039 684.11C303.366 684.53 303.623 685.062 303.809 685.706C304.001 686.35 304.096 687.111 304.096 687.988ZM302.801 687.988C302.801 687.223 302.736 686.581 302.605 686.063C302.479 685.54 302.307 685.12 302.087 684.803C301.873 684.486 301.623 684.259 301.338 684.124C301.054 683.984 300.757 683.914 300.449 683.914C300.141 683.914 299.845 683.984 299.56 684.124C299.276 684.259 299.026 684.486 298.811 684.803C298.597 685.12 298.424 685.54 298.293 686.063C298.167 686.581 298.104 687.223 298.104 687.988C298.104 688.753 298.167 689.395 298.293 689.913C298.424 690.431 298.597 690.849 298.811 691.166C299.026 691.483 299.276 691.712 299.56 691.852C299.845 691.987 300.141 692.055 300.449 692.055C300.757 692.055 301.054 691.987 301.338 691.852C301.623 691.712 301.873 691.483 302.087 691.166C302.307 690.849 302.479 690.431 302.605 689.913C302.736 689.395 302.801 688.753 302.801 687.988ZM312.218 687.988C312.218 688.865 312.122 689.626 311.931 690.27C311.744 690.909 311.487 691.439 311.161 691.859C310.834 692.279 310.447 692.592 309.999 692.797C309.555 693.002 309.079 693.105 308.571 693.105C308.057 693.105 307.579 693.002 307.136 692.797C306.697 692.592 306.314 692.279 305.988 691.859C305.661 691.439 305.404 690.909 305.218 690.27C305.031 689.626 304.938 688.865 304.938 687.988C304.938 687.111 305.031 686.35 305.218 685.706C305.404 685.062 305.661 684.53 305.988 684.11C306.314 683.685 306.697 683.37 307.136 683.165C307.579 682.96 308.057 682.857 308.571 682.857C309.079 682.857 309.555 682.96 309.999 683.165C310.447 683.37 310.834 683.685 311.161 684.11C311.487 684.53 311.744 685.062 311.931 685.706C312.122 686.35 312.218 687.111 312.218 687.988ZM310.923 687.988C310.923 687.223 310.857 686.581 310.727 686.063C310.601 685.54 310.428 685.12 310.209 684.803C309.994 684.486 309.744 684.259 309.46 684.124C309.175 683.984 308.879 683.914 308.571 683.914C308.263 683.914 307.966 683.984 307.682 684.124C307.397 684.259 307.147 684.486 306.933 684.803C306.718 685.12 306.545 685.54 306.415 686.063C306.289 686.581 306.226 687.223 306.226 687.988C306.226 688.753 306.289 689.395 306.415 689.913C306.545 690.431 306.718 690.849 306.933 691.166C307.147 691.483 307.397 691.712 307.682 691.852C307.966 691.987 308.263 692.055 308.571 692.055C308.879 692.055 309.175 691.987 309.46 691.852C309.744 691.712 309.994 691.483 310.209 691.166C310.428 690.849 310.601 690.431 310.727 689.913C310.857 689.395 310.923 688.753 310.923 687.988ZM314.662 688.597C314.662 687.598 314.533 686.628 314.277 685.685C314.025 684.742 313.654 683.846 313.164 682.997C313.126 682.927 313.103 682.866 313.094 682.815C313.084 682.759 313.087 682.712 313.101 682.675C313.115 682.633 313.136 682.598 313.164 682.57C313.196 682.537 313.231 682.509 313.269 682.486L313.822 682.143C314.172 682.684 314.468 683.219 314.711 683.746C314.958 684.273 315.156 684.803 315.306 685.335C315.46 685.862 315.572 686.397 315.642 686.938C315.712 687.479 315.747 688.032 315.747 688.597C315.747 689.166 315.712 689.722 315.642 690.263C315.572 690.8 315.46 691.334 315.306 691.866C315.156 692.398 314.958 692.928 314.711 693.455C314.468 693.982 314.172 694.514 313.822 695.051L313.269 694.715C313.231 694.692 313.196 694.664 313.164 694.631C313.136 694.603 313.115 694.568 313.101 694.526C313.087 694.489 313.084 694.442 313.094 694.386C313.103 694.33 313.126 694.267 313.164 694.197C313.654 693.348 314.025 692.452 314.277 691.509C314.533 690.566 314.662 689.596 314.662 688.597Z" fill="white"/>
</svg>
