<svg width="21" height="21" viewBox="0 0 21 21" fill="none" xmlns="http://www.w3.org/2000/svg">
<path d="M9.15588 2.92139C9.81484 2.29394 10.7521 2.08201 11.6363 2.05559C12.5714 2.04719 13.5062 2.05227 14.4413 2.05264C14.445 3.03911 14.4453 4.02594 14.4409 5.01237C13.8366 5.0113 13.2319 5.01385 12.6275 5.0113C12.2443 4.98743 11.8508 5.2779 11.7812 5.65779C11.772 6.31786 11.7778 6.97829 11.7782 7.63839C12.6646 7.64205 13.5509 7.63729 14.4372 7.64061C14.3723 8.59549 14.2539 9.54603 14.1149 10.4929C13.332 10.5002 12.5487 10.4921 11.7658 10.4969C11.7588 13.3133 11.7694 16.1296 11.7603 18.946C10.5974 18.9507 9.43385 18.9437 8.27101 18.9492C8.24899 16.1325 8.27282 13.3144 8.25891 10.4973C7.69158 10.4914 7.12393 10.5014 6.55664 10.4925C6.55881 9.5457 6.55738 8.5989 6.55771 7.65238C7.12462 7.64545 7.69195 7.65386 8.25891 7.64836C8.27614 6.72789 8.24164 5.80635 8.27688 4.88666C8.33372 4.1583 8.61132 3.42449 9.15588 2.92139Z" fill="black"/>
</svg>
