<svg width="55" height="51" viewBox="0 0 55 51" fill="none" xmlns="http://www.w3.org/2000/svg">
<path d="M10.3125 9.56233C18.3305 5.84571 24.9219 10.3592 27.5 13.5467C30.0781 10.3592 36.6695 5.84571 44.6875 9.56233C55 14.3436 52.4219 26.2967 44.6875 33.4686C40.9131 36.9685 34.2667 43.1315 29.4061 46.5596C28.8631 46.9421 28.197 47.1437 27.5153 47.1318C26.8335 47.12 26.176 46.8954 25.6489 46.4943C21.1922 43.1586 14.0336 36.9191 10.3125 33.4686C2.57813 26.2967 4.29153e-06 14.3436 10.3125 9.56233Z" fill="#F8312F"/>
<path d="M27.5 13.5468V18.4078C29.6828 14.1286 35.1055 8.41496 44.0997 9.30268C36.3481 6.06736 30.0145 10.4374 27.5 13.5468ZM20.5322 8.82455C17.6344 7.88902 14.1367 7.78861 10.3125 9.56246C4.05312e-06 14.3437 2.57813 26.2968 10.3125 33.4687C14.0336 36.9192 21.1922 43.1587 25.6489 46.4944C26.1762 46.8953 26.8338 47.1196 27.5156 47.1311C28.1973 47.1427 28.8633 46.9408 29.4061 46.5582C29.8427 46.2506 30.293 45.9207 30.7553 45.5732C25.85 42.1578 18.9647 36.7773 15.2264 33.6807C6.70657 26.6188 3.86547 14.8505 15.2264 10.1426C16.9043 9.43441 18.6972 8.98903 20.5322 8.82455Z" fill="#CA0B4A" fill-opacity="0.34"/>
<path d="M36.2424 26.6706C38.5738 27.9187 42.3032 25.9761 44.5724 22.3316C46.8416 18.6872 46.7911 14.721 44.4597 13.4728C42.1284 12.2247 38.3989 14.1673 36.1297 17.8118C33.8606 21.4562 33.911 25.4224 36.2424 26.6706Z" fill="#F37366"/>
</svg>
