<svg width="300" height="138" viewBox="0 0 300 138" fill="none" xmlns="http://www.w3.org/2000/svg">
<g clip-path="url(#clip0_26_849)">
<path opacity="0.1" d="M174.939 72.5477C168.419 69.5091 162.978 64.5657 159.337 58.3722C151.491 54.7477 142.713 53.638 134.21 55.1958C125.707 56.7537 117.896 60.9025 111.852 67.0716C105.809 73.2408 101.829 81.1271 100.46 89.6459C99.0915 98.1647 100.401 106.897 104.21 114.643C108.018 122.388 114.137 128.766 121.726 132.899C129.315 137.031 138.001 138.716 146.588 137.721C155.176 136.725 163.244 133.099 169.682 127.341C176.12 121.583 180.612 113.975 182.54 105.565C177.485 96.3667 174.844 86.042 174.862 75.5513C174.846 74.5399 174.885 73.5591 174.939 72.5477Z" fill="#41B186"/>
<path opacity="0.1" d="M237.423 138C271.983 138 300 110.041 300 75.5513C300 41.0619 271.983 13.1027 237.423 13.1027C202.863 13.1027 174.846 41.0619 174.846 75.5513C174.846 110.041 202.863 138 237.423 138Z" fill="#435168"/>
<path opacity="0.1" d="M189.857 75.8349C209.389 75.8349 225.223 60.0337 225.223 40.5418C225.223 21.05 209.389 5.24878 189.857 5.24878C170.325 5.24878 154.492 21.05 154.492 40.5418C154.492 60.0337 170.325 75.8349 189.857 75.8349Z" fill="#435168"/>
<path d="M217.376 107.588C220.27 104.921 221.391 100.607 218.796 93.9871C215.724 93.4613 212.826 92.1992 210.35 90.3092C210.588 91.4815 213.022 104.247 206.511 110.913C209.335 110.67 212.116 110.07 214.788 109.128C215.732 108.766 216.607 108.245 217.376 107.588ZM262.093 103.55C257.824 94.1327 254.684 86.7308 256.25 68.1188C257.816 49.5068 258.968 40.1357 249.524 27.2935C240.08 14.4513 212.439 12.4744 199.931 26.5273C187.423 40.5801 197.712 55.2613 197.712 55.2613H197.773C197.663 52.1547 197.719 49.0444 197.942 45.9438C202.92 45.5434 207.754 44.0791 212.115 41.6505C216.476 39.2218 220.263 35.8856 223.219 31.868C223.219 31.868 224.908 40.8943 229.515 46.1124C232.806 49.6519 236.501 52.7945 240.525 55.4758C240.018 52.725 247.904 48.3345 249.286 55.8666C250.783 63.9735 246.138 66.2492 246.138 66.2492C244.487 73.0764 241.723 80.938 237.193 86.6005L237.154 86.8687C237.154 86.8687 234.006 105.259 240.863 105.596C247.72 105.933 258.615 105.144 259.736 113.779C260.757 121.625 261.118 123.618 261.172 123.916L261.21 123.955C265.302 116.568 264.128 108.04 262.093 103.55Z" fill="#435168"/>
<path d="M220.071 121.717C232.432 119.135 237.377 113.197 240.863 105.573C234.007 105.236 237.155 86.8457 237.155 86.8457L237.193 86.5776C241.723 80.915 244.487 73.0534 246.138 66.2262C246.138 66.2262 250.783 63.9275 249.286 55.8436C247.904 48.3115 240.018 52.7021 240.525 55.4529C236.501 52.7715 232.806 49.6289 229.515 46.0894C224.908 40.8713 223.219 31.845 223.219 31.845C220.263 35.8626 216.476 39.1989 212.115 41.6275C207.754 44.0562 202.92 45.5204 197.942 45.9208C197.942 45.9208 194.103 89.6579 218.796 93.9871C221.391 100.607 220.27 104.921 217.376 107.588C216.593 108.247 215.702 108.765 214.742 109.12L214.681 109.266C214.681 109.266 207.717 124.3 220.071 121.717Z" fill="#FBDCBD"/>
<path d="M250.837 15.2482C252.833 16.0911 259.521 10.7657 259.521 10.7657L250.13 24.2056C250.13 24.2056 248.226 21.654 241.592 18.658L241.508 18.6197C234.874 15.6237 231.695 15.8842 231.695 15.8842L235.634 0C235.634 0 236.033 8.47462 237.938 9.44009C239.842 10.4056 248.073 4.18368 248.073 4.18368C248.073 4.18368 248.833 14.436 250.837 15.2482Z" fill="#FAD731"/>
<path d="M214.988 84.1026C214.759 84.1015 214.531 84.0887 214.304 84.0643C213.231 83.9103 212.203 83.5291 211.289 82.9464C210.376 82.3636 209.597 81.5926 209.006 80.6852C208.975 80.6364 208.954 80.5821 208.944 80.5252C208.935 80.4683 208.936 80.41 208.949 80.3537C208.962 80.2974 208.986 80.2442 209.019 80.1972C209.053 80.1502 209.095 80.1103 209.145 80.0798C209.245 80.02 209.364 80.0017 209.478 80.0289C209.591 80.0561 209.689 80.1267 209.751 80.2254C210.28 81.0137 210.966 81.6846 211.767 82.1962C212.568 82.7077 213.465 83.0489 214.404 83.1984C216.853 83.4513 219.518 82.0874 222.32 79.145C222.357 79.0954 222.404 79.0543 222.458 79.0242C222.512 78.9941 222.572 78.9759 222.634 78.9706C222.696 78.9654 222.758 78.9732 222.816 78.9937C222.875 79.0141 222.928 79.0467 222.973 79.0893C223.018 79.1319 223.053 79.1835 223.077 79.2407C223.1 79.2979 223.111 79.3594 223.109 79.4212C223.107 79.4829 223.091 79.5435 223.064 79.5989C223.036 79.6544 222.998 79.7034 222.95 79.7427C220.224 82.6391 217.544 84.1026 214.988 84.1026ZM208.277 69.0076C208.167 69.0081 208.061 68.9673 207.98 68.8935C207.899 68.8198 207.849 68.7183 207.839 68.6092C207.769 67.5104 208.096 66.4228 208.761 65.5442C209.458 64.8389 210.39 64.4134 211.381 64.3485C212.372 64.2835 213.352 64.5836 214.135 65.1918C214.967 66.0057 215.47 67.0966 215.548 68.2567C215.559 68.3174 215.557 68.3797 215.542 68.4396C215.527 68.4994 215.5 68.5555 215.462 68.604C215.424 68.6526 215.376 68.6925 215.321 68.7212C215.266 68.7499 215.206 68.7667 215.145 68.7705C215.083 68.7743 215.021 68.765 214.963 68.7433C214.905 68.7216 214.853 68.6879 214.809 68.6444C214.765 68.6009 214.731 68.5487 214.709 68.4911C214.687 68.4335 214.677 68.3719 214.681 68.3104C214.681 68.1801 214.45 65.0538 211.433 65.2454C211.051 65.2494 210.675 65.3309 210.327 65.4851C209.978 65.6392 209.665 65.8627 209.406 66.1419C208.888 66.8448 208.638 67.7084 208.699 68.5785C208.706 68.6365 208.7 68.6952 208.683 68.7511C208.667 68.807 208.639 68.859 208.602 68.904C208.565 68.949 208.519 68.9861 208.467 69.0131C208.415 69.0401 208.358 69.0565 208.3 69.0613L208.277 69.0076ZM200.522 57.4681C200.414 57.4687 200.309 57.429 200.228 57.3568C200.147 57.2846 200.096 57.185 200.084 57.0773C200.084 56.97 199.846 54.3878 201.205 52.9013C201.518 52.5647 201.901 52.3 202.326 52.1253C202.752 51.9507 203.21 51.8704 203.67 51.8898C206.864 51.8898 207.701 54.8858 207.701 56.4873C207.702 56.5449 207.692 56.6022 207.67 56.6556C207.648 56.7091 207.616 56.7576 207.575 56.7984C207.534 56.8392 207.486 56.8713 207.432 56.8929C207.379 56.9145 207.321 56.9251 207.263 56.924C207.147 56.924 207.036 56.878 206.954 56.7961C206.872 56.7142 206.826 56.6031 206.826 56.4873C206.826 56.3417 206.78 52.7787 203.67 52.7787C203.329 52.7637 202.988 52.8247 202.674 52.9573C202.359 53.0898 202.078 53.2905 201.85 53.5449C200.76 54.7402 200.96 57.0236 200.96 57.0466C200.97 57.1613 200.935 57.2756 200.862 57.3646C200.789 57.4536 200.683 57.5101 200.568 57.5217L200.522 57.4681ZM220.078 55.9969C220.021 55.994 219.965 55.9797 219.913 55.9549C219.862 55.9301 219.816 55.8952 219.778 55.8524C219.74 55.8096 219.711 55.7596 219.693 55.7055C219.674 55.6514 219.667 55.5941 219.671 55.5371C219.671 55.4758 220.078 49.9666 224.9 49.9666H225.061C230.037 50.0892 230.091 55.177 230.091 55.223C230.092 55.2806 230.081 55.3379 230.059 55.3913C230.038 55.4448 230.006 55.4934 229.965 55.5341C229.924 55.5749 229.875 55.607 229.822 55.6286C229.768 55.6502 229.711 55.6608 229.653 55.6597C229.537 55.6597 229.425 55.6137 229.343 55.5318C229.261 55.4499 229.215 55.3388 229.215 55.223C229.215 55.0544 229.154 50.9397 225.038 50.8401H224.908C220.907 50.8401 220.554 55.3915 220.539 55.5908C220.531 55.7053 220.478 55.8121 220.392 55.8881C220.306 55.9641 220.193 56.0032 220.078 55.9969Z" fill="#435168"/>
<path opacity="0.5" d="M246.706 63.077C246.643 63.0781 246.581 63.0593 246.53 63.0233C246.454 62.9772 246.399 62.9031 246.377 62.817C246.356 62.731 246.369 62.6399 246.414 62.5636C246.979 61.6471 247.317 60.6091 247.398 59.5361C247.48 58.4632 247.303 57.3863 246.883 56.3953C246.724 55.9754 246.462 55.6019 246.121 55.3088C245.781 55.0157 245.372 54.8124 244.933 54.7173C242.752 54.4338 242.291 56.7555 242.276 56.8551C242.26 56.9435 242.209 57.0218 242.135 57.0728C242.06 57.1238 241.969 57.1434 241.88 57.1271C241.792 57.1108 241.713 57.0601 241.662 56.9861C241.611 56.9121 241.592 56.8209 241.608 56.7325C241.655 56.3324 241.782 55.9455 241.979 55.5941C242.177 55.2427 242.442 54.9336 242.759 54.6845C243.076 54.4355 243.44 54.2513 243.829 54.1425C244.217 54.0337 244.624 54.0025 245.025 54.0506C245.579 54.155 246.097 54.3983 246.531 54.7575C246.964 55.1167 247.3 55.5801 247.505 56.1042C247.98 57.1939 248.182 58.3825 248.095 59.5677C248.008 60.7528 247.634 61.8993 247.006 62.9084C246.975 62.9607 246.932 63.0039 246.879 63.0335C246.826 63.0632 246.767 63.0782 246.706 63.077Z" fill="#435168"/>
<path d="M259.736 113.756C258.615 105.121 247.712 105.91 240.863 105.573C237.377 113.197 232.417 119.135 220.071 121.717C207.724 124.3 214.696 109.274 214.696 109.274L214.757 109.128C212.085 110.07 209.304 110.67 206.48 110.913C203.102 115.511 200.031 121.327 201.006 126.33C209.751 132.572 219.958 136.463 230.646 137.629C241.333 138.796 252.142 137.198 262.032 132.989L261.195 123.939C261.195 123.939 260.857 122.392 259.736 113.756ZM253.693 26.0522C253.762 25.8607 253.977 25.0178 254.069 24.6653C254.073 24.6554 254.08 24.6468 254.089 24.6408C254.098 24.6348 254.109 24.6316 254.119 24.6316C254.13 24.6316 254.141 24.6348 254.15 24.6408C254.158 24.6468 254.165 24.6554 254.169 24.6653L254.638 25.9066C254.64 25.9175 254.645 25.9273 254.654 25.9343C254.662 25.9413 254.673 25.9451 254.684 25.9449L256.534 26.0522C256.542 26.057 256.549 26.0637 256.553 26.0718C256.558 26.0798 256.56 26.0889 256.56 26.0982C256.56 26.1074 256.558 26.1165 256.553 26.1246C256.549 26.1327 256.542 26.1394 256.534 26.1442L255.175 27.1479C255.17 27.1573 255.167 27.1678 255.167 27.1786C255.167 27.1894 255.17 27.1999 255.175 27.2092L255.705 28.259C255.705 28.305 255.705 28.3509 255.636 28.328L254.208 27.7226C254.201 27.7186 254.193 27.7165 254.185 27.7165C254.177 27.7165 254.169 27.7186 254.162 27.7226L252.549 28.4889C252.511 28.4889 252.465 28.4889 252.48 28.4199L253.079 27.0253V26.9717L251.881 25.8683C251.874 25.8608 251.868 25.8512 251.866 25.8407C251.864 25.8302 251.865 25.8193 251.869 25.8094C251.873 25.7995 251.88 25.791 251.889 25.7852C251.898 25.7793 251.909 25.7762 251.92 25.7764L253.624 26.0829C253.637 26.0879 253.652 26.0875 253.665 26.0817C253.678 26.076 253.688 26.0654 253.693 26.0522ZM255.835 19.4702L256.749 19.6618C256.756 19.6652 256.764 19.6669 256.772 19.6669C256.78 19.6669 256.788 19.6652 256.795 19.6618L257.225 18.7116H257.294L257.571 19.8916L258.684 20.1138C258.694 20.1138 258.704 20.1179 258.711 20.1251C258.718 20.1323 258.722 20.142 258.722 20.1522C258.722 20.1623 258.718 20.1721 258.711 20.1792C258.704 20.1864 258.694 20.1905 258.684 20.1905L257.548 20.7575C257.544 20.7633 257.543 20.7699 257.543 20.7766C257.543 20.7834 257.544 20.79 257.548 20.7958L257.671 22.0524H257.601L256.872 20.9031H256.826L255.605 21.4548V21.3935L256.457 20.3974C256.461 20.3904 256.464 20.3824 256.464 20.3744C256.464 20.3663 256.461 20.3584 256.457 20.3514L255.835 19.5851V19.4702ZM227.273 12.7962L226.651 14.7425C226.648 14.7516 226.647 14.7615 226.65 14.7708C226.653 14.7801 226.658 14.7883 226.666 14.7943C226.674 14.8002 226.683 14.8036 226.693 14.8039C226.702 14.8043 226.712 14.8015 226.72 14.7961L228.317 13.6085C228.325 13.6028 228.334 13.5998 228.344 13.5998C228.354 13.5998 228.363 13.6028 228.371 13.6085L229.906 14.4973C229.914 14.5027 229.924 14.5054 229.934 14.5051C229.943 14.5048 229.953 14.5014 229.96 14.4955C229.968 14.4895 229.974 14.4813 229.976 14.472C229.979 14.4627 229.979 14.4528 229.975 14.4437L229.3 12.3595V12.3212L230.167 10.7887C230.173 10.7807 230.176 10.7711 230.175 10.7614C230.175 10.7518 230.172 10.7424 230.166 10.7348C230.16 10.7271 230.151 10.7216 230.142 10.7189C230.133 10.7162 230.123 10.7165 230.114 10.7197L228.778 11.2484C228.77 11.2541 228.76 11.2571 228.751 11.2571C228.741 11.2571 228.732 11.2541 228.724 11.2484L227.672 9.71596C227.668 9.70775 227.663 9.70077 227.655 9.69587C227.648 9.69097 227.639 9.68835 227.63 9.68835C227.621 9.68835 227.612 9.69097 227.605 9.69587C227.597 9.70077 227.591 9.70775 227.588 9.71596L227.388 11.4936C227.385 11.5045 227.379 11.5144 227.371 11.5224C227.363 11.5304 227.353 11.5363 227.342 11.5396L225.906 11.6775C225.898 11.6811 225.891 11.687 225.886 11.6945C225.881 11.702 225.878 11.7107 225.878 11.7197C225.878 11.7286 225.881 11.7374 225.886 11.7449C225.891 11.7524 225.898 11.7582 225.906 11.7618L227.273 12.7426C227.278 12.7508 227.28 12.76 227.28 12.7694C227.28 12.7788 227.278 12.7881 227.273 12.7962Z" fill="#F52E45"/>
<path opacity="0.38" d="M237.201 86.5853C233.047 91.7804 227.396 95.1365 219.741 94.1327C219.395 94.0868 219.126 94.0485 218.796 93.9872C219.207 95.0417 219.548 96.1218 219.817 97.2207C219.817 97.2207 231.987 98.3394 236.709 90.8839C236.782 89.5291 236.941 88.1803 237.185 86.8458L237.201 86.5853ZM246.138 66.2262C245.842 66.4686 245.501 66.65 245.135 66.76C244.769 66.8701 244.384 66.9066 244.004 66.8674C243.623 66.8282 243.254 66.7141 242.918 66.5317C242.582 66.3493 242.285 66.1023 242.046 65.8048C242.069 66.2251 242.182 66.6355 242.377 67.0086C242.572 67.3817 242.845 67.7088 243.177 67.9679C243.51 68.227 243.894 68.4122 244.304 68.5109C244.714 68.6096 245.14 68.6196 245.554 68.5403C245.554 68.5403 245.708 67.9426 245.877 67.3143C246.046 66.686 246.138 66.2262 246.138 66.2262Z" fill="#435168"/>
<path opacity="0.1" d="M94.2184 138C132.116 138 162.838 107.341 162.838 69.5211C162.838 31.7012 132.116 1.04211 94.2184 1.04211C56.3209 1.04211 25.5989 31.7012 25.5989 69.5211C25.5989 107.341 56.3209 138 94.2184 138Z" fill="#41B186"/>
<path d="M151.259 11.1565C151.021 10.85 149.87 9.68532 149.386 9.18726C149.368 9.1742 149.356 9.15529 149.351 9.13394C149.346 9.11259 149.349 9.0902 149.359 9.0708C149.369 9.05139 149.386 9.03626 149.406 9.02811C149.427 9.01996 149.449 9.01934 149.47 9.02635L151.935 9.4861C151.954 9.49016 151.975 9.48787 151.992 9.47959C152.01 9.47131 152.025 9.45747 152.035 9.44012L154.008 6.55906C154.019 6.54119 154.036 6.52731 154.055 6.51942C154.075 6.51153 154.096 6.51003 154.117 6.51514C154.137 6.52025 154.156 6.5317 154.169 6.54785C154.183 6.564 154.191 6.58402 154.192 6.60503L154.492 9.76961C154.493 9.79224 154.502 9.81369 154.518 9.83041C154.533 9.84713 154.554 9.85812 154.576 9.86156L156.78 10.0378C156.8 10.0397 156.818 10.0473 156.834 10.0598C156.849 10.0723 156.86 10.0891 156.866 10.1079C156.872 10.1268 156.872 10.147 156.866 10.1659C156.86 10.1848 156.849 10.2015 156.834 10.214L154.453 11.9151C154.442 11.9226 154.432 11.9328 154.426 11.9448C154.419 11.9568 154.415 11.9703 154.415 11.984L154.108 15.3402C154.106 15.3598 154.098 15.3785 154.086 15.3938C154.073 15.409 154.056 15.4203 154.038 15.426C154.019 15.4318 153.998 15.4318 153.98 15.426C153.961 15.4203 153.944 15.4091 153.931 15.3938L152.265 13.0951C152.252 13.0799 152.235 13.0684 152.216 13.0617C152.198 13.055 152.177 13.0533 152.158 13.0568L149.209 13.915C149.189 13.9199 149.167 13.9182 149.148 13.9103C149.128 13.9023 149.112 13.8884 149.101 13.8706C149.09 13.8527 149.085 13.8319 149.086 13.8109C149.088 13.79 149.096 13.7701 149.109 13.7541L151.259 11.3098C151.272 11.3014 151.282 11.29 151.29 11.2766C151.297 11.2632 151.3 11.2483 151.3 11.2331C151.3 11.218 151.297 11.203 151.29 11.1896C151.282 11.1763 151.272 11.1649 151.259 11.1565ZM161.709 3.14928L163.398 3.50176C163.414 3.50494 163.43 3.5029 163.443 3.49594C163.457 3.48899 163.469 3.47753 163.475 3.46344L164.243 1.70875C164.249 1.6958 164.259 1.68487 164.271 1.67723C164.284 1.66958 164.298 1.66553 164.312 1.66553C164.327 1.66553 164.341 1.66958 164.353 1.67723C164.365 1.68487 164.375 1.6958 164.381 1.70875L164.888 3.88488C164.891 3.8977 164.898 3.90939 164.908 3.9188C164.917 3.9282 164.929 3.935 164.942 3.93851L166.999 4.35228C167.012 4.35856 167.023 4.36835 167.031 4.38055C167.039 4.39275 167.043 4.40685 167.043 4.42124C167.043 4.43564 167.039 4.44974 167.031 4.46194C167.023 4.47414 167.012 4.48393 166.999 4.49021L164.896 5.53996C164.882 5.5451 164.871 5.55484 164.864 5.56746C164.857 5.58007 164.854 5.59475 164.857 5.60892L165.088 7.90764C165.094 7.92491 165.093 7.9439 165.085 7.96043C165.077 7.97695 165.063 7.98966 165.045 7.99576C165.028 8.00186 165.009 8.00084 164.992 7.99294C164.976 7.98503 164.963 7.97089 164.957 7.95362L163.613 5.83113C163.601 5.82181 163.586 5.81675 163.571 5.81675C163.556 5.81675 163.541 5.82181 163.529 5.83113L161.225 6.76594C161.211 6.76984 161.195 6.76918 161.18 6.76404C161.166 6.75891 161.153 6.74953 161.144 6.73714C161.135 6.72474 161.13 6.7099 161.129 6.69454C161.129 6.67918 161.133 6.66401 161.141 6.65101L162.677 4.82735C162.688 4.81471 162.694 4.79834 162.694 4.78138C162.694 4.76442 162.688 4.74805 162.677 4.7354L161.533 3.26422C161.525 3.25265 161.52 3.2397 161.517 3.22613C161.515 3.21255 161.515 3.1986 161.518 3.18508C161.521 3.17156 161.526 3.15874 161.534 3.14733C161.542 3.13593 161.552 3.12618 161.563 3.11864C161.575 3.11109 161.588 3.10589 161.602 3.10335C161.615 3.10081 161.629 3.10096 161.643 3.10381C161.656 3.10665 161.669 3.11214 161.68 3.11994C161.692 3.12774 161.702 3.13771 161.709 3.14928ZM120.547 20.0296L119.51 23.2631C119.506 23.278 119.507 23.2937 119.512 23.3082C119.517 23.3226 119.527 23.3353 119.539 23.3443C119.551 23.3534 119.566 23.3586 119.582 23.3591C119.597 23.3597 119.612 23.3556 119.625 23.3474L122.282 21.3782C122.296 21.3693 122.312 21.3645 122.328 21.3645C122.344 21.3645 122.36 21.3693 122.374 21.3782L124.87 22.857C124.883 22.8666 124.899 22.8715 124.916 22.871C124.933 22.8705 124.949 22.8646 124.962 22.8542C124.975 22.8438 124.984 22.8295 124.988 22.8135C124.992 22.7974 124.991 22.7804 124.985 22.7651L123.856 19.3016C123.852 19.2814 123.852 19.2605 123.856 19.2403L125.3 16.6351C125.306 16.6216 125.309 16.6064 125.307 16.5915C125.305 16.5765 125.299 16.5624 125.289 16.5509C125.279 16.5395 125.266 16.5312 125.252 16.5271C125.237 16.523 125.222 16.5232 125.207 16.5279L122.988 17.4014C122.975 17.4113 122.959 17.4167 122.942 17.4167C122.926 17.4167 122.91 17.4113 122.896 17.4014L121.153 14.8651C121.148 14.8498 121.139 14.8364 121.125 14.827C121.112 14.8175 121.097 14.8124 121.08 14.8124C121.064 14.8124 121.048 14.8175 121.035 14.827C121.022 14.8364 121.012 14.8498 121.007 14.8651L120.67 17.8305C120.67 17.8688 120.67 17.8918 120.6 17.8994L118.22 18.1293C118.202 18.1281 118.185 18.1331 118.17 18.1435C118.156 18.1539 118.145 18.169 118.141 18.1862C118.136 18.2035 118.138 18.2218 118.145 18.238C118.153 18.2541 118.166 18.2672 118.182 18.2749L120.547 19.9223C120.555 19.9288 120.561 19.9369 120.566 19.9462C120.57 19.9555 120.572 19.9657 120.572 19.9759C120.572 19.9862 120.57 19.9964 120.566 20.0057C120.561 20.0149 120.555 20.0231 120.547 20.0296Z" fill="#00C78C"/>
<path d="M181.972 29.9524H169.848C169.848 29.9524 166.308 9.66235 137.439 19.363C124.593 23.6846 120.593 31.6228 121.491 39.9059L121.138 39.9978C121.138 39.9978 109.744 49.959 105.62 52.1504C101.497 54.3419 89.3198 52.7328 60.2504 51.5604C31.1809 50.3881 26.8735 62.9314 26.8735 62.9314C26.8735 62.9314 13.2064 59.0006 24.9924 46.1661C27.6477 43.1548 30.8328 40.654 34.3904 38.7872C37.3926 37.293 36.379 32.7339 33.0314 32.7875C28.8341 32.9254 24.7036 33.8752 20.8692 35.5843C3.97732 42.741 -12.7149 78.9995 14.0971 78.3175C18.0129 78.2179 21.1303 76.3253 23.5873 73.1761C23.5873 73.1761 29.1693 73.5362 23.3492 85.888C17.5292 98.2398 10.3655 108.806 21.7522 138H41.3929C41.3929 138 45.9997 129.84 30.129 126.315C30.4548 119.824 32.9314 113.625 37.1699 108.691C44.3413 100.163 51.8044 95.6652 66.8305 95.8491C81.8566 96.033 89.0971 106.73 93.4429 115.771C97.7887 124.813 106.895 137.992 129.676 137.992H140.779C140.779 137.992 141.854 125.541 128.11 126.131C128.11 126.131 127.127 104.033 137.585 93.4508C148.042 82.869 152.319 78.9229 159.705 61.5598C159.705 61.5598 189.013 63.9505 184.513 32.1439C184.428 31.5333 184.123 30.9745 183.655 30.5714C183.188 30.1683 182.59 29.9483 181.972 29.9524Z" fill="#B57E55"/>
<path d="M142.307 8.63549C143.988 8.04548 144.994 0.520996 144.994 0.520996L146.998 15.2481C146.998 15.2481 144.387 14.5815 138.644 16.3592H138.575C132.832 18.1292 131.05 20.1521 131.05 20.1521L124.386 6.89612C124.386 6.89612 129.476 12.528 131.196 12.0759C132.916 11.6238 134.367 2.5592 134.367 2.5592C134.367 2.5592 140.625 9.23316 142.307 8.63549Z" fill="#FAD731"/>
<path d="M165.08 36.5191C164.923 36.5191 164.773 36.4569 164.662 36.3463C164.551 36.2356 164.489 36.0856 164.489 35.9291C164.506 35.6371 164.464 35.3445 164.364 35.0695C164.264 34.7945 164.109 34.5428 163.908 34.3298C163.707 34.1169 163.464 33.9472 163.195 33.8312C162.926 33.7153 162.636 33.6554 162.343 33.6554C162.05 33.6554 161.759 33.7153 161.49 33.8312C161.221 33.9472 160.979 34.1169 160.778 34.3298C160.577 34.5428 160.422 34.7945 160.322 35.0695C160.222 35.3445 160.179 35.6371 160.197 35.9291C160.206 36.0117 160.198 36.0953 160.173 36.1746C160.148 36.2539 160.106 36.3269 160.05 36.3889C159.995 36.451 159.927 36.5006 159.851 36.5346C159.775 36.5686 159.693 36.5862 159.609 36.5862C159.526 36.5862 159.444 36.5686 159.368 36.5346C159.292 36.5006 159.224 36.451 159.168 36.3889C159.113 36.3269 159.071 36.2539 159.046 36.1746C159.021 36.0953 159.012 36.0117 159.022 35.9291C159.022 35.0491 159.372 34.2052 159.996 33.583C160.619 32.9608 161.465 32.6112 162.347 32.6112C163.228 32.6112 164.074 32.9608 164.697 33.583C165.321 34.2052 165.671 35.0491 165.671 35.9291C165.669 36.0849 165.606 36.2339 165.496 36.3441C165.385 36.4543 165.236 36.5171 165.08 36.5191ZM184.82 37.1551H184.913C184.86 35.4781 184.716 33.8053 184.483 32.1438C184.398 31.5385 184.097 30.9838 183.636 30.5814C183.175 30.179 182.584 29.9557 181.972 29.9524H177.257C177.257 29.9524 176.774 37.1551 184.82 37.1551ZM136.671 128.276V138H137.846V129.311C137.486 128.931 137.093 128.585 136.671 128.276ZM132.832 138H134.007V126.89C133.621 126.752 133.229 126.634 132.832 126.537V138ZM37.6229 138H38.7977V129.778C38.4196 129.503 38.0275 129.247 37.6229 129.012V138ZM33.7378 138H34.9202V127.74C34.544 127.594 34.1524 127.449 33.7378 127.311V138Z" fill="#435168"/>
<path opacity="0.38" d="M154.599 34.0747C150.484 63.1918 140.088 65.82 140.088 65.82C131.342 61.0081 122.612 50.2117 121.499 39.9058L121.146 39.9977C121.146 39.9977 120.455 40.7103 117.483 43.1776C122.727 55.8666 129.983 69.5057 140.172 70.6704C153.064 72.1415 155.528 43.2696 155.137 34.0823C155.137 34.0471 155.131 34.0122 155.118 33.9794C155.105 33.9467 155.085 33.9168 155.061 33.8916C155.036 33.8663 155.007 33.8462 154.974 33.8322C154.942 33.8183 154.907 33.8108 154.872 33.8103C154.837 33.8098 154.801 33.8163 154.769 33.8293C154.736 33.8423 154.706 33.8616 154.681 33.8862C154.655 33.9107 154.635 33.94 154.621 33.9723C154.607 34.0047 154.6 34.0395 154.599 34.0747Z" fill="#435168"/>
</g>
<defs>
<clipPath id="clip0_26_849">
<rect width="300" height="138" fill="white"/>
</clipPath>
</defs>
</svg>
