<svg width="47" height="340" viewBox="0 0 47 340" fill="none" xmlns="http://www.w3.org/2000/svg">
<g clip-path="url(#clip0_349_489)">
<path fill-rule="evenodd" clip-rule="evenodd" d="M46.06 315.567C46.06 313.795 45.9104 312.09 45.6328 310.454H23.5V320.124H36.1472C35.6025 323.249 33.9468 325.897 31.4579 327.67V333.942H39.0528C43.4964 329.59 46.06 323.181 46.06 315.567Z" fill="#4285F4"/>
<path fill-rule="evenodd" clip-rule="evenodd" d="M23.4994 340C29.8445 340 35.1638 337.761 39.052 333.943L31.4573 327.67C29.3531 329.17 26.6613 330.057 23.4994 330.057C17.3787 330.057 12.198 325.659 10.35 319.75H2.4989V326.227C6.36572 334.397 14.313 340 23.4994 340Z" fill="#34A853"/>
<path fill-rule="evenodd" clip-rule="evenodd" d="M10.3507 319.749C9.88068 318.249 9.61364 316.647 9.61364 314.999C9.61364 313.352 9.88068 311.749 10.3507 310.249V303.772H2.49955C0.907954 307.147 0 310.965 0 314.999C0 319.034 0.907954 322.852 2.49955 326.227L10.3507 319.749Z" fill="#FBBC05"/>
<path fill-rule="evenodd" clip-rule="evenodd" d="M23.4994 299.943C26.9495 299.943 30.0473 301.205 32.4827 303.682L39.223 296.511C35.1531 292.477 29.8338 290 23.4994 290C14.313 290 6.36572 295.602 2.4989 303.773L10.35 310.25C12.198 304.341 17.3787 299.943 23.4994 299.943Z" fill="#EA4335"/>
</g>
<defs>
<clipPath id="clip0_349_489">
<rect width="47" height="50" fill="white" transform="translate(0 290)"/>
</clipPath>
</defs>
</svg>
