<svg width="59" height="345" viewBox="0 0 59 345" fill="none" xmlns="http://www.w3.org/2000/svg">
<g clip-path="url(#clip0_349_483)">
<path d="M58.3784 315.183C58.3784 298.514 45.3098 285 29.1892 285C13.0685 285 0 298.513 0 315.183C0 330.249 10.6741 342.736 24.6284 345V323.908H17.2171V315.183H24.6284V308.534C24.6284 300.969 28.9862 296.79 35.6535 296.79C38.8472 296.79 42.1875 297.38 42.1875 297.38V304.808H38.5069C34.8806 304.808 33.75 307.135 33.75 309.522V315.183H41.8454L40.5513 323.908H33.75V345C47.7043 342.736 58.3784 330.249 58.3784 315.183Z" fill="#1877F2"/>
</g>
<defs>
<clipPath id="clip0_349_483">
<rect width="58.3784" height="523" fill="white" transform="translate(0 -178)"/>
</clipPath>
</defs>
</svg>
