<svg width="292" height="181" viewBox="0 0 292 181" fill="none" xmlns="http://www.w3.org/2000/svg">
<g clip-path="url(#clip0_26_818)">
<path fill-rule="evenodd" clip-rule="evenodd" d="M161.536 69.77C161.15 64.759 156.742 60.974 151.742 61.362L130.529 63.009C125.529 63.397 121.756 67.815 122.142 72.828L161.536 69.771V69.77Z" fill="#425168"/>
<path fill-rule="evenodd" clip-rule="evenodd" d="M161.536 69.77L122.142 72.828L125.628 117.978L165.022 114.921L161.536 69.77Z" fill="#F2F3F4"/>
<path fill-rule="evenodd" clip-rule="evenodd" d="M165.033 115.064L165.022 114.921L134.065 117.323C137.432 119.883 139.355 123.383 140.431 126.141L156.646 124.883C161.646 124.495 165.42 120.076 165.033 115.064Z" fill="#425168"/>
<path fill-rule="evenodd" clip-rule="evenodd" d="M161.102 123.296C159.789 124.21 158.255 124.758 156.66 124.883L140.445 126.141L140.442 126.135C140.169 125.439 139.864 124.755 139.529 124.086C139.501 124.03 139.476 123.975 139.447 123.919C139.269 123.571 139.077 123.219 138.872 122.865C138.84 122.807 138.802 122.75 138.768 122.692C138.335 121.959 137.857 121.253 137.338 120.578L137.278 120.498C137.006 120.152 136.716 119.812 136.413 119.476C136.345 119.402 136.274 119.329 136.205 119.256C135.955 118.99 135.695 118.729 135.425 118.474C135.342 118.397 135.262 118.319 135.178 118.243C134.828 117.927 134.465 117.617 134.078 117.323C132.423 116.065 130.545 115.133 128.543 114.575C128.543 114.575 131.512 98.098 123.456 95.056C122.611 94.737 121.71 95.3831 121.69 96.2871C121.578 101.157 121.517 110.97 119.94 115.709C119.009 118.513 121.767 124.093 123.56 127.272C123.979 128.089 124.45 128.879 124.97 129.635H124.973C129.309 135.882 135.083 136.505 135.083 136.505C138.709 153.925 138.857 165.864 136.863 173.891C138.945 177.107 143.551 181.381 152.935 180.011C157.905 159.395 153.841 135.399 153.841 135.399C159.125 132.942 160.857 128.087 161.102 123.296ZM160.49 102.166C160.569 102.672 160.747 103.158 161.014 103.595C161.281 104.032 161.632 104.413 162.046 104.715C162.46 105.016 162.929 105.234 163.427 105.354C163.925 105.474 164.442 105.496 164.948 105.416C165.97 105.252 166.886 104.69 167.493 103.851C168.101 103.013 168.351 101.968 168.188 100.945C168.109 100.439 167.931 99.9533 167.664 99.516C167.397 99.0787 167.046 98.6982 166.632 98.3964C166.218 98.0946 165.749 97.8773 165.251 97.757C164.753 97.6366 164.236 97.6156 163.73 97.695C162.708 97.859 161.792 98.4219 161.185 99.2602C160.578 100.098 160.328 101.144 160.49 102.166ZM160.791 112.476C160.867 112.963 161.039 113.43 161.296 113.851C161.553 114.272 161.89 114.637 162.288 114.928C162.687 115.218 163.139 115.427 163.618 115.542C164.097 115.658 164.594 115.678 165.081 115.601C166.064 115.444 166.945 114.902 167.529 114.096C168.113 113.29 168.354 112.284 168.197 111.301C168.121 110.814 167.95 110.347 167.693 109.926C167.436 109.506 167.099 109.14 166.7 108.849C166.302 108.559 165.85 108.35 165.371 108.235C164.892 108.119 164.395 108.099 163.908 108.176C162.925 108.334 162.044 108.875 161.46 109.681C160.875 110.487 160.635 111.493 160.791 112.476ZM157.476 91.471C157.561 92.0159 157.753 92.5387 158.041 93.0094C158.328 93.48 158.706 93.8894 159.151 94.2141C159.597 94.5388 160.103 94.7725 160.639 94.9017C161.175 95.0309 161.731 95.0531 162.276 94.9671C163.376 94.7911 164.361 94.1856 165.015 93.2837C165.669 92.3818 165.938 91.2572 165.763 90.157C165.678 89.6121 165.486 89.0893 165.199 88.6185C164.911 88.1477 164.534 87.7382 164.088 87.4133C163.642 87.0885 163.137 86.8547 162.601 86.7252C162.064 86.5958 161.508 86.5733 160.963 86.659C159.863 86.8355 158.878 87.4414 158.224 88.3436C157.57 89.2458 157.301 90.3706 157.476 91.471Z" fill="#FFD9B7"/>
<path opacity="0.38" fill-rule="evenodd" clip-rule="evenodd" d="M140.428 126.147C141.361 128.555 141.673 130.474 141.713 130.582L145.865 125.76L140.428 126.147Z" fill="#425168"/>
<path fill-rule="evenodd" clip-rule="evenodd" d="M191.628 0.969994C175.248 0.969994 161.97 14.28 161.97 30.701C161.97 37.961 164.569 44.611 168.881 49.774C166.005 51.959 165.326 56.834 167.724 59.592C168.939 57.249 170.329 54.749 172.464 53.384C172.894 53.749 173.337 54.098 173.788 54.44V17.963C173.789 17.183 174.099 16.4353 174.65 15.8831C175.201 15.3309 175.948 15.0192 176.728 15.016H207.5C208.28 15.0194 209.027 15.3313 209.577 15.8834C210.128 16.4356 210.438 17.1832 210.439 17.963V53.687C217.061 48.234 221.286 39.963 221.286 30.701C221.286 14.281 208.008 0.968994 191.628 0.968994" fill="#F62E45"/>
<path fill-rule="evenodd" clip-rule="evenodd" d="M206.115 33.572H178.112C177.904 33.572 177.705 33.4895 177.558 33.3427C177.412 33.1958 177.329 32.9967 177.329 32.789C177.329 32.5813 177.412 32.3822 177.558 32.2353C177.705 32.0885 177.904 32.006 178.112 32.006H206.115C206.323 32.006 206.522 32.0885 206.669 32.2353C206.816 32.3822 206.898 32.5813 206.898 32.789C206.898 32.9967 206.816 33.1958 206.669 33.3427C206.522 33.4895 206.323 33.572 206.115 33.572ZM206.115 51.792H178.112C177.904 51.792 177.705 51.7094 177.558 51.5625C177.411 51.4156 177.329 51.2163 177.329 51.0085C177.329 50.8007 177.411 50.6014 177.558 50.4545C177.705 50.3075 177.904 50.225 178.112 50.225H206.115C206.323 50.225 206.522 50.3075 206.669 50.4545C206.816 50.6014 206.899 50.8007 206.899 51.0085C206.899 51.2163 206.816 51.4156 206.669 51.5625C206.522 51.7094 206.323 51.792 206.115 51.792ZM177.331 38.862C177.331 38.429 177.681 38.078 178.111 38.078H202.801C203.009 38.078 203.208 38.1606 203.355 38.3076C203.502 38.4546 203.585 38.6541 203.585 38.862C203.585 39.0699 203.502 39.2693 203.355 39.4164C203.208 39.5634 203.009 39.646 202.801 39.646H178.111C177.904 39.6452 177.706 39.5624 177.559 39.4156C177.413 39.2688 177.331 39.0691 177.331 38.862ZM178.111 44.152H201.033C201.241 44.152 201.44 44.2345 201.587 44.3813C201.734 44.5282 201.816 44.7273 201.816 44.935C201.816 45.1427 201.734 45.3418 201.587 45.4887C201.44 45.6355 201.241 45.718 201.033 45.718H178.112C177.904 45.718 177.705 45.6355 177.558 45.4887C177.412 45.3418 177.329 45.1427 177.329 44.935C177.329 44.7273 177.412 44.5282 177.558 44.3813C177.705 44.2345 177.904 44.152 178.112 44.152M178.112 25.932H201.032C201.24 25.932 201.439 26.0145 201.586 26.1615C201.733 26.3084 201.816 26.5077 201.816 26.7155C201.816 26.9233 201.733 27.1226 201.586 27.2695C201.439 27.4164 201.24 27.499 201.032 27.499H178.112C177.904 27.499 177.705 27.4164 177.558 27.2695C177.411 27.1226 177.329 26.9233 177.329 26.7155C177.329 26.5077 177.411 26.3084 177.558 26.1615C177.705 26.0145 177.904 25.932 178.112 25.932ZM178.112 19.86H202.8C203.008 19.86 203.207 19.9425 203.354 20.0893C203.501 20.2362 203.583 20.4353 203.583 20.643C203.583 20.8507 203.501 21.0498 203.354 21.1967C203.207 21.3435 203.008 21.426 202.8 21.426H178.112C177.904 21.426 177.705 21.3435 177.558 21.1967C177.412 21.0498 177.329 20.8507 177.329 20.643C177.329 20.4353 177.412 20.2362 177.558 20.0893C177.705 19.9425 177.904 19.86 178.112 19.86ZM207.499 15.016H176.729C175.949 15.0189 175.202 15.3305 174.651 15.8827C174.1 16.4349 173.789 17.1828 173.788 17.963V54.452C178.369 57.9192 183.864 59.9714 189.596 60.356H193.66C199.813 59.9432 205.681 57.6111 210.439 53.688V17.963C210.438 17.183 210.128 16.4353 209.577 15.8831C209.026 15.3309 208.279 15.0192 207.499 15.016Z" fill="#F2F3F4"/>
<path fill-rule="evenodd" clip-rule="evenodd" d="M178.112 39.646H202.8C203.008 39.646 203.207 39.5634 203.354 39.4165C203.501 39.2696 203.584 39.0703 203.584 38.8625C203.584 38.6547 203.501 38.4554 203.354 38.3085C203.207 38.1615 203.008 38.079 202.8 38.079H178.112C177.904 38.079 177.705 38.1615 177.558 38.3085C177.411 38.4554 177.329 38.6547 177.329 38.8625C177.329 39.0703 177.411 39.2696 177.558 39.4165C177.705 39.5634 177.904 39.646 178.112 39.646ZM178.112 45.718H201.032C201.24 45.718 201.439 45.6355 201.586 45.4886C201.733 45.3418 201.815 45.1427 201.815 44.935C201.815 44.7273 201.733 44.5282 201.586 44.3813C201.439 44.2345 201.24 44.152 201.032 44.152H178.112C177.904 44.152 177.705 44.2345 177.558 44.3813C177.412 44.5282 177.329 44.7273 177.329 44.935C177.329 45.1427 177.412 45.3418 177.558 45.4886C177.705 45.6355 177.904 45.718 178.112 45.718ZM206.115 50.225H178.112C177.904 50.225 177.705 50.3075 177.558 50.4543C177.412 50.6012 177.329 50.8003 177.329 51.008C177.329 51.2156 177.412 51.4148 177.558 51.5616C177.705 51.7085 177.904 51.791 178.112 51.791H206.115C206.323 51.791 206.522 51.7085 206.669 51.5616C206.816 51.4148 206.898 51.2156 206.898 51.008C206.898 50.8003 206.816 50.6012 206.669 50.4543C206.522 50.3075 206.323 50.225 206.115 50.225ZM178.112 21.426H202.8C203.008 21.426 203.207 21.3435 203.354 21.1966C203.501 21.0498 203.583 20.8506 203.583 20.643C203.583 20.4353 203.501 20.2362 203.354 20.0893C203.207 19.9425 203.008 19.86 202.8 19.86H178.112C177.904 19.86 177.705 19.9425 177.558 20.0893C177.412 20.2362 177.329 20.4353 177.329 20.643C177.329 20.8506 177.412 21.0498 177.558 21.1966C177.705 21.3435 177.904 21.426 178.112 21.426ZM178.112 27.5H201.032C201.24 27.5 201.439 27.4174 201.586 27.2705C201.733 27.1236 201.816 26.9243 201.816 26.7165C201.816 26.5087 201.733 26.3094 201.586 26.1625C201.439 26.0155 201.24 25.933 201.032 25.933H178.112C177.904 25.933 177.705 26.0155 177.558 26.1623C177.412 26.3092 177.329 26.5083 177.329 26.716C177.329 26.9236 177.412 27.1228 177.558 27.2696C177.705 27.4165 177.904 27.5 178.112 27.5ZM206.115 32.005H178.112C177.904 32.005 177.705 32.0875 177.558 32.2345C177.411 32.3814 177.329 32.5807 177.329 32.7885C177.329 32.9963 177.411 33.1956 177.558 33.3425C177.705 33.4894 177.904 33.572 178.112 33.572H206.115C206.323 33.572 206.522 33.4894 206.669 33.3425C206.816 33.1956 206.899 32.9963 206.899 32.7885C206.899 32.5807 206.816 32.3814 206.669 32.2345C206.522 32.0875 206.323 32.005 206.115 32.005Z" fill="#425168"/>
<path fill-rule="evenodd" clip-rule="evenodd" d="M239.936 59.16C211.347 59.16 188.172 82.393 188.172 111.054C188.172 116.678 189.076 122.088 190.727 127.159C188.602 130.076 185.143 132.141 181.877 133.972C185.135 136.646 190.115 136.64 193.813 134.601C202.375 151.421 219.807 162.947 239.936 162.947C268.526 162.947 291.701 139.714 291.701 111.054C291.701 82.394 268.525 59.16 239.936 59.16Z" fill="#B0E314"/>
<path fill-rule="evenodd" clip-rule="evenodd" d="M263.462 146.417C263.589 146.435 263.719 146.416 263.835 146.362C263.952 146.308 264.049 146.221 264.117 146.112C264.185 146.002 264.219 145.876 264.215 145.747C264.212 145.619 264.171 145.494 264.098 145.389C262.368 142.906 258.797 137.287 258.744 133.209V89.97C258.744 89.97 266.243 78.948 262.781 76.708C260.177 75.024 248.301 85.407 248.301 85.407H230.666C230.666 85.407 225.359 74.329 220.492 74.329C218.569 74.329 218.779 79.633 218.779 79.633V128.869C218.779 131.868 217.957 134.809 216.404 137.372L211.322 144.315C210.992 144.858 211.476 145.532 212.094 145.39L218.99 142.415C219.617 142.27 220.079 142.995 219.684 143.505L214.154 148.917C213.834 149.329 214.204 149.917 214.714 149.804L217.677 149.147C218.257 149.019 218.669 149.702 218.285 150.157L213.601 155.701C221.317 160.29 230.311 162.948 239.936 162.948C249.343 162.961 258.574 160.393 266.623 155.524L260.274 145.948L263.462 146.417Z" fill="#B77E56"/>
<path fill-rule="evenodd" clip-rule="evenodd" d="M250.604 100.848C250.493 100.847 250.384 100.82 250.286 100.769C250.187 100.718 250.103 100.645 250.039 100.554C249.974 100.464 249.933 100.36 249.917 100.25C249.901 100.141 249.911 100.029 249.947 99.9239C249.953 99.9069 250.544 98.1189 249.791 96.7199C249.381 95.9579 248.621 95.4279 247.533 95.1439C246.437 94.8609 245.503 94.9519 244.753 95.4239C243.403 96.2719 243.001 98.1109 242.997 98.1299C242.961 98.3103 242.854 98.469 242.701 98.5711C242.548 98.6732 242.361 98.7106 242.18 98.6749C241.999 98.6381 241.841 98.531 241.739 98.3773C241.637 98.2236 241.6 98.0358 241.636 97.8549C241.656 97.7559 242.142 95.4199 244.016 94.2439C245.102 93.5619 246.402 93.4099 247.882 93.7979C249.364 94.1829 250.419 94.9479 251.02 96.0709C252.057 98.0109 251.293 100.282 251.26 100.379C251.213 100.516 251.124 100.634 251.007 100.718C250.889 100.802 250.748 100.848 250.604 100.848ZM227.447 100.848C227.302 100.848 227.162 100.802 227.044 100.718C226.927 100.634 226.838 100.516 226.791 100.379C226.758 100.282 225.994 98.0109 227.031 96.0709C227.631 94.9469 228.687 94.1829 230.169 93.7979C231.651 93.4099 232.949 93.5629 234.034 94.2439C235.909 95.4199 236.396 97.7559 236.414 97.8549C236.45 98.0356 236.414 98.2234 236.312 98.377C236.21 98.5307 236.052 98.6378 235.871 98.6749C235.691 98.7106 235.503 98.6734 235.35 98.5715C235.197 98.4695 235.091 98.3112 235.054 98.1309C235.05 98.1129 234.656 96.2709 233.291 95.4189C232.541 94.9519 231.609 94.8609 230.518 95.1439C229.426 95.4289 228.665 95.9619 228.255 96.7279C227.514 98.1159 228.097 99.9059 228.104 99.9239C228.14 100.029 228.15 100.141 228.134 100.25C228.118 100.36 228.077 100.464 228.012 100.554C227.948 100.645 227.863 100.718 227.765 100.769C227.667 100.82 227.558 100.847 227.447 100.848ZM229.553 118.586C229.539 118.314 229.42 118.058 229.223 117.871C229.025 117.684 228.764 117.579 228.491 117.579C228.219 117.579 227.958 117.684 227.76 117.871C227.563 118.058 227.444 118.314 227.43 118.586C227.422 118.73 227.444 118.874 227.494 119.01C227.544 119.145 227.621 119.269 227.72 119.374C227.819 119.479 227.939 119.562 228.072 119.619C228.204 119.676 228.347 119.705 228.491 119.705C228.636 119.705 228.779 119.676 228.911 119.619C229.044 119.562 229.164 119.479 229.263 119.374C229.362 119.269 229.439 119.145 229.489 119.01C229.539 118.874 229.561 118.73 229.553 118.586ZM234.158 120.586C234.158 120.463 234.134 120.342 234.088 120.228C234.041 120.115 233.972 120.011 233.885 119.925C233.799 119.838 233.696 119.769 233.583 119.722C233.469 119.674 233.348 119.65 233.225 119.65C233.102 119.65 232.981 119.675 232.868 119.722C232.754 119.769 232.652 119.838 232.565 119.925C232.479 120.012 232.41 120.115 232.363 120.228C232.317 120.342 232.293 120.463 232.293 120.586C232.293 121.102 232.711 121.521 233.225 121.521C233.348 121.521 233.469 121.497 233.582 121.449C233.696 121.402 233.798 121.333 233.885 121.247C233.972 121.16 234.04 121.057 234.087 120.943C234.134 120.83 234.158 120.709 234.158 120.586ZM231.033 126.683C231.033 126.523 231.002 126.364 230.941 126.216C230.879 126.068 230.79 125.933 230.676 125.82C230.563 125.707 230.429 125.617 230.281 125.555C230.133 125.494 229.974 125.462 229.814 125.462C229.491 125.462 229.181 125.591 228.952 125.82C228.724 126.049 228.596 126.36 228.596 126.683C228.596 127.006 228.724 127.317 228.952 127.546C229.181 127.774 229.491 127.903 229.814 127.904C229.974 127.904 230.133 127.872 230.281 127.811C230.429 127.749 230.563 127.659 230.676 127.546C230.79 127.433 230.879 127.298 230.941 127.15C231.002 127.002 231.033 126.843 231.033 126.683ZM247.474 118.97C247.482 118.818 247.459 118.665 247.406 118.522C247.353 118.379 247.271 118.248 247.166 118.137C247.061 118.026 246.935 117.938 246.794 117.878C246.654 117.818 246.503 117.787 246.35 117.787C246.198 117.787 246.047 117.818 245.907 117.878C245.766 117.938 245.64 118.026 245.535 118.137C245.43 118.248 245.348 118.379 245.295 118.522C245.242 118.665 245.219 118.818 245.227 118.97C245.219 119.122 245.242 119.275 245.295 119.418C245.348 119.561 245.43 119.692 245.535 119.803C245.64 119.913 245.766 120.002 245.907 120.062C246.047 120.122 246.198 120.153 246.35 120.153C246.503 120.153 246.654 120.122 246.794 120.062C246.935 120.002 247.061 119.913 247.166 119.803C247.271 119.692 247.353 119.561 247.406 119.418C247.459 119.275 247.482 119.122 247.474 118.97ZM251.607 113.56C251.607 113.255 251.486 112.963 251.271 112.747C251.055 112.531 250.763 112.41 250.458 112.41C250.153 112.41 249.861 112.531 249.645 112.747C249.43 112.963 249.309 113.255 249.309 113.56C249.309 113.711 249.338 113.861 249.396 114.001C249.454 114.14 249.538 114.267 249.645 114.374C249.752 114.481 249.879 114.566 250.018 114.624C250.158 114.682 250.308 114.712 250.459 114.712C250.764 114.711 251.056 114.59 251.271 114.374C251.486 114.158 251.607 113.865 251.607 113.56ZM251.05 122.46C251.06 122.285 251.034 122.109 250.973 121.945C250.913 121.78 250.82 121.629 250.699 121.502C250.579 121.374 250.433 121.273 250.272 121.203C250.111 121.134 249.937 121.098 249.762 121.098C249.587 121.098 249.413 121.134 249.252 121.203C249.091 121.273 248.945 121.374 248.825 121.502C248.704 121.629 248.611 121.78 248.551 121.945C248.49 122.109 248.464 122.285 248.474 122.46C248.464 122.635 248.49 122.81 248.551 122.975C248.611 123.14 248.704 123.291 248.825 123.418C248.945 123.546 249.091 123.647 249.252 123.717C249.413 123.786 249.587 123.822 249.762 123.822C249.937 123.822 250.111 123.786 250.272 123.717C250.433 123.647 250.579 123.546 250.699 123.418C250.82 123.291 250.913 123.14 250.973 122.975C251.034 122.81 251.06 122.635 251.05 122.46Z" fill="#154669"/>
<path fill-rule="evenodd" clip-rule="evenodd" d="M245.36 137.85V143.919C245.36 147.297 243.641 150.301 239.73 150.361H238.933C235.021 150.301 233.137 147.297 233.137 143.919V137.849L236.637 136.737L239.249 134.173L241.824 136.723L245.359 137.849L245.36 137.85Z" fill="#FB83C3"/>
<path fill-rule="evenodd" clip-rule="evenodd" d="M250.496 134.716C250.432 134.651 250.355 134.6 250.271 134.565C250.187 134.53 250.096 134.512 250.005 134.512C249.914 134.512 249.823 134.53 249.739 134.565C249.655 134.6 249.578 134.651 249.514 134.716C247.687 136.546 245.947 137.328 244.338 137.036C241.846 136.582 240.267 133.693 239.943 133.049V118.834C241.359 118.34 246.853 116.087 247.753 110.569C248.588 105.439 242.609 106.278 239.754 109.66C239.647 109.789 239.512 109.892 239.359 109.96C239.206 110.028 239.04 110.061 238.873 110.055C238.705 110.048 238.542 110.004 238.394 109.924C238.247 109.845 238.12 109.733 238.023 109.596L237.127 108.333C236.467 107.401 235.442 106.752 234.303 106.682C233.881 106.655 233.457 106.702 233.052 106.822C231.672 107.234 230.404 108.46 231.355 111.825C232.685 116.528 236.645 118.179 238.555 118.712V133.048C238.265 133.63 236.69 136.575 234.159 137.035C232.547 137.329 230.809 136.547 228.983 134.715C228.919 134.65 228.842 134.599 228.758 134.564C228.674 134.529 228.583 134.511 228.492 134.511C228.401 134.511 228.31 134.529 228.226 134.564C228.142 134.599 228.065 134.65 228.001 134.715C227.936 134.78 227.885 134.857 227.85 134.941C227.815 135.026 227.797 135.116 227.797 135.208C227.797 135.3 227.815 135.39 227.85 135.475C227.885 135.559 227.936 135.636 228.001 135.701C229.849 137.554 231.688 138.488 233.482 138.488C233.794 138.488 234.106 138.46 234.414 138.404C236.811 137.964 238.427 135.937 239.249 134.628C240.07 135.937 241.685 137.965 244.083 138.404C244.393 138.46 244.702 138.488 245.015 138.488C246.809 138.488 248.648 137.554 250.496 135.701C250.626 135.57 250.699 135.393 250.699 135.209C250.699 135.024 250.626 134.847 250.496 134.716Z" fill="#154669"/>
<path opacity="0.38" fill-rule="evenodd" clip-rule="evenodd" d="M204.137 148.43C213.443 157.413 226.087 162.947 240.025 162.947C253.965 162.947 266.607 157.413 275.914 148.431C275.914 148.431 263.09 159.148 240.025 159.148C216.96 159.148 204.137 148.431 204.137 148.431" fill="#425168"/>
<path fill-rule="evenodd" clip-rule="evenodd" d="M51.764 34.642C80.354 34.642 103.529 57.875 103.529 86.535C103.529 92.16 102.625 97.569 100.974 102.641C103.098 105.557 106.558 107.621 109.824 109.453C106.566 112.127 101.586 112.121 97.888 110.082C89.326 126.902 71.894 138.428 51.764 138.428C23.176 138.428 0 115.195 0 86.535C0 57.875 23.176 34.642 51.764 34.642ZM137.926 91.456C138.009 91.3364 138.115 91.2343 138.238 91.1557C138.36 91.0771 138.497 91.0233 138.641 90.9976C138.784 90.9719 138.931 90.9747 139.073 91.0058C139.216 91.0369 139.35 91.0958 139.47 91.179L142.2 93.079L147.735 85.125C147.818 85.0074 147.924 84.9073 148.046 84.8306C148.168 84.7539 148.304 84.702 148.447 84.6779C148.589 84.6537 148.734 84.6578 148.875 84.6899C149.016 84.722 149.148 84.7815 149.266 84.865L151.998 86.766C152.238 86.9302 152.404 87.183 152.458 87.469C152.513 87.7551 152.451 88.051 152.288 88.292L144.206 99.904C143.862 100.396 143.176 100.513 142.674 100.162L136.303 95.729C136.183 95.646 136.081 95.5402 136.003 95.4177C135.924 95.2951 135.87 95.1583 135.844 95.0149C135.819 94.8716 135.821 94.7246 135.853 94.5824C135.884 94.4401 135.943 94.3054 136.026 94.186L137.926 91.456Z" fill="#00C78C"/>
<mask id="mask0_26_818" style="mask-type:luminance" maskUnits="userSpaceOnUse" x="28" y="120" width="46" height="19">
<path d="M28.6028 132.957C35.7896 136.566 43.7226 138.441 51.7648 138.429C59.3339 138.439 66.812 136.778 73.6648 133.564V120.51H28.6018V132.957H28.6028Z" fill="#F52E45"/>
</mask>
<g mask="url(#mask0_26_818)">
<path fill-rule="evenodd" clip-rule="evenodd" d="M45.5317 147.391L73.6537 144.284C73.6677 137.797 73.6737 129.779 73.6307 128.325C73.5567 125.817 70.9787 124.979 70.9787 124.979L56.1217 120.522L50.9047 125.984L45.6767 120.51L31.2897 124.98C31.2897 124.98 28.7107 125.816 28.6357 128.324C28.5897 129.862 28.5997 138.758 28.6157 145.425C33.8677 147.301 39.6147 148.045 45.5317 147.391Z" fill="#F52E45"/>
</g>
<path fill-rule="evenodd" clip-rule="evenodd" d="M71.2779 80.7261C71.3179 78.4721 70.9349 70.6781 64.1779 66.0261C54.7219 59.5161 49.0219 65.5621 49.0219 65.5621C49.0219 65.5621 43.7739 61.1951 37.2159 64.9121C30.6589 68.6281 30.5469 79.4081 30.5469 79.4081V80.7211H30.1639C27.7459 80.7471 25.7869 82.5521 25.7869 84.8101C25.7869 87.0671 27.7469 88.8971 30.1639 88.8971H30.6139C30.8639 92.9561 32.0529 102.674 37.7079 107.346C41.7009 110.644 43.7499 112.779 45.6779 114.006V120.51L50.9039 125.983L56.1209 120.521V113.705C58.1039 112.442 60.5109 110.39 64.1959 107.345C69.8509 102.674 70.9759 92.9551 71.1969 88.8971C73.6149 88.8971 75.5739 87.0671 75.5739 84.8101C75.5739 82.5771 73.6579 80.7911 71.2779 80.7261Z" fill="#FBD7B6"/>
<path opacity="0.38" fill-rule="evenodd" clip-rule="evenodd" d="M51.152 115.348H50.647C48.529 115.348 47.138 114.936 45.677 114.005V116.577C47.138 117.507 48.529 117.92 50.647 117.92H51.152C52.88 117.92 54.326 117.422 56.122 116.278V113.706C54.326 114.851 52.88 115.348 51.152 115.348Z" fill="#435168"/>
<path fill-rule="evenodd" clip-rule="evenodd" d="M29.5719 87.158C28.2139 87.158 27.1099 86.105 27.1099 84.81C27.1099 83.694 27.9469 82.726 29.1019 82.507C29.1596 82.4969 29.2187 82.4985 29.2758 82.5117C29.3328 82.525 29.3866 82.5495 29.434 82.5839C29.4814 82.6183 29.5214 82.6619 29.5516 82.7121C29.5818 82.7623 29.6016 82.818 29.6099 82.876C29.6321 82.9931 29.6078 83.1142 29.542 83.2136C29.4763 83.313 29.3743 83.3827 29.2579 83.408C28.5199 83.548 27.9849 84.138 27.9849 84.81C27.9849 85.6 28.6969 86.242 29.5719 86.242C29.8129 86.242 30.0089 86.448 30.0089 86.7C30.0115 86.8187 29.967 86.9336 29.8851 87.0194C29.8032 87.1053 29.6905 87.1551 29.5719 87.158Z" fill="#425168"/>
<path fill-rule="evenodd" clip-rule="evenodd" d="M64.1779 58.222C64.1779 58.222 54.7929 43.078 37.5669 50.51C20.3409 57.943 23.8659 77.351 30.5469 80.721C30.5469 80.721 30.6579 68.627 37.2169 64.911C42.3559 61.999 46.6769 64.046 48.3119 65.071C47.2519 62.858 45.7459 61.338 43.8169 60.562C39.7049 58.908 34.9969 61.124 34.9509 61.146C34.8983 61.1707 34.8412 61.1845 34.7832 61.1866C34.7251 61.1887 34.6672 61.1789 34.613 61.158C34.5588 61.1371 34.5094 61.1054 34.4678 61.0648C34.4262 61.0242 34.3932 60.9757 34.3709 60.922C34.3217 60.8126 34.3166 60.6885 34.3567 60.5754C34.3967 60.4623 34.4788 60.3691 34.5859 60.315C34.7909 60.215 39.6659 57.914 44.1249 59.705C45.8889 60.414 47.3329 61.665 48.4349 63.435C47.3489 55.463 41.3929 54.132 41.3289 54.119C41.2127 54.0915 41.1118 54.0199 41.0476 53.9193C40.9834 53.8186 40.9609 53.6969 40.9849 53.58C40.9944 53.5223 41.0153 53.4671 41.0465 53.4177C41.0776 53.3682 41.1183 53.3254 41.1662 53.2919C41.2141 53.2584 41.2682 53.2348 41.3253 53.2224C41.3824 53.2101 41.4414 53.2092 41.4989 53.22C41.5739 53.236 49.0109 54.895 49.4589 65.076C49.4599 65.12 49.4389 65.154 49.4289 65.193C50.8849 63.985 56.1929 60.529 64.1789 66.027C72.1409 71.508 71.2499 81.357 71.2499 81.357C71.2499 81.357 74.0899 81.164 74.9919 74.667C76.1739 66.15 74.3509 59.616 64.1779 58.222Z" fill="#5E6B7E"/>
<path fill-rule="evenodd" clip-rule="evenodd" d="M41.4988 53.22C41.4413 53.2091 41.3821 53.2098 41.3249 53.222C41.2677 53.2343 41.2134 53.2579 41.1654 53.2915C41.1175 53.325 41.0767 53.3678 41.0455 53.4174C41.0143 53.4669 40.9933 53.5222 40.9838 53.58C40.9596 53.6971 40.9821 53.819 41.0465 53.9197C41.111 54.0204 41.2123 54.092 41.3288 54.119C41.3928 54.132 47.3488 55.462 48.4348 63.437C47.3328 61.665 45.8888 60.413 44.1248 59.705C39.6648 57.915 34.7908 60.215 34.5848 60.315C34.4783 60.3694 34.3968 60.4626 34.357 60.5753C34.3172 60.688 34.3221 60.8118 34.3708 60.921C34.4708 61.151 34.7318 61.251 34.9508 61.147C34.9968 61.124 39.7048 58.908 43.8158 60.562C45.7458 61.338 47.2518 62.859 48.3108 65.07C48.7628 65.353 49.0208 65.562 49.0208 65.562C49.0208 65.562 49.1588 65.415 49.4278 65.193C49.4378 65.154 49.4598 65.119 49.4578 65.077C49.0098 54.894 41.5748 53.236 41.4988 53.22ZM44.7908 86.362C44.6516 86.3586 44.5195 86.3001 44.4233 86.1995C44.3272 86.0988 44.2748 85.9641 44.2778 85.825C44.2778 83.954 42.8228 82.432 41.0368 82.432C39.2498 82.432 37.7958 83.954 37.7958 85.825C37.7958 86.122 37.5658 86.362 37.2818 86.362C37.1426 86.3586 37.0105 86.3001 36.9143 86.1995C36.8182 86.0988 36.7658 85.9641 36.7688 85.825C36.7688 83.361 38.6828 81.357 41.0368 81.357C43.3898 81.357 45.3038 83.361 45.3038 85.825C45.3038 86.122 45.0738 86.362 44.7908 86.362ZM64.6678 86.362C64.5285 86.3588 64.3961 86.3005 64.2997 86.1998C64.2033 86.0991 64.1508 85.9643 64.1538 85.825C64.1538 83.954 62.6998 82.432 60.9138 82.432C59.1268 82.432 57.6718 83.954 57.6718 85.825C57.6718 86.122 57.4428 86.362 57.1588 86.362C57.0196 86.3586 56.8875 86.3001 56.7913 86.1995C56.6952 86.0988 56.6428 85.9641 56.6458 85.825C56.6458 83.361 58.5598 81.357 60.9128 81.357C63.2668 81.357 65.1808 83.361 65.1808 85.825C65.1808 86.122 64.9508 86.362 64.6678 86.362ZM54.9448 97.78H46.7898C46.7198 97.7795 46.6509 97.762 46.5892 97.7289C46.5275 97.6958 46.4749 97.6481 46.4358 97.59C46.3952 97.5307 46.3685 97.4631 46.3578 97.3921C46.3471 97.3211 46.3525 97.2486 46.3738 97.18L47.5418 93.43C47.5577 93.3739 47.5849 93.3217 47.6215 93.2764C47.6581 93.231 47.7035 93.1936 47.7549 93.1662C47.8064 93.1389 47.8628 93.1222 47.9209 93.1172C47.9789 93.1121 48.0374 93.1189 48.0928 93.137C48.3228 93.216 48.4478 93.474 48.3728 93.714L47.3928 96.864H54.3438L53.3628 93.714C53.326 93.6003 53.3345 93.4767 53.3867 93.3691C53.4389 93.2616 53.5307 93.1784 53.6428 93.137C53.6983 93.119 53.7568 93.1124 53.8148 93.1174C53.8729 93.1225 53.9294 93.1392 53.9809 93.1666C54.0323 93.1939 54.0778 93.2313 54.1146 93.2765C54.1513 93.3218 54.1786 93.374 54.1948 93.43L55.3618 97.18C55.4058 97.319 55.3818 97.472 55.2998 97.59C55.2607 97.6481 55.208 97.6958 55.1463 97.7289C55.0847 97.762 55.0148 97.7795 54.9448 97.78ZM51.2338 107.173H50.0148C46.8468 107.173 44.3768 104.123 44.2738 103.994C44.1992 103.899 44.1634 103.78 44.1736 103.66C44.1838 103.54 44.2393 103.429 44.3288 103.348C44.3722 103.31 44.4231 103.28 44.4782 103.263C44.5334 103.245 44.5916 103.238 44.6494 103.244C44.7071 103.249 44.7631 103.266 44.8139 103.294C44.8647 103.322 44.9093 103.36 44.9448 103.406C44.9678 103.435 47.2608 106.257 50.0148 106.257H51.2338C53.9888 106.257 56.2808 103.435 56.3038 103.406C56.3393 103.36 56.3839 103.322 56.4347 103.294C56.4855 103.266 56.5415 103.249 56.5992 103.244C56.657 103.238 56.7152 103.245 56.7703 103.263C56.8255 103.28 56.8763 103.31 56.9198 103.348C57.1038 103.511 57.1298 103.799 56.9748 103.994C56.8708 104.123 54.4018 107.174 51.2338 107.174M45.6668 79.974C45.5726 79.9736 45.4799 79.9502 45.3968 79.906C40.1968 77.107 36.8038 79.814 36.7698 79.842C36.7094 79.8921 36.6394 79.9292 36.5641 79.9511C36.4888 79.973 36.4098 79.9793 36.332 79.9694C36.2542 79.9596 36.1793 79.9339 36.1118 79.8939C36.0443 79.8539 35.9858 79.8005 35.9398 79.737C35.843 79.6066 35.7996 79.4442 35.8184 79.283C35.8371 79.1217 35.9167 78.9736 36.0408 78.869C36.2018 78.736 40.0708 75.649 45.9378 78.805C46.2278 78.961 46.3418 79.334 46.1928 79.638C46.1456 79.7378 46.0712 79.8222 45.9782 79.8817C45.8851 79.9411 45.7772 79.9731 45.6668 79.974ZM65.5438 79.974C65.4496 79.9736 65.3569 79.9502 65.2738 79.906C60.0738 77.107 56.6808 79.814 56.6468 79.842C56.5864 79.8921 56.5164 79.9292 56.4411 79.9511C56.3658 79.973 56.2868 79.9793 56.209 79.9694C56.1312 79.9596 56.0563 79.9339 55.9888 79.8939C55.9213 79.8539 55.8628 79.8005 55.8168 79.737C55.72 79.6066 55.6766 79.4442 55.6954 79.283C55.7141 79.1217 55.7937 78.9736 55.9178 78.869C56.0788 78.736 59.9478 75.649 65.8148 78.805C66.1048 78.961 66.2188 79.334 66.0698 79.638C66.0226 79.7378 65.9482 79.8222 65.8552 79.8817C65.7621 79.9411 65.6542 79.9731 65.5438 79.974ZM72.0798 87.158C71.9611 87.1551 71.8485 87.1052 71.7665 87.0194C71.6846 86.9335 71.6401 86.8186 71.6428 86.7C71.6428 86.448 71.8378 86.242 72.0798 86.242C72.9548 86.242 73.6668 85.6 73.6668 84.81C73.6668 84.138 73.1318 83.549 72.3928 83.408C72.2763 83.3827 72.1744 83.3129 72.1086 83.2136C72.0429 83.1142 72.0185 82.993 72.0408 82.876C72.0488 82.8177 72.0684 82.7617 72.0986 82.7113C72.1288 82.6608 72.1689 82.617 72.2164 82.5824C72.2639 82.5479 72.318 82.5233 72.3753 82.5102C72.4326 82.497 72.4919 82.4956 72.5498 82.506C73.7038 82.726 74.5418 83.694 74.5418 84.81C74.5418 86.105 73.4378 87.158 72.0798 87.158Z" fill="#425168"/>
<path fill-rule="evenodd" clip-rule="evenodd" d="M64.6009 58.297C64.5959 58.327 64.5969 58.358 64.5869 58.387L62.3199 64.524C62.298 64.5786 62.2649 64.6281 62.223 64.6694C62.181 64.7107 62.1309 64.7429 62.0759 64.764C62.7569 65.124 63.4519 65.527 64.1789 66.026C72.1409 71.509 71.2499 81.356 71.2499 81.356C71.2499 81.356 74.0899 81.165 74.9919 74.667C76.1569 66.274 74.3859 59.817 64.6009 58.297Z" fill="#5E6B7E"/>
<path fill-rule="evenodd" clip-rule="evenodd" d="M62.3199 64.523L64.5859 58.388C64.5969 58.358 64.5959 58.328 64.6009 58.297C64.4559 58.274 64.3269 58.242 64.1779 58.222C64.1779 58.222 64.0959 58.089 63.9319 57.854C63.8588 57.9037 63.8026 57.9745 63.7709 58.057L61.5039 64.193C61.4745 64.2788 61.4711 64.3713 61.4939 64.459C61.6839 64.551 61.8809 64.661 62.0759 64.764C62.1819 64.717 62.2759 64.643 62.3199 64.523Z" fill="#425168"/>
<path opacity="0.38" fill-rule="evenodd" clip-rule="evenodd" d="M15.876 123.912C25.182 132.895 37.826 138.428 51.764 138.428C65.704 138.428 78.346 132.895 87.653 123.912C87.653 123.912 74.829 134.63 51.764 134.63C28.699 134.63 15.876 123.912 15.876 123.912ZM171.021 52.02C176.365 57.179 183.624 60.356 191.628 60.356C199.632 60.356 206.892 57.179 212.236 52.021C212.236 52.021 204.873 58.175 191.628 58.175C178.384 58.175 171.021 52.02 171.021 52.02ZM147.177 176.33C143.651 176.333 140.168 175.558 136.977 174.059C139.11 177.253 143.712 181.357 152.935 180.012C153.305 178.482 153.617 176.932 153.892 175.377C151.761 175.997 149.508 176.33 147.177 176.33Z" fill="#425168"/>
</g>
<defs>
<clipPath id="clip0_26_818">
<rect width="292" height="181" fill="white"/>
</clipPath>
</defs>
</svg>
