<svg width="1190" height="35" viewBox="0 0 1190 35" fill="none" xmlns="http://www.w3.org/2000/svg">
<g clip-path="url(#clip0_155_23)">
<path fill-rule="evenodd" clip-rule="evenodd" d="M1164.76 2.16174C1163.73 1.85292 1161.93 1.64711 1158.84 1.33829C1165.02 5.35299 1170.17 9.47056 1167.34 13.4853C1167.08 13.897 1165.54 14.103 1164.76 13.7941C1152.66 8.64708 1151.89 3.29412 1152.66 0C1150.86 0 1145.97 4.32355 1143.91 6.58826C1141.07 9.98532 1137.47 13.2794 1134.38 16.6764C1134.12 16.9852 1133.61 17.2941 1131.03 17.6029C1119.7 13.5882 1124.08 7.72059 1122.02 7.72059C1119.96 9.26471 1113.78 14.103 1111.46 15.7501C1102.7 11.2206 1105.79 6.79407 1111.2 1.23524C1109.4 0.823479 1092.4 7.51466 1085.19 10.5C1083.91 11.1176 1081.85 11.2206 1080.3 10.8088C1075.92 9.77941 1071.8 8.75 1066.65 7.72059C1060.21 6.48529 1052.23 5.35292 1044.76 4.22056C1055.32 7.8235 1063.82 10.9118 1064.59 14.3088C1054.03 10.5 1015.67 1.44115 1010 1.64703C1033.69 9.88233 1035.75 13.5882 1027.77 19.147C1026.48 19.147 1015.41 12.8676 1015.41 12.8676C1014.38 11.8382 1009.49 9.57355 1004.33 8.13238C1000.21 7.82355 1010 11.3235 1005.88 15.1323C1002.53 17.1911 1000.47 17.0882 999.442 17.0882C991.974 16.6764 979.614 14.6176 979.356 9.88233C979.356 7.8235 988.369 3.50003 988.369 3.50003C988.369 3.50003 973.434 5.66177 968.026 6.69118C959.013 8.44118 952.318 12.0441 951.545 11.9412C950 10.6029 947.683 6.48529 946.137 5.14706C944.85 5.14706 937.125 9.47061 935.837 10.7059C929.142 9.98532 906.223 9.16174 908.283 9.36762C912.403 9.98527 916.523 10.6029 920.129 11.3235C922.961 11.9412 925.794 12.5588 928.369 13.2794C924.764 15.3383 921.674 17.9118 916.781 18.5294C916.266 18.5294 904.936 9.0588 883.305 5.76468C886.137 9.47056 889.485 13.1765 885.88 16.7795C878.67 13.3824 874.292 9.98534 869.914 6.48534C869.399 6.17652 868.369 6.27944 868.112 6.58826C866.824 10.3971 854.206 14.9265 854.206 14.9265L856.009 3.19115C851.889 3.19115 833.605 13.2794 823.562 17.9118C823.305 17.9118 818.154 14.9265 815.579 12.6618C812.232 7.51476 811.459 4.94113 808.627 4.83819C803.734 4.83819 794.464 14.6176 789.056 19.5588C785.966 18.4265 783.906 17.1912 783.133 16.0588C782.361 14.8235 782.361 13.6912 782.618 12.4559C782.618 11.3235 782.876 10.0882 783.906 8.85292C784.936 7.72056 786.738 6.58819 788.541 5.35289C790.343 4.22054 792.404 2.98534 793.176 1.85299C778.24 4.83829 767.167 7.92642 759.957 11.0147C753.777 7.72054 757.124 4.32353 757.897 1.02941C755.837 0.823529 743.991 5.14708 738.584 7.61767C714.893 -1.33821 694.549 1.13233 693.519 1.13233C697.639 1.74997 720.043 5.76476 726.223 10.603C731.373 14.3089 723.906 18.4265 721.331 18.5294C718.24 16.4706 715.15 14.4118 712.06 12.3529C710.258 12.3529 698.927 18.7353 695.065 21.4118C694.034 21.3089 693.777 20.897 693.519 20.1764C690.944 16.4706 698.927 12.9705 715.665 9.47054C702.79 10.0882 691.717 12.4558 683.734 13.5882C682.961 13.6911 681.931 13.4853 682.189 13.2794L688.884 7.61767C688.369 5.04414 658.24 12.9706 646.137 17.3971H640.472V9.88233C632.232 12.147 627.597 14.4117 623.219 16.6764C622.446 16.5735 622.189 16.5735 621.416 16.5735C611.888 7.41174 592.318 6.27939 588.198 6.27939L591.03 7.61767C593.605 8.95591 592.318 10.5 587.94 11.4264C577.897 8.85292 567.854 6.38235 548.798 4.11765C568.627 9.47059 566.824 14.5147 566.309 14.3088C552.661 8.23532 546.738 6.38233 527.94 5.76468C534.12 5.97056 555.751 14.5147 537.983 20.1764C537.21 20.1764 536.438 19.9706 535.408 19.9706C531.288 16.8824 531.287 16.6764 527.167 13.4853C524.85 12.0441 522.275 8.75 520.215 8.75C518.412 10.8088 515.579 13.0736 513.777 14.3088C504.507 10.0883 506.309 5.97054 511.717 1.74995C510.429 1.64701 481.33 7.20593 474.12 18.8383C473.863 19.353 460.987 1.95591 460.472 1.95591C459.699 2.26473 458.412 5.45586 458.155 5.76468C457.382 6.58821 455.579 11.6324 452.232 12.1471C450.172 12.4559 446.051 9.57358 445.021 9.05887C441.674 7.6177 438.584 6.17645 436.008 4.73527C435.236 4.3235 432.403 4.42642 432.146 4.83819C428.541 13.0735 417.468 14.7206 413.863 15.853C406.137 12.9706 411.803 9.77941 411.803 9.77941C411.803 9.77941 398.155 14 392.747 17.1911C388.369 15.8529 389.657 12.147 397.124 10.397C405.107 8.44115 407.167 7.82358 412.06 5.97064C394.034 8.1324 393.519 8.64711 381.674 10.603C371.888 7.72064 365.966 5.04412 350.772 2.57353C361.073 8.23529 366.223 14 354.12 19.6617C348.97 15.2353 336.352 4.42652 335.322 4.42652C334.292 4.73534 333.004 6.69123 332.747 7.00005C328.627 10.603 324.507 14.2059 320.644 17.8089C320.386 17.8089 319.871 17.9118 318.584 18.0147C303.906 8.64706 280.91 4.11765 280.91 4.11765L285.004 8.33821C285.725 9.16174 286.163 9.88238 286.137 10.7059C286.112 11.8383 285.184 13.1765 280.755 12.25C270.506 9.88238 259.253 7.61767 242.258 5.55885C241.794 5.66179 241.871 5.66174 241.434 5.76468C247.356 7.51468 254.721 9.16174 258.79 10.9117C262.961 12.6617 264.069 14.4118 264.944 16.2648C257.27 12.6618 247.408 9.05885 230.618 5.55885C235.253 9.36767 234.919 13.1765 233.245 16.9853C232.163 16.9853 232.06 17.0882 230.979 17.1911C216.481 10.0882 230.103 7.10292 222.815 7.8235C219.21 7.72056 209.785 11.1177 207.957 11.2206C205.485 7.20591 210.867 3.80877 215.76 1.74995C201.004 1.54407 179.09 13.3824 172.292 16.7795C171.571 17.1912 169.511 17.0883 169.047 16.7795C163.82 12.2501 153.88 4.63235 152.927 4.63235L137.476 18.8383H133.923C126.326 13.2795 128.927 7.61767 140.232 1.95591C124.987 4.63238 118.163 7.41177 107.554 10.2941C105.416 9.88235 103.408 9.47064 101.142 9.05887C101.142 8.02946 101.708 7.00005 101.914 5.97064C101.991 5.55887 100.215 5.35297 98.8756 5.55885C95.734 6.07355 93.1845 6.69123 91.1759 7.51476C83.3218 6.27946 73.9227 4.83821 68.6695 4.22056C67.794 4.11762 66.9957 4.4265 67.5622 4.52944C70.1373 5.45591 80.721 8.85299 83.2703 10.0883C86.0772 11.5295 84.6094 12.5588 84.6094 12.5588C84.6094 12.5588 45.9571 4.52944 34.4206 4.52944C31.9485 4.52944 68.6696 11.3235 56.0258 17.0882C55.176 17.5 53.2703 17.7059 51.5965 17.6029C45.0558 17.0882 38.7725 13.897 37.6137 13.0735C34.9098 11.1176 29.8884 7.51476 28.1373 7.00005C24.6352 8.02946 22.3175 11.9412 14.412 14.8236C7.84544 14.2059 18.2747 9.57353 14.7725 9.77941C13.6137 9.98529 12.4549 10.2941 11.2446 10.5C9.93133 10.8088 8.02578 10.8088 6.76397 10.5C3.9056 9.8823 -9.22747 7.72064 -5.98284 9.05887C-2.7382 10.3971 0.815482 11.7353 0.815482 13.1765C0.815482 15.1324 -8.04292 17.8088 -10 18.5294V34.4853H1190V18.5294C1185.62 11.6324 1178.93 6.79414 1171.2 4.01473C1169.4 3.39708 1167.34 2.77939 1164.76 2.16174Z" fill="#00C78C"/>
</g>
<defs>
<clipPath id="clip0_155_23">
<rect width="1200" height="35" fill="white" transform="translate(-10)"/>
</clipPath>
</defs>
</svg>
