<svg width="21" height="21" viewBox="0 0 21 21" fill="none" xmlns="http://www.w3.org/2000/svg">
<g clip-path="url(#clip0_78_4266)">
<path d="M21.0001 3.98714C20.2274 4.32979 19.3971 4.5614 18.5256 4.66554C19.4151 4.13234 20.0983 3.28803 20.42 2.28192C19.5874 2.77571 18.6654 3.13422 17.684 3.32741C16.8982 2.49007 15.7784 1.96692 14.5392 1.96692C12.1599 1.96692 10.2308 3.89584 10.2308 6.27516C10.2308 6.61284 10.2689 6.94166 10.3423 7.25703C6.76167 7.0773 3.58702 5.36211 1.46208 2.75544C1.09122 3.39176 0.878719 4.13185 0.878719 4.92144C0.878719 6.41621 1.63931 7.73495 2.79538 8.50756C2.08913 8.48516 1.4248 8.29136 0.843979 7.96865C0.843568 7.98662 0.843568 8.00466 0.843568 8.02284C0.843568 10.1103 2.3287 11.8516 4.29959 12.2474C3.93812 12.3459 3.55745 12.3986 3.16452 12.3986C2.88688 12.3986 2.617 12.3716 2.35389 12.3213C2.90218 14.0329 4.49326 15.2786 6.37859 15.3133C4.90407 16.4689 3.04635 17.1576 1.02777 17.1576C0.679998 17.1576 0.337066 17.1372 0 17.0973C1.90665 18.3198 4.17133 19.0332 6.60438 19.0332C14.529 19.0332 18.8626 12.4681 18.8626 6.77473C18.8626 6.58794 18.8584 6.40214 18.8501 6.21733C19.6921 5.60989 20.4225 4.8511 21.0001 3.98714Z" fill="black"/>
</g>
<defs>
<clipPath id="clip0_78_4266">
<rect width="21" height="21" fill="white"/>
</clipPath>
</defs>
</svg>
