<svg width="49" height="42" viewBox="0 0 49 42" fill="none" xmlns="http://www.w3.org/2000/svg">
<path d="M27.2759 1.11918C27.9323 0.40257 28.8224 0 29.7505 0C30.6785 0 31.5686 0.40257 32.225 1.11918L47.9752 18.3206C48.6314 19.0374 49 20.0095 49 21.0231C49 22.0367 48.6314 23.0088 47.9752 23.7256L32.225 40.927C31.5649 41.6233 30.6808 42.0086 29.7631 41.9999C28.8453 41.9911 27.9675 41.5891 27.3186 40.8804C26.6696 40.1717 26.3015 39.2129 26.2935 38.2107C26.2856 37.2084 26.6384 36.2429 27.2759 35.5219L36.7506 24.8456H3.50005C2.57178 24.8456 1.68153 24.4429 1.02514 23.726C0.368755 23.0091 0 22.0369 0 21.0231C0 20.0093 0.368755 19.037 1.02514 18.3201C1.68153 17.6033 2.57178 17.2006 3.50005 17.2006H36.7506L27.2759 6.52424C26.6198 5.80741 26.2511 4.83531 26.2511 3.82171C26.2511 2.80811 26.6198 1.83601 27.2759 1.11918Z" fill="#1E1E1E"/>
<path d="M27.2759 1.11918C27.9323 0.40257 28.8224 0 29.7505 0C30.6785 0 31.5686 0.40257 32.225 1.11918L47.9752 18.3206C48.6314 19.0374 49 20.0095 49 21.0231C49 22.0367 48.6314 23.0088 47.9752 23.7256L32.225 40.927C31.5649 41.6233 30.6808 42.0086 29.7631 41.9999C28.8453 41.9911 27.9675 41.5891 27.3186 40.8804C26.6696 40.1717 26.3015 39.2129 26.2935 38.2107C26.2856 37.2084 26.6384 36.2429 27.2759 35.5219L36.7506 24.8456H3.50005C2.57178 24.8456 1.68153 24.4429 1.02514 23.726C0.368755 23.0091 0 22.0369 0 21.0231C0 20.0093 0.368755 19.037 1.02514 18.3201C1.68153 17.6033 2.57178 17.2006 3.50005 17.2006H36.7506L27.2759 6.52424C26.6198 5.80741 26.2511 4.83531 26.2511 3.82171C26.2511 2.80811 26.6198 1.83601 27.2759 1.11918Z" fill="black" fill-opacity="0.2"/>
</svg>
