<svg width="28" height="26" viewBox="0 0 28 26" fill="none" xmlns="http://www.w3.org/2000/svg">
<path d="M15.5862 0.692561C15.9613 0.249114 16.4699 0 17.0003 0C17.5306 0 18.0392 0.249114 18.4143 0.692561L27.4144 11.3369C27.7894 11.7805 28 12.3821 28 13.0093C28 13.6365 27.7894 14.238 27.4144 14.6816L18.4143 25.326C18.0371 25.7569 17.5319 25.9953 17.0075 25.9899C16.4831 25.9845 15.9814 25.7358 15.6106 25.2972C15.2398 24.8586 15.0294 24.2653 15.0249 23.6451C15.0203 23.0249 15.2219 22.4274 15.5862 21.9813L21.0003 15.3747H2.00003C1.46959 15.3747 0.960874 15.1255 0.585795 14.6819C0.210717 14.2383 0 13.6366 0 13.0093C0 12.3819 0.210717 11.7803 0.585795 11.3367C0.960874 10.8931 1.46959 10.6439 2.00003 10.6439H21.0003L15.5862 4.03726C15.2113 3.59368 15.0007 2.99213 15.0007 2.36491C15.0007 1.73769 15.2113 1.13614 15.5862 0.692561Z" fill="#425168"/>
</svg>
